<?xml version="1.0" encoding="UTF-8" standalone="no"?>
<!-- Created with Inkscape (http://www.inkscape.org/) -->

<svg
   width="300"
   height="300"
   viewBox="0 0 79.375 79.374999"
   version="1.1"
   id="svg2363"
   xml:space="preserve"
   inkscape:version="1.2.1 (9c6d41e410, 2022-07-14)"
   sodipodi:docname="drawing-1.svg"
   xmlns:inkscape="http://www.inkscape.org/namespaces/inkscape"
   xmlns:sodipodi="http://sodipodi.sourceforge.net/DTD/sodipodi-0.dtd"
   xmlns="http://www.w3.org/2000/svg"
   xmlns:svg="http://www.w3.org/2000/svg"><sodipodi:namedview
     id="namedview2365"
     pagecolor="#ffffff"
     bordercolor="#000000"
     borderopacity="0.25"
     inkscape:showpageshadow="2"
     inkscape:pageopacity="0.0"
     inkscape:pagecheckerboard="0"
     inkscape:deskcolor="#d1d1d1"
     inkscape:document-units="px"
     showgrid="false"
     inkscape:zoom="1.5376122"
     inkscape:cx="183.40125"
     inkscape:cy="121.61714"
     inkscape:window-width="1920"
     inkscape:window-height="1017"
     inkscape:window-x="-8"
     inkscape:window-y="-8"
     inkscape:window-maximized="1"
     inkscape:current-layer="svg2363"><inkscape:page
       x="0"
       y="0"
       width="79.375"
       height="79.375"
       id="page2603" /><inkscape:page
       x="310"
       y="0"
       width="203.80896"
       height="172.20407"
       id="page2605" /><inkscape:page
       x="523.80896"
       y="0"
       width="267.22916"
       height="203.87825"
       id="page2971" /></sodipodi:namedview><defs
     id="defs2360" /><g
     inkscape:label="Layer 1"
     inkscape:groupmode="layer"
     id="layer1" /><g
     id="g3115"
     transform="matrix(0.29702969,0,0,0.29702969,-155.58681,0)"
     style="stroke-width:3.36667"><circle
       cx="561.98083"
       cy="103.45208"
       r="16.933332"
       fill="#ff6584"
       id="circle2883"
       style="stroke-width:0.890763" /><path
       d="m 596.65843,199.09896 h -0.0172 A 2.251493,2.251493 0 0 1 594.39229,196.85 V 64.822916 a 2.251493,2.251493 0 0 1 2.24896,-2.248958 h 111.125 a 2.2514719,2.2514718 0 0 1 2.24896,2.248958 V 167.48125 a 2.2513899,2.2513898 0 0 1 -2.23152,2.24883 z"
       fill="#f2f2f2"
       id="path2885"
       style="stroke-width:0.890763" /><path
       d="M 678.79438,43.920833 H 627.20063 V 14.022916 a 2.3839805,2.3839805 0 0 1 2.38125,-2.381249 h 46.83125 a 2.3839779,2.3839778 0 0 1 2.38125,2.381249 z m -51.06459,-0.529167 h 50.53542 v -29.36875 a 1.854163,1.8541629 0 0 0 -1.85208,-1.852083 h -46.83125 a 1.8541656,1.8541656 0 0 0 -1.85209,1.852083 z"
       fill="#3f3d56"
       id="path2887"
       style="stroke-width:0.890763" /><path
       d="m 641.885,23.01875 h 22.225 a 2.1166667,2.1166666 0 0 1 2.11667,2.116666 v 31.75 h -26.45834 v -31.75 A 2.1166667,2.1166666 0 0 1 641.885,23.01875 Z"
       fill="#e6e6e6"
       id="path2889"
       style="stroke-width:0.890763" /><path
       d="M 646.25063,12.170833 H 635.40271 V 1.3229167 A 1.3244327,1.3244327 0 0 1 636.72563,0 h 8.20208 a 1.3244327,1.3244327 0 0 1 1.32292,1.3229167 z m -10.31875,-0.529166 h 9.78958 V 1.3229167 a 0.79461783,0.79461782 0 0 0 -0.79375,-0.79375004 h -8.20208 a 0.79461783,0.79461782 0 0 0 -0.79375,0.79375004 z"
       fill="#3f3d56"
       id="path2891"
       style="stroke-width:0.890763" /><path
       d="m 735.39144,171.67221 c -0.10549,0 -0.20813,0 -0.31361,-0.003 a 26.861101,26.8611 0 0 1 -17.69918,-6.91806 q -0.26956,-0.24533 -0.53466,-0.49713 l -0.0819,-0.0782 v -50.708 l 0.0253,-0.0536 c 0.17512,-0.37129 0.35282,-0.73729 0.53046,-1.10329 5.50341,-11.17322 11.92188,-17.325815 18.07364,-17.325815 8.87136,0 15.75156,12.169155 19.06311,19.422975 4.60502,10.08698 7.82116,22.58596 7.82116,30.39543 a 26.875354,26.875353 0 0 1 -26.57713,26.86579 c -0.0988,0.003 -0.20437,0.003 -0.30714,0.003 z m -18.10019,-7.72292 c 0.14658,0.13849 0.29462,0.27516 0.44268,0.41005 a 26.334244,26.334243 0 0 0 17.35346,6.78111 c 0.10715,0.003 0.20851,-2.7e-4 0.31103,0.003 0.096,0 0.19449,0 0.29048,-0.002 14.36999,-0.15942 26.05765,-11.97408 26.05765,-26.33677 0,-7.74164 -3.19651,-20.15032 -7.77337,-30.17567 -3.25884,-7.13833 -10.0063,-19.113566 -18.58174,-19.113566 -5.9395,0 -12.18931,6.047696 -17.59828,17.029066 -0.16763,0.34533 -0.33583,0.69195 -0.50191,1.04309 z"
       fill="#3f3d56"
       id="path2893"
       style="stroke-width:0.890763" /><path
       d="m 735.39017,203.75242 a 0.30442694,0.30442693 0 0 1 -0.30441,-0.30441 V 141.3058 a 0.30440842,0.30440841 0 1 1 0.6088,0 v 62.14221 a 0.30442694,0.30442693 0 0 1 -0.30439,0.30441 z"
       fill="#cccccc"
       id="path2895"
       style="stroke-width:0.890763" /><path
       d="m 577.43392,203.75242 a 0.30442694,0.30442693 0 0 1 -0.30441,-0.30441 V 141.3058 a 0.30440842,0.30440841 0 1 1 0.6088,0 v 62.14221 a 0.30442694,0.30442693 0 0 1 -0.30439,0.30441 z"
       fill="#cccccc"
       id="path2897"
       style="stroke-width:0.890763" /><path
       d="m 735.39032,152.91613 a 0.30370463,0.30370462 0 0 1 -0.23016,-0.10494 l -15.30977,-17.6557 a 0.30446261,0.30446261 0 0 1 0.46004,-0.39894 l 15.30977,17.65571 a 0.30449044,0.30449043 0 0 1 -0.22987,0.50388 z"
       fill="#cccccc"
       id="path2899"
       style="stroke-width:0.890763" /><path
       d="m 735.39017,163.10551 a 0.30440842,0.30440841 0 0 1 -0.21523,-0.51964 l 8.69929,-8.69943 a 0.30437667,0.30437666 0 0 1 0.43045,0.43045 l -8.69928,8.69945 a 0.30329981,0.30329981 0 0 1 -0.21523,0.0892 z"
       fill="#cccccc"
       id="path2901"
       style="stroke-width:0.890763" /><path
       d="m 763.55427,203.87825 h -22.75554 v -0.26458 a 11.377765,11.377765 0 1 1 22.75553,0 z m -22.22319,-0.52917 h 21.69085 a 10.848658,10.848657 0 0 0 -21.69087,0 z"
       fill="#3f3d56"
       id="path2903"
       style="stroke-width:0.890763" /><path
       d="m 752.17646,197.15597 a 0.30037881,0.30037881 0 0 0 -0.30037,0.30035 v 3.19075 l -3.10821,-2.66776 a 0.30037617,0.30037616 0 1 0 -0.39132,0.45581 l 3.49953,3.0036 v 1.87455 a 0.30037088,0.30037087 0 1 0 0.60074,0 v -5.85695 a 0.30037881,0.30037881 0 0 0 -0.30037,-0.30035 z"
       fill="#3f3d56"
       id="path2905"
       style="stroke-width:0.890763" /><path
       d="m 572.78968,203.87825 h -22.75553 v -0.26458 a 11.377763,11.377763 0 1 1 22.75552,0 z m -22.22319,-0.52917 h 21.69085 a 10.848658,10.848657 0 0 0 -21.69086,0 z"
       fill="#3f3d56"
       id="path2907"
       style="stroke-width:0.890763" /><path
       d="m 561.41188,197.15597 a 0.30037881,0.30037881 0 0 0 -0.30037,0.30035 v 3.19075 l -3.10821,-2.66776 a 0.30037617,0.30037616 0 1 0 -0.39132,0.45581 l 3.49953,3.0036 v 1.87455 a 0.30037088,0.30037087 0 1 0 0.60073,0 v -5.85695 a 0.30037881,0.30037881 0 0 0 -0.30036,-0.30035 z"
       fill="#3f3d56"
       id="path2909"
       style="stroke-width:0.890763" /><path
       d="m 577.69977,171.67221 c -0.10545,0 -0.20812,0 -0.31358,-0.003 a 26.876751,26.87675 0 0 1 -26.57341,-26.86567 c 0,-7.80973 3.21631,-20.30871 7.82149,-30.39543 3.31181,-7.25382 10.19259,-19.422975 19.0655,-19.422975 3.65472,0 7.33489,2.083078 10.93832,6.191485 0.17867,0.20257 0.35776,0.41121 0.5343,0.62503 l 0.0605,0.0734 v 67.20054 l -0.14923,0.0722 c -0.17806,0.0863 -0.35873,0.1673 -0.5394,0.24546 a 26.6192,26.6192 0 0 1 -10.53744,2.27609 c -0.0988,0.003 -0.20434,0.003 -0.30708,0.003 z m 0,-76.157628 c -8.577,0 -15.32506,11.975238 -18.58414,19.113568 -4.57702,10.02509 -7.77368,22.43377 -7.77368,30.17567 0,14.36024 11.68772,26.17476 26.05383,26.33663 0.10704,0.003 0.20691,0.003 0.31097,0.003 0.096,0 0.19453,0 0.29049,-0.002 a 26.102651,26.102651 0 0 0 10.33496,-2.23178 c 0.12486,-0.0541 0.24879,-0.10904 0.37155,-0.16614 v -66.6768 c -0.15319,-0.18397 -0.30812,-0.3638 -0.46302,-0.53963 -3.49902,-3.989162 -7.04534,-6.011648 -10.54096,-6.011648 z"
       fill="#3f3d56"
       id="path2911"
       style="stroke-width:0.890763" /><path
       d="m 577.69866,152.91613 a 0.30370463,0.30370462 0 0 1 -0.23017,-0.10494 l -15.30976,-17.6557 a 0.30446133,0.30446133 0 0 1 0.46003,-0.39894 l 15.30977,17.65571 a 0.30449044,0.30449043 0 0 1 -0.22987,0.50388 z"
       fill="#cccccc"
       id="path2913"
       style="stroke-width:0.890763" /><path
       d="m 577.6985,163.10551 a 0.30440842,0.30440841 0 0 1 -0.21523,-0.51964 l 8.69929,-8.69943 a 0.30437667,0.30437666 0 0 1 0.43045,0.43045 l -8.69927,8.69945 a 0.30329981,0.30329981 0 0 1 -0.21524,0.0892 z"
       fill="#cccccc"
       id="path2915"
       style="stroke-width:0.890763" /><path
       d="m 601.60477,46.037499 0.19586,0.386292 a 1.1703103,1.1703103 0 0 1 0.13229,0.53975 v 10.451042 h 9.26041 V 46.963541 a 1.170342,1.170342 0 0 1 0.1323,-0.53975 l 0.19585,-0.386292 z m 9.0594,0.926042 v 9.921875 h -8.20209 v -9.921875 a 1.6609034,1.6609033 0 0 0 -0.0477,-0.396875 h 8.29743 a 1.6607711,1.660771 0 0 0 -0.0477,0.396875 z m 2.58227,-0.926042 0.19585,0.386292 a 1.1703103,1.1703103 0 0 1 0.13229,0.53975 V 57.414583 H 622.835 V 46.963541 a 1.170342,1.170342 0 0 1 0.13229,-0.53975 l 0.19586,-0.386292 z m 9.05939,0.926042 v 9.921875 h -8.20208 v -9.921875 a 1.6609034,1.6609033 0 0 0 -0.0477,-0.396875 h 8.29743 a 1.6607711,1.660771 0 0 0 -0.0477,0.396875 z m 2.58228,-0.926042 0.19585,0.386292 a 1.1703103,1.1703103 0 0 1 0.13229,0.53975 v 10.451042 h 9.26042 V 46.963541 a 1.170342,1.170342 0 0 1 0.13229,-0.53975 l 0.19585,-0.386292 z m 9.05939,0.926042 v 9.921875 h -8.20208 v -9.921875 a 1.6609034,1.6609033 0 0 0 -0.0477,-0.396875 h 8.29742 a 1.6607711,1.660771 0 0 0 -0.0477,0.396875 z m 2.58227,-0.926042 0.19586,0.386292 a 1.1703103,1.1703103 0 0 1 0.13229,0.53975 v 10.451042 h 9.26041 V 46.963541 a 1.170342,1.170342 0 0 1 0.1323,-0.53975 l 0.19585,-0.386292 z m 9.0594,0.926042 v 9.921875 h -8.20209 v -9.921875 a 1.6609034,1.6609033 0 0 0 -0.0477,-0.396875 h 8.29743 a 1.6607711,1.660771 0 0 0 -0.0477,0.396875 z m 2.58227,-0.926042 0.19585,0.386292 a 1.1703103,1.1703103 0 0 1 0.13229,0.53975 V 57.414583 H 657.76 V 46.963541 a 1.170342,1.170342 0 0 1 0.13229,-0.53975 l 0.19586,-0.386292 z m 9.05939,0.926042 v 9.921875 h -8.20208 v -9.921875 a 1.6609034,1.6609033 0 0 0 -0.0477,-0.396875 h 8.29743 a 1.6607711,1.660771 0 0 0 -0.0477,0.396875 z m 2.58228,-0.926042 0.19585,0.386292 a 1.1703103,1.1703103 0 0 1 0.13229,0.53975 v 10.451042 h 9.26042 V 46.963541 a 1.170342,1.170342 0 0 1 0.13229,-0.53975 l 0.19585,-0.386292 z m 9.05939,0.926042 v 9.921875 h -8.20208 v -9.921875 a 1.6609034,1.6609033 0 0 0 -0.0477,-0.396875 h 8.29742 a 1.6607711,1.660771 0 0 0 -0.0477,0.396875 z m 2.58227,-0.926042 0.19586,0.386292 a 1.1703103,1.1703103 0 0 1 0.13229,0.53975 v 10.451042 h 9.26041 V 46.963541 a 1.170342,1.170342 0 0 1 0.1323,-0.53975 l 0.19585,-0.386292 z m 9.0594,0.926042 v 9.921875 h -8.20209 v -9.921875 a 1.6609034,1.6609033 0 0 0 -0.0477,-0.396875 h 8.29743 a 1.6607711,1.660771 0 0 0 -0.0477,0.396875 z m 2.58227,-0.926042 0.19585,0.386292 a 1.1703103,1.1703103 0 0 1 0.13229,0.53975 V 57.414583 H 692.685 V 46.963541 a 1.170342,1.170342 0 0 1 0.13229,-0.53975 l 0.19586,-0.386292 z m 9.05939,0.926042 v 9.921875 h -8.20208 v -9.921875 a 1.6609034,1.6609033 0 0 0 -0.0477,-0.396875 h 8.29743 a 1.6607711,1.660771 0 0 0 -0.0477,0.396875 z m 2.58228,-0.926042 0.19585,0.386292 a 1.1703103,1.1703103 0 0 1 0.13229,0.53975 v 10.451042 h 9.26042 V 46.963541 a 1.170342,1.170342 0 0 1 0.13229,-0.53975 l 0.19585,-0.386292 z m 9.05939,0.926042 v 9.921875 h -8.20208 v -9.921875 a 1.6609034,1.6609033 0 0 0 -0.0477,-0.396875 h 8.29742 a 1.6607711,1.660771 0 0 0 -0.0477,0.396875 z m -9.05939,-0.926042 0.19585,0.386292 a 1.1703103,1.1703103 0 0 1 0.13229,0.53975 v 10.451042 h 9.26042 V 46.963541 a 1.170342,1.170342 0 0 1 0.13229,-0.53975 l 0.19585,-0.386292 z m 9.05939,0.926042 v 9.921875 h -8.20208 v -9.921875 a 1.6609034,1.6609033 0 0 0 -0.0477,-0.396875 h 8.29742 a 1.6607711,1.660771 0 0 0 -0.0477,0.396875 z m -20.70106,-0.926042 0.19585,0.386292 a 1.1703103,1.1703103 0 0 1 0.13229,0.53975 V 57.414583 H 692.685 V 46.963541 a 1.170342,1.170342 0 0 1 0.13229,-0.53975 l 0.19586,-0.386292 z m 9.05939,0.926042 v 9.921875 h -8.20208 v -9.921875 a 1.6609034,1.6609033 0 0 0 -0.0477,-0.396875 h 8.29743 a 1.6607711,1.660771 0 0 0 -0.0477,0.396875 z m -20.70106,-0.926042 0.19586,0.386292 a 1.1703103,1.1703103 0 0 1 0.13229,0.53975 v 10.451042 h 9.26041 V 46.963541 a 1.170342,1.170342 0 0 1 0.1323,-0.53975 l 0.19585,-0.386292 z m 9.0594,0.926042 v 9.921875 h -8.20209 v -9.921875 a 1.6609034,1.6609033 0 0 0 -0.0477,-0.396875 h 8.29743 a 1.6607711,1.660771 0 0 0 -0.0477,0.396875 z m -20.70106,-0.926042 0.19585,0.386292 a 1.1703103,1.1703103 0 0 1 0.13229,0.53975 v 10.451042 h 9.26042 V 46.963541 a 1.170342,1.170342 0 0 1 0.13229,-0.53975 l 0.19585,-0.386292 z m 9.05939,0.926042 v 9.921875 h -8.20208 v -9.921875 a 1.6609034,1.6609033 0 0 0 -0.0477,-0.396875 h 8.29742 a 1.6607711,1.660771 0 0 0 -0.0477,0.396875 z m -20.70106,-0.926042 0.19585,0.386292 a 1.1703103,1.1703103 0 0 1 0.13229,0.53975 V 57.414583 H 657.76 V 46.963541 a 1.170342,1.170342 0 0 1 0.13229,-0.53975 l 0.19586,-0.386292 z m 9.05939,0.926042 v 9.921875 h -8.20208 v -9.921875 a 1.6609034,1.6609033 0 0 0 -0.0477,-0.396875 h 8.29743 a 1.6607711,1.660771 0 0 0 -0.0477,0.396875 z m -20.70106,-0.926042 0.19586,0.386292 a 1.1703103,1.1703103 0 0 1 0.13229,0.53975 v 10.451042 h 9.26041 V 46.963541 a 1.170342,1.170342 0 0 1 0.1323,-0.53975 l 0.19585,-0.386292 z m 9.0594,0.926042 v 9.921875 h -8.20209 v -9.921875 a 1.6609034,1.6609033 0 0 0 -0.0477,-0.396875 h 8.29743 a 1.6607711,1.660771 0 0 0 -0.0477,0.396875 z m -20.70106,-0.926042 0.19585,0.386292 a 1.1703103,1.1703103 0 0 1 0.13229,0.53975 v 10.451042 h 9.26042 V 46.963541 a 1.170342,1.170342 0 0 1 0.13229,-0.53975 l 0.19585,-0.386292 z m 9.05939,0.926042 v 9.921875 h -8.20208 v -9.921875 a 1.6609034,1.6609033 0 0 0 -0.0477,-0.396875 h 8.29742 a 1.6607711,1.660771 0 0 0 -0.0477,0.396875 z m -20.70106,-0.926042 0.19585,0.386292 a 1.1703103,1.1703103 0 0 1 0.13229,0.53975 V 57.414583 H 622.835 V 46.963541 a 1.170342,1.170342 0 0 1 0.13229,-0.53975 l 0.19586,-0.386292 z m 9.05939,0.926042 v 9.921875 h -8.20208 v -9.921875 a 1.6609034,1.6609033 0 0 0 -0.0477,-0.396875 h 8.29743 a 1.6607711,1.660771 0 0 0 -0.0477,0.396875 z m -20.70106,-0.926042 0.19586,0.386292 a 1.1703103,1.1703103 0 0 1 0.13229,0.53975 v 10.451042 h 9.26041 V 46.963541 a 1.170342,1.170342 0 0 1 0.1323,-0.53975 l 0.19585,-0.386292 z m 9.0594,0.926042 v 9.921875 h -8.20209 v -9.921875 a 1.6609034,1.6609033 0 0 0 -0.0477,-0.396875 h 8.29743 a 1.6607711,1.660771 0 0 0 -0.0477,0.396875 z m 84.07394,-0.926042 0.19585,0.386292 a 1.1703103,1.1703103 0 0 1 0.13229,0.53975 v 10.451042 h 9.26042 V 46.963541 a 1.170342,1.170342 0 0 1 0.13229,-0.53975 l 0.19585,-0.386292 z m 9.05939,0.926042 v 9.921875 h -8.20208 v -9.921875 a 1.6609034,1.6609033 0 0 0 -0.0477,-0.396875 h 8.29742 a 1.6607711,1.660771 0 0 0 -0.0477,0.396875 z m -20.70106,-0.926042 0.19585,0.386292 a 1.1703103,1.1703103 0 0 1 0.13229,0.53975 V 57.414583 H 692.685 V 46.963541 a 1.170342,1.170342 0 0 1 0.13229,-0.53975 l 0.19586,-0.386292 z m 9.05939,0.926042 v 9.921875 h -8.20208 v -9.921875 a 1.6609034,1.6609033 0 0 0 -0.0477,-0.396875 h 8.29743 a 1.6607711,1.660771 0 0 0 -0.0477,0.396875 z m -20.70106,-0.926042 0.19586,0.386292 a 1.1703103,1.1703103 0 0 1 0.13229,0.53975 v 10.451042 h 9.26041 V 46.963541 a 1.170342,1.170342 0 0 1 0.1323,-0.53975 l 0.19585,-0.386292 z m 9.0594,0.926042 v 9.921875 h -8.20209 v -9.921875 a 1.6609034,1.6609033 0 0 0 -0.0477,-0.396875 h 8.29743 a 1.6607711,1.660771 0 0 0 -0.0477,0.396875 z m -20.70106,-0.926042 0.19585,0.386292 a 1.1703103,1.1703103 0 0 1 0.13229,0.53975 v 10.451042 h 9.26042 V 46.963541 a 1.170342,1.170342 0 0 1 0.13229,-0.53975 l 0.19585,-0.386292 z m 9.05939,0.926042 v 9.921875 h -8.20208 v -9.921875 a 1.6609034,1.6609033 0 0 0 -0.0477,-0.396875 h 8.29742 a 1.6607711,1.660771 0 0 0 -0.0477,0.396875 z m -20.70106,-0.926042 0.19585,0.386292 a 1.1703103,1.1703103 0 0 1 0.13229,0.53975 V 57.414583 H 657.76 V 46.963541 a 1.170342,1.170342 0 0 1 0.13229,-0.53975 l 0.19586,-0.386292 z m 9.05939,0.926042 v 9.921875 h -8.20208 v -9.921875 a 1.6609034,1.6609033 0 0 0 -0.0477,-0.396875 h 8.29743 a 1.6607711,1.660771 0 0 0 -0.0477,0.396875 z m -20.70106,-0.926042 0.19586,0.386292 a 1.1703103,1.1703103 0 0 1 0.13229,0.53975 v 10.451042 h 9.26041 V 46.963541 a 1.170342,1.170342 0 0 1 0.1323,-0.53975 l 0.19585,-0.386292 z m 9.0594,0.926042 v 9.921875 h -8.20209 v -9.921875 a 1.6609034,1.6609033 0 0 0 -0.0477,-0.396875 h 8.29743 a 1.6607711,1.660771 0 0 0 -0.0477,0.396875 z m -20.70106,-0.926042 0.19585,0.386292 a 1.1703103,1.1703103 0 0 1 0.13229,0.53975 v 10.451042 h 9.26042 V 46.963541 a 1.170342,1.170342 0 0 1 0.13229,-0.53975 l 0.19585,-0.386292 z m 9.05939,0.926042 v 9.921875 h -8.20208 v -9.921875 a 1.6609034,1.6609033 0 0 0 -0.0477,-0.396875 h 8.29742 a 1.6607711,1.660771 0 0 0 -0.0477,0.396875 z m -20.70106,-0.926042 0.19585,0.386292 a 1.1703103,1.1703103 0 0 1 0.13229,0.53975 V 57.414583 H 622.835 V 46.963541 a 1.170342,1.170342 0 0 1 0.13229,-0.53975 l 0.19586,-0.386292 z m 9.05939,0.926042 v 9.921875 h -8.20208 v -9.921875 a 1.6609034,1.6609033 0 0 0 -0.0477,-0.396875 h 8.29743 a 1.6607711,1.660771 0 0 0 -0.0477,0.396875 z m -20.70106,-0.926042 0.19586,0.386292 a 1.1703103,1.1703103 0 0 1 0.13229,0.53975 v 10.451042 h 9.26041 V 46.963541 a 1.170342,1.170342 0 0 1 0.1323,-0.53975 l 0.19585,-0.386292 z m 9.0594,0.926042 v 9.921875 h -8.20209 v -9.921875 a 1.6609034,1.6609033 0 0 0 -0.0477,-0.396875 h 8.29743 a 1.6607711,1.660771 0 0 0 -0.0477,0.396875 z m 84.07394,-0.926042 0.19585,0.386292 a 1.1703103,1.1703103 0 0 1 0.13229,0.53975 v 10.451042 h 9.26042 V 46.963541 a 1.170342,1.170342 0 0 1 0.13229,-0.53975 l 0.19585,-0.386292 z m 9.05939,0.926042 v 9.921875 h -8.20208 v -9.921875 a 1.6609034,1.6609033 0 0 0 -0.0477,-0.396875 h 8.29742 a 1.6607711,1.660771 0 0 0 -0.0477,0.396875 z m -20.70106,-0.926042 0.19585,0.386292 a 1.1703103,1.1703103 0 0 1 0.13229,0.53975 V 57.414583 H 692.685 V 46.963541 a 1.170342,1.170342 0 0 1 0.13229,-0.53975 l 0.19586,-0.386292 z m 9.05939,0.926042 v 9.921875 h -8.20208 v -9.921875 a 1.6609034,1.6609033 0 0 0 -0.0477,-0.396875 h 8.29743 a 1.6607711,1.660771 0 0 0 -0.0477,0.396875 z m -20.70106,-0.926042 0.19586,0.386292 a 1.1703103,1.1703103 0 0 1 0.13229,0.53975 v 10.451042 h 9.26041 V 46.963541 a 1.170342,1.170342 0 0 1 0.1323,-0.53975 l 0.19585,-0.386292 z m 9.0594,0.926042 v 9.921875 h -8.20209 v -9.921875 a 1.6609034,1.6609033 0 0 0 -0.0477,-0.396875 h 8.29743 a 1.6607711,1.660771 0 0 0 -0.0477,0.396875 z m -20.70106,-0.926042 0.19585,0.386292 a 1.1703103,1.1703103 0 0 1 0.13229,0.53975 v 10.451042 h 9.26042 V 46.963541 a 1.170342,1.170342 0 0 1 0.13229,-0.53975 l 0.19585,-0.386292 z m 9.05939,0.926042 v 9.921875 h -8.20208 v -9.921875 a 1.6609034,1.6609033 0 0 0 -0.0477,-0.396875 h 8.29742 a 1.6607711,1.660771 0 0 0 -0.0477,0.396875 z m -20.70106,-0.926042 0.19585,0.386292 a 1.1703103,1.1703103 0 0 1 0.13229,0.53975 V 57.414583 H 657.76 V 46.963541 a 1.170342,1.170342 0 0 1 0.13229,-0.53975 l 0.19586,-0.386292 z m 9.05939,0.926042 v 9.921875 h -8.20208 v -9.921875 a 1.6609034,1.6609033 0 0 0 -0.0477,-0.396875 h 8.29743 a 1.6607711,1.660771 0 0 0 -0.0477,0.396875 z m -20.70106,-0.926042 0.19586,0.386292 a 1.1703103,1.1703103 0 0 1 0.13229,0.53975 v 10.451042 h 9.26041 V 46.963541 a 1.170342,1.170342 0 0 1 0.1323,-0.53975 l 0.19585,-0.386292 z m 9.0594,0.926042 v 9.921875 h -8.20209 v -9.921875 a 1.6609034,1.6609033 0 0 0 -0.0477,-0.396875 h 8.29743 a 1.6607711,1.660771 0 0 0 -0.0477,0.396875 z m -20.70106,-0.926042 0.19585,0.386292 a 1.1703103,1.1703103 0 0 1 0.13229,0.53975 v 10.451042 h 9.26042 V 46.963541 a 1.170342,1.170342 0 0 1 0.13229,-0.53975 l 0.19585,-0.386292 z m 9.05939,0.926042 v 9.921875 h -8.20208 v -9.921875 a 1.6609034,1.6609033 0 0 0 -0.0477,-0.396875 h 8.29742 a 1.6607711,1.660771 0 0 0 -0.0477,0.396875 z m -20.70106,-0.926042 0.19585,0.386292 a 1.1703103,1.1703103 0 0 1 0.13229,0.53975 V 57.414583 H 622.835 V 46.963541 a 1.170342,1.170342 0 0 1 0.13229,-0.53975 l 0.19586,-0.386292 z m 9.05939,0.926042 v 9.921875 h -8.20208 v -9.921875 a 1.6609034,1.6609033 0 0 0 -0.0477,-0.396875 h 8.29743 a 1.6607711,1.660771 0 0 0 -0.0477,0.396875 z m -20.70106,-0.926042 0.19586,0.386292 a 1.1703103,1.1703103 0 0 1 0.13229,0.53975 v 10.451042 h 9.26041 V 46.963541 a 1.170342,1.170342 0 0 1 0.1323,-0.53975 l 0.19585,-0.386292 z m 9.0594,0.926042 v 9.921875 h -8.20209 v -9.921875 a 1.6609034,1.6609033 0 0 0 -0.0477,-0.396875 h 8.29743 a 1.6607711,1.660771 0 0 0 -0.0477,0.396875 z m 84.07394,-0.926042 0.19585,0.386292 a 1.1703103,1.1703103 0 0 1 0.13229,0.53975 v 10.451042 h 9.26042 V 46.963541 a 1.170342,1.170342 0 0 1 0.13229,-0.53975 l 0.19585,-0.386292 z m 9.05939,0.926042 v 9.921875 h -8.20208 v -9.921875 a 1.6609034,1.6609033 0 0 0 -0.0477,-0.396875 h 8.29742 a 1.6607711,1.660771 0 0 0 -0.0477,0.396875 z m -20.70106,-0.926042 0.19585,0.386292 a 1.1703103,1.1703103 0 0 1 0.13229,0.53975 V 57.414583 H 692.685 V 46.963541 a 1.170342,1.170342 0 0 1 0.13229,-0.53975 l 0.19586,-0.386292 z m 9.05939,0.926042 v 9.921875 h -8.20208 v -9.921875 a 1.6609034,1.6609033 0 0 0 -0.0477,-0.396875 h 8.29743 a 1.6607711,1.660771 0 0 0 -0.0477,0.396875 z m -20.70106,-0.926042 0.19586,0.386292 a 1.1703103,1.1703103 0 0 1 0.13229,0.53975 v 10.451042 h 9.26041 V 46.963541 a 1.170342,1.170342 0 0 1 0.1323,-0.53975 l 0.19585,-0.386292 z m 9.0594,0.926042 v 9.921875 h -8.20209 v -9.921875 a 1.6609034,1.6609033 0 0 0 -0.0477,-0.396875 h 8.29743 a 1.6607711,1.660771 0 0 0 -0.0477,0.396875 z m -20.70106,-0.926042 0.19585,0.386292 a 1.1703103,1.1703103 0 0 1 0.13229,0.53975 v 10.451042 h 9.26042 V 46.963541 a 1.170342,1.170342 0 0 1 0.13229,-0.53975 l 0.19585,-0.386292 z m 9.05939,0.926042 v 9.921875 h -8.20208 v -9.921875 a 1.6609034,1.6609033 0 0 0 -0.0477,-0.396875 h 8.29742 a 1.6607711,1.660771 0 0 0 -0.0477,0.396875 z m -20.70106,-0.926042 0.19585,0.386292 a 1.1703103,1.1703103 0 0 1 0.13229,0.53975 V 57.414583 H 657.76 V 46.963541 a 1.170342,1.170342 0 0 1 0.13229,-0.53975 l 0.19586,-0.386292 z m 9.05939,0.926042 v 9.921875 h -8.20208 v -9.921875 a 1.6609034,1.6609033 0 0 0 -0.0477,-0.396875 h 8.29743 a 1.6607711,1.660771 0 0 0 -0.0477,0.396875 z m -20.70106,-0.926042 0.19586,0.386292 a 1.1703103,1.1703103 0 0 1 0.13229,0.53975 v 10.451042 h 9.26041 V 46.963541 a 1.170342,1.170342 0 0 1 0.1323,-0.53975 l 0.19585,-0.386292 z m 9.0594,0.926042 v 9.921875 h -8.20209 v -9.921875 a 1.6609034,1.6609033 0 0 0 -0.0477,-0.396875 h 8.29743 a 1.6607711,1.660771 0 0 0 -0.0477,0.396875 z m -20.70106,-0.926042 0.19585,0.386292 a 1.1703103,1.1703103 0 0 1 0.13229,0.53975 v 10.451042 h 9.26042 V 46.963541 a 1.170342,1.170342 0 0 1 0.13229,-0.53975 l 0.19585,-0.386292 z m 9.05939,0.926042 v 9.921875 h -8.20208 v -9.921875 a 1.6609034,1.6609033 0 0 0 -0.0477,-0.396875 h 8.29742 a 1.6607711,1.660771 0 0 0 -0.0477,0.396875 z m -20.70106,-0.926042 0.19585,0.386292 a 1.1703103,1.1703103 0 0 1 0.13229,0.53975 V 57.414583 H 622.835 V 46.963541 a 1.170342,1.170342 0 0 1 0.13229,-0.53975 l 0.19586,-0.386292 z m 9.05939,0.926042 v 9.921875 h -8.20208 v -9.921875 a 1.6609034,1.6609033 0 0 0 -0.0477,-0.396875 h 8.29743 a 1.6607711,1.660771 0 0 0 -0.0477,0.396875 z m -20.70106,-0.926042 0.19586,0.386292 a 1.1703103,1.1703103 0 0 1 0.13229,0.53975 v 10.451042 h 9.26041 V 46.963541 a 1.170342,1.170342 0 0 1 0.1323,-0.53975 l 0.19585,-0.386292 z m 9.0594,0.926042 v 9.921875 h -8.20209 v -9.921875 a 1.6609034,1.6609033 0 0 0 -0.0477,-0.396875 h 8.29743 a 1.6607711,1.660771 0 0 0 -0.0477,0.396875 z m 84.07394,-0.926042 0.19585,0.386292 a 1.1703103,1.1703103 0 0 1 0.13229,0.53975 v 10.451042 h 9.26042 V 46.963541 a 1.170342,1.170342 0 0 1 0.13229,-0.53975 l 0.19585,-0.386292 z m 9.05939,0.926042 v 9.921875 h -8.20208 v -9.921875 a 1.6609034,1.6609033 0 0 0 -0.0477,-0.396875 h 8.29742 a 1.6607711,1.660771 0 0 0 -0.0477,0.396875 z m -20.50521,-0.53975 a 1.1703103,1.1703103 0 0 1 0.13229,0.53975 V 57.414583 H 692.685 V 46.963541 a 1.170342,1.170342 0 0 1 0.13229,-0.53975 l 0.19586,-0.386292 h -9.91671 z m 8.91122,0.142875 a 1.6607711,1.660771 0 0 0 -0.0477,0.396875 v 9.921875 h -8.20208 v -9.921875 a 1.6609034,1.6609033 0 0 0 -0.0477,-0.396875 z m -20.55288,-0.142875 a 1.1703103,1.1703103 0 0 1 0.13229,0.53975 v 10.451042 h 9.26041 V 46.963541 a 1.170342,1.170342 0 0 1 0.1323,-0.53975 l 0.19585,-0.386292 h -9.91671 z m 8.91121,0.142875 a 1.6607711,1.660771 0 0 0 -0.0477,0.396875 v 9.921875 h -8.20209 v -9.921875 a 1.6609034,1.6609033 0 0 0 -0.0477,-0.396875 z m -20.55288,-0.142875 a 1.1703103,1.1703103 0 0 1 0.13229,0.53975 v 10.451042 h 9.26042 V 46.963541 a 1.170342,1.170342 0 0 1 0.13229,-0.53975 l 0.19585,-0.386292 h -9.9167 z m 8.91121,0.142875 a 1.6607711,1.660771 0 0 0 -0.0477,0.396875 v 9.921875 h -8.20208 v -9.921875 a 1.6609034,1.6609033 0 0 0 -0.0477,-0.396875 z m -20.55288,-0.142875 a 1.1703103,1.1703103 0 0 1 0.13229,0.53975 V 57.414583 H 657.76 V 46.963541 a 1.170342,1.170342 0 0 1 0.13229,-0.53975 l 0.19586,-0.386292 h -9.91671 z m 8.91122,0.142875 a 1.6607711,1.660771 0 0 0 -0.0477,0.396875 v 9.921875 h -8.20208 v -9.921875 a 1.6609034,1.6609033 0 0 0 -0.0477,-0.396875 z m -20.55288,-0.142875 a 1.1703103,1.1703103 0 0 1 0.13229,0.53975 v 10.451042 h 9.26041 V 46.963541 a 1.170342,1.170342 0 0 1 0.1323,-0.53975 l 0.19585,-0.386292 h -9.91671 z m 8.91121,0.142875 a 1.6607711,1.660771 0 0 0 -0.0477,0.396875 v 9.921875 h -8.20209 v -9.921875 a 1.6609034,1.6609033 0 0 0 -0.0477,-0.396875 z m -20.55288,-0.142875 a 1.1703103,1.1703103 0 0 1 0.13229,0.53975 v 10.451042 h 9.26042 V 46.963541 a 1.170342,1.170342 0 0 1 0.13229,-0.53975 l 0.19585,-0.386292 h -9.9167 z m 8.91121,0.142875 a 1.6607711,1.660771 0 0 0 -0.0477,0.396875 v 9.921875 h -8.20208 v -9.921875 a 1.6609034,1.6609033 0 0 0 -0.0477,-0.396875 z m -20.55288,-0.142875 a 1.1703103,1.1703103 0 0 1 0.13229,0.53975 V 57.414583 H 622.835 V 46.963541 a 1.170342,1.170342 0 0 1 0.13229,-0.53975 l 0.19586,-0.386292 h -9.91671 z m 8.91122,0.142875 a 1.6607711,1.660771 0 0 0 -0.0477,0.396875 v 9.921875 h -8.20208 v -9.921875 a 1.6609034,1.6609033 0 0 0 -0.0477,-0.396875 z m -20.55288,-0.142875 a 1.1703103,1.1703103 0 0 1 0.13229,0.53975 v 10.451042 h 9.26041 V 46.963541 a 1.170342,1.170342 0 0 1 0.1323,-0.53975 l 0.19585,-0.386292 h -9.91671 z m 8.91121,0.142875 a 1.6607711,1.660771 0 0 0 -0.0477,0.396875 v 9.921875 h -8.20209 v -9.921875 a 1.6609034,1.6609033 0 0 0 -0.0477,-0.396875 z m 84.22212,-0.142875 a 1.1703103,1.1703103 0 0 1 0.13229,0.53975 v 10.451042 h 9.26042 V 46.963541 a 1.170342,1.170342 0 0 1 0.13229,-0.53975 l 0.19585,-0.386292 h -9.9167 z m 8.91121,0.142875 a 1.6607711,1.660771 0 0 0 -0.0477,0.396875 v 9.921875 h -8.20208 v -9.921875 a 1.6609034,1.6609033 0 0 0 -0.0477,-0.396875 z m -20.55288,-0.142875 a 1.1703103,1.1703103 0 0 1 0.13229,0.53975 V 57.414583 H 692.685 V 46.963541 a 1.170342,1.170342 0 0 1 0.13229,-0.53975 l 0.19586,-0.386292 h -9.91671 z m 8.91122,0.142875 a 1.6607711,1.660771 0 0 0 -0.0477,0.396875 v 9.921875 h -8.20208 v -9.921875 a 1.6609034,1.6609033 0 0 0 -0.0477,-0.396875 z m -20.55288,-0.142875 a 1.1703103,1.1703103 0 0 1 0.13229,0.53975 v 10.451042 h 9.26041 V 46.963541 a 1.170342,1.170342 0 0 1 0.1323,-0.53975 l 0.19585,-0.386292 h -9.91671 z m 8.91121,0.142875 a 1.6607711,1.660771 0 0 0 -0.0477,0.396875 v 9.921875 h -8.20209 v -9.921875 a 1.6609034,1.6609033 0 0 0 -0.0477,-0.396875 z m -20.55288,-0.142875 a 1.1703103,1.1703103 0 0 1 0.13229,0.53975 v 10.451042 h 9.26042 V 46.963541 a 1.170342,1.170342 0 0 1 0.13229,-0.53975 l 0.19585,-0.386292 h -9.9167 z m 8.91121,0.142875 a 1.6607711,1.660771 0 0 0 -0.0477,0.396875 v 9.921875 h -8.20208 v -9.921875 a 1.6609034,1.6609033 0 0 0 -0.0477,-0.396875 z m -20.55288,-0.142875 a 1.1703103,1.1703103 0 0 1 0.13229,0.53975 V 57.414583 H 657.76 V 46.963541 a 1.170342,1.170342 0 0 1 0.13229,-0.53975 l 0.19586,-0.386292 h -9.91671 z m 8.91122,0.142875 a 1.6607711,1.660771 0 0 0 -0.0477,0.396875 v 9.921875 h -8.20208 v -9.921875 a 1.6609034,1.6609033 0 0 0 -0.0477,-0.396875 z m -20.55288,-0.142875 a 1.1703103,1.1703103 0 0 1 0.13229,0.53975 v 10.451042 h 9.26041 V 46.963541 a 1.170342,1.170342 0 0 1 0.1323,-0.53975 l 0.19585,-0.386292 h -9.91671 z m 8.91121,0.142875 a 1.6607711,1.660771 0 0 0 -0.0477,0.396875 v 9.921875 h -8.20209 v -9.921875 a 1.6609034,1.6609033 0 0 0 -0.0477,-0.396875 z m -20.55288,-0.142875 a 1.1703103,1.1703103 0 0 1 0.13229,0.53975 v 10.451042 h 9.26042 V 46.963541 a 1.170342,1.170342 0 0 1 0.13229,-0.53975 l 0.19585,-0.386292 h -9.9167 z m 8.91121,0.142875 a 1.6607711,1.660771 0 0 0 -0.0477,0.396875 v 9.921875 h -8.20208 v -9.921875 a 1.6609034,1.6609033 0 0 0 -0.0477,-0.396875 z m -20.55288,-0.142875 a 1.1703103,1.1703103 0 0 1 0.13229,0.53975 V 57.414583 H 622.835 V 46.963541 a 1.170342,1.170342 0 0 1 0.13229,-0.53975 l 0.19586,-0.386292 h -9.91671 z m 8.91122,0.142875 a 1.6607711,1.660771 0 0 0 -0.0477,0.396875 v 9.921875 h -8.20208 v -9.921875 a 1.6609034,1.6609033 0 0 0 -0.0477,-0.396875 z m -20.55288,-0.142875 a 1.1703103,1.1703103 0 0 1 0.13229,0.53975 v 10.451042 h 9.26041 V 46.963541 a 1.170342,1.170342 0 0 1 0.1323,-0.53975 l 0.19585,-0.386292 h -9.91671 z m 8.91121,0.142875 a 1.6607711,1.660771 0 0 0 -0.0477,0.396875 v 9.921875 h -8.20209 v -9.921875 a 1.6609034,1.6609033 0 0 0 -0.0477,-0.396875 z M 714.91,59.002083 h -3.15381 a 2.9186188,2.9186187 0 0 0 -2.79931,-2.116667 h -1.7198 v -9.921875 a 1.6540692,1.6540691 0 0 0 -0.11911,-0.621771 1.5846319,1.5846319 0 0 0 -0.80693,-2.950104 h -106.3625 a 1.5846293,1.5846293 0 0 0 -0.80692,2.950104 1.6540718,1.6540718 0 0 0 -0.11912,0.621771 v 9.921875 h -1.71979 a 2.9186188,2.9186187 0 0 0 -2.79931,2.116667 h -3.4184 a 2.3848404,2.3848404 0 0 0 -2.38125,2.38125 V 201.08333 a 2.3864305,2.3864305 0 0 0 2.38125,2.38125 H 714.91 a 2.3847134,2.3847134 0 0 0 2.38125,-2.38125 V 61.383333 A 2.3848404,2.3848404 0 0 0 714.91,59.002083 Z m 1.85208,142.081247 a 1.8534062,1.8534062 0 0 1 -1.20909,1.73567 1.7788149,1.7788149 0 0 1 -0.64299,0.11641 H 591.085 a 1.7788123,1.7788122 0 0 1 -0.64298,-0.11641 1.8534062,1.8534062 0 0 1 -1.2091,-1.73567 V 61.383333 a 1.8541444,1.8541444 0 0 1 1.85208,-1.852084 h 3.84175 l 0.0424,-0.211666 a 2.389669,2.389669 0 0 1 2.33357,-1.905 h 2.24896 V 46.963541 a 1.1890587,1.1890587 0 0 1 0.16937,-0.611187 l 0.16395,-0.272521 -0.29895,-0.111125 a 1.0555287,1.0555287 0 0 1 0.36251,-2.047875 h 106.3625 a 1.0555287,1.0555287 0 0 1 0.36251,2.047875 l -0.29895,0.111125 0.16394,0.272521 a 1.1878098,1.1878098 0 0 1 0.16937,0.611187 v 10.451042 h 2.24896 a 2.3895632,2.3895632 0 0 1 2.33358,1.905 l 0.0424,0.211666 h 3.57717 a 1.8541418,1.8541418 0 0 1 1.85208,1.852084 z M 601.60477,46.037499 l 0.19586,0.386292 a 1.1703103,1.1703103 0 0 1 0.13229,0.53975 v 10.451042 h 9.26041 V 46.963541 a 1.170342,1.170342 0 0 1 0.1323,-0.53975 l 0.19585,-0.386292 z m 9.0594,0.926042 v 9.921875 h -8.20209 v -9.921875 a 1.6609034,1.6609033 0 0 0 -0.0477,-0.396875 h 8.29743 a 1.6607711,1.660771 0 0 0 -0.0477,0.396875 z m 2.58227,-0.926042 0.19585,0.386292 a 1.1703103,1.1703103 0 0 1 0.13229,0.53975 V 57.414583 H 622.835 V 46.963541 a 1.170342,1.170342 0 0 1 0.13229,-0.53975 l 0.19586,-0.386292 z m 9.05939,0.926042 v 9.921875 h -8.20208 v -9.921875 a 1.6609034,1.6609033 0 0 0 -0.0477,-0.396875 h 8.29743 a 1.6607711,1.660771 0 0 0 -0.0477,0.396875 z m 2.58228,-0.926042 0.19585,0.386292 a 1.1703103,1.1703103 0 0 1 0.13229,0.53975 v 10.451042 h 9.26042 V 46.963541 a 1.170342,1.170342 0 0 1 0.13229,-0.53975 l 0.19585,-0.386292 z m 9.05939,0.926042 v 9.921875 h -8.20208 v -9.921875 a 1.6609034,1.6609033 0 0 0 -0.0477,-0.396875 h 8.29742 a 1.6607711,1.660771 0 0 0 -0.0477,0.396875 z m 2.58227,-0.926042 0.19586,0.386292 a 1.1703103,1.1703103 0 0 1 0.13229,0.53975 v 10.451042 h 9.26041 V 46.963541 a 1.170342,1.170342 0 0 1 0.1323,-0.53975 l 0.19585,-0.386292 z m 9.0594,0.926042 v 9.921875 h -8.20209 v -9.921875 a 1.6609034,1.6609033 0 0 0 -0.0477,-0.396875 h 8.29743 a 1.6607711,1.660771 0 0 0 -0.0477,0.396875 z m 2.58227,-0.926042 0.19585,0.386292 a 1.1703103,1.1703103 0 0 1 0.13229,0.53975 V 57.414583 H 657.76 V 46.963541 a 1.170342,1.170342 0 0 1 0.13229,-0.53975 l 0.19586,-0.386292 z m 9.05939,0.926042 v 9.921875 h -8.20208 v -9.921875 a 1.6609034,1.6609033 0 0 0 -0.0477,-0.396875 h 8.29743 a 1.6607711,1.660771 0 0 0 -0.0477,0.396875 z m 2.58228,-0.926042 0.19585,0.386292 a 1.1703103,1.1703103 0 0 1 0.13229,0.53975 v 10.451042 h 9.26042 V 46.963541 a 1.170342,1.170342 0 0 1 0.13229,-0.53975 l 0.19585,-0.386292 z m 9.05939,0.926042 v 9.921875 h -8.20208 v -9.921875 a 1.6609034,1.6609033 0 0 0 -0.0477,-0.396875 h 8.29742 a 1.6607711,1.660771 0 0 0 -0.0477,0.396875 z m 2.58227,-0.926042 0.19586,0.386292 a 1.1703103,1.1703103 0 0 1 0.13229,0.53975 v 10.451042 h 9.26041 V 46.963541 a 1.170342,1.170342 0 0 1 0.1323,-0.53975 l 0.19585,-0.386292 z m 9.0594,0.926042 v 9.921875 h -8.20209 v -9.921875 a 1.6609034,1.6609033 0 0 0 -0.0477,-0.396875 h 8.29743 a 1.6607711,1.660771 0 0 0 -0.0477,0.396875 z m 2.58227,-0.926042 0.19585,0.386292 a 1.1703103,1.1703103 0 0 1 0.13229,0.53975 V 57.414583 H 692.685 V 46.963541 a 1.170342,1.170342 0 0 1 0.13229,-0.53975 l 0.19586,-0.386292 z m 9.05939,0.926042 v 9.921875 h -8.20208 v -9.921875 a 1.6609034,1.6609033 0 0 0 -0.0477,-0.396875 h 8.29743 a 1.6607711,1.660771 0 0 0 -0.0477,0.396875 z m 2.58228,-0.926042 0.19585,0.386292 a 1.1703103,1.1703103 0 0 1 0.13229,0.53975 v 10.451042 h 9.26042 V 46.963541 a 1.170342,1.170342 0 0 1 0.13229,-0.53975 l 0.19585,-0.386292 z m 9.05939,0.926042 v 9.921875 h -8.20208 v -9.921875 a 1.6609034,1.6609033 0 0 0 -0.0477,-0.396875 h 8.29742 a 1.6607711,1.660771 0 0 0 -0.0477,0.396875 z m -102.19273,-0.926042 0.19586,0.386292 a 1.1703103,1.1703103 0 0 1 0.13229,0.53975 v 10.451042 h 9.26041 V 46.963541 a 1.170342,1.170342 0 0 1 0.1323,-0.53975 l 0.19585,-0.386292 z m 9.0594,0.926042 v 9.921875 h -8.20209 v -9.921875 a 1.6609034,1.6609033 0 0 0 -0.0477,-0.396875 h 8.29743 a 1.6607711,1.660771 0 0 0 -0.0477,0.396875 z m 2.58227,-0.926042 0.19585,0.386292 a 1.1703103,1.1703103 0 0 1 0.13229,0.53975 V 57.414583 H 622.835 V 46.963541 a 1.170342,1.170342 0 0 1 0.13229,-0.53975 l 0.19586,-0.386292 z m 9.05939,0.926042 v 9.921875 h -8.20208 v -9.921875 a 1.6609034,1.6609033 0 0 0 -0.0477,-0.396875 h 8.29743 a 1.6607711,1.660771 0 0 0 -0.0477,0.396875 z m 2.58228,-0.926042 0.19585,0.386292 a 1.1703103,1.1703103 0 0 1 0.13229,0.53975 v 10.451042 h 9.26042 V 46.963541 a 1.170342,1.170342 0 0 1 0.13229,-0.53975 l 0.19585,-0.386292 z m 9.05939,0.926042 v 9.921875 h -8.20208 v -9.921875 a 1.6609034,1.6609033 0 0 0 -0.0477,-0.396875 h 8.29742 a 1.6607711,1.660771 0 0 0 -0.0477,0.396875 z m 2.58227,-0.926042 0.19586,0.386292 a 1.1703103,1.1703103 0 0 1 0.13229,0.53975 v 10.451042 h 9.26041 V 46.963541 a 1.170342,1.170342 0 0 1 0.1323,-0.53975 l 0.19585,-0.386292 z m 9.0594,0.926042 v 9.921875 h -8.20209 v -9.921875 a 1.6609034,1.6609033 0 0 0 -0.0477,-0.396875 h 8.29743 a 1.6607711,1.660771 0 0 0 -0.0477,0.396875 z m 2.58227,-0.926042 0.19585,0.386292 a 1.1703103,1.1703103 0 0 1 0.13229,0.53975 V 57.414583 H 657.76 V 46.963541 a 1.170342,1.170342 0 0 1 0.13229,-0.53975 l 0.19586,-0.386292 z m 9.05939,0.926042 v 9.921875 h -8.20208 v -9.921875 a 1.6609034,1.6609033 0 0 0 -0.0477,-0.396875 h 8.29743 a 1.6607711,1.660771 0 0 0 -0.0477,0.396875 z m 2.58228,-0.926042 0.19585,0.386292 a 1.1703103,1.1703103 0 0 1 0.13229,0.53975 v 10.451042 h 9.26042 V 46.963541 a 1.170342,1.170342 0 0 1 0.13229,-0.53975 l 0.19585,-0.386292 z m 9.05939,0.926042 v 9.921875 h -8.20208 v -9.921875 a 1.6609034,1.6609033 0 0 0 -0.0477,-0.396875 h 8.29742 a 1.6607711,1.660771 0 0 0 -0.0477,0.396875 z m 2.58227,-0.926042 0.19586,0.386292 a 1.1703103,1.1703103 0 0 1 0.13229,0.53975 v 10.451042 h 9.26041 V 46.963541 a 1.170342,1.170342 0 0 1 0.1323,-0.53975 l 0.19585,-0.386292 z m 9.0594,0.926042 v 9.921875 h -8.20209 v -9.921875 a 1.6609034,1.6609033 0 0 0 -0.0477,-0.396875 h 8.29743 a 1.6607711,1.660771 0 0 0 -0.0477,0.396875 z m 2.58227,-0.926042 0.19585,0.386292 a 1.1703103,1.1703103 0 0 1 0.13229,0.53975 V 57.414583 H 692.685 V 46.963541 a 1.170342,1.170342 0 0 1 0.13229,-0.53975 l 0.19586,-0.386292 z m 9.05939,0.926042 v 9.921875 h -8.20208 v -9.921875 a 1.6609034,1.6609033 0 0 0 -0.0477,-0.396875 h 8.29743 a 1.6607711,1.660771 0 0 0 -0.0477,0.396875 z m 2.58228,-0.926042 0.19585,0.386292 a 1.1703103,1.1703103 0 0 1 0.13229,0.53975 v 10.451042 h 9.26042 V 46.963541 a 1.170342,1.170342 0 0 1 0.13229,-0.53975 l 0.19585,-0.386292 z m 9.05939,0.926042 v 9.921875 h -8.20208 v -9.921875 a 1.6609034,1.6609033 0 0 0 -0.0477,-0.396875 h 8.29742 a 1.6607711,1.660771 0 0 0 -0.0477,0.396875 z m -102.19273,-0.926042 0.19586,0.386292 a 1.1703103,1.1703103 0 0 1 0.13229,0.53975 v 10.451042 h 9.26041 V 46.963541 a 1.170342,1.170342 0 0 1 0.1323,-0.53975 l 0.19585,-0.386292 z m 9.0594,0.926042 v 9.921875 h -8.20209 v -9.921875 a 1.6609034,1.6609033 0 0 0 -0.0477,-0.396875 h 8.29743 a 1.6607711,1.660771 0 0 0 -0.0477,0.396875 z m 2.58227,-0.926042 0.19585,0.386292 a 1.1703103,1.1703103 0 0 1 0.13229,0.53975 V 57.414583 H 622.835 V 46.963541 a 1.170342,1.170342 0 0 1 0.13229,-0.53975 l 0.19586,-0.386292 z m 9.05939,0.926042 v 9.921875 h -8.20208 v -9.921875 a 1.6609034,1.6609033 0 0 0 -0.0477,-0.396875 h 8.29743 a 1.6607711,1.660771 0 0 0 -0.0477,0.396875 z m 2.58228,-0.926042 0.19585,0.386292 a 1.1703103,1.1703103 0 0 1 0.13229,0.53975 v 10.451042 h 9.26042 V 46.963541 a 1.170342,1.170342 0 0 1 0.13229,-0.53975 l 0.19585,-0.386292 z m 9.05939,0.926042 v 9.921875 h -8.20208 v -9.921875 a 1.6609034,1.6609033 0 0 0 -0.0477,-0.396875 h 8.29742 a 1.6607711,1.660771 0 0 0 -0.0477,0.396875 z m 2.58227,-0.926042 0.19586,0.386292 a 1.1703103,1.1703103 0 0 1 0.13229,0.53975 v 10.451042 h 9.26041 V 46.963541 a 1.170342,1.170342 0 0 1 0.1323,-0.53975 l 0.19585,-0.386292 z m 9.0594,0.926042 v 9.921875 h -8.20209 v -9.921875 a 1.6609034,1.6609033 0 0 0 -0.0477,-0.396875 h 8.29743 a 1.6607711,1.660771 0 0 0 -0.0477,0.396875 z m 2.58227,-0.926042 0.19585,0.386292 a 1.1703103,1.1703103 0 0 1 0.13229,0.53975 V 57.414583 H 657.76 V 46.963541 a 1.170342,1.170342 0 0 1 0.13229,-0.53975 l 0.19586,-0.386292 z m 9.05939,0.926042 v 9.921875 h -8.20208 v -9.921875 a 1.6609034,1.6609033 0 0 0 -0.0477,-0.396875 h 8.29743 a 1.6607711,1.660771 0 0 0 -0.0477,0.396875 z m 2.58228,-0.926042 0.19585,0.386292 a 1.1703103,1.1703103 0 0 1 0.13229,0.53975 v 10.451042 h 9.26042 V 46.963541 a 1.170342,1.170342 0 0 1 0.13229,-0.53975 l 0.19585,-0.386292 z m 9.05939,0.926042 v 9.921875 h -8.20208 v -9.921875 a 1.6609034,1.6609033 0 0 0 -0.0477,-0.396875 h 8.29742 a 1.6607711,1.660771 0 0 0 -0.0477,0.396875 z m 2.58227,-0.926042 0.19586,0.386292 a 1.1703103,1.1703103 0 0 1 0.13229,0.53975 v 10.451042 h 9.26041 V 46.963541 a 1.170342,1.170342 0 0 1 0.1323,-0.53975 l 0.19585,-0.386292 z m 9.0594,0.926042 v 9.921875 h -8.20209 v -9.921875 a 1.6609034,1.6609033 0 0 0 -0.0477,-0.396875 h 8.29743 a 1.6607711,1.660771 0 0 0 -0.0477,0.396875 z m 2.58227,-0.926042 0.19585,0.386292 a 1.1703103,1.1703103 0 0 1 0.13229,0.53975 V 57.414583 H 692.685 V 46.963541 a 1.170342,1.170342 0 0 1 0.13229,-0.53975 l 0.19586,-0.386292 z m 9.05939,0.926042 v 9.921875 h -8.20208 v -9.921875 a 1.6609034,1.6609033 0 0 0 -0.0477,-0.396875 h 8.29743 a 1.6607711,1.660771 0 0 0 -0.0477,0.396875 z m 2.58228,-0.926042 0.19585,0.386292 a 1.1703103,1.1703103 0 0 1 0.13229,0.53975 v 10.451042 h 9.26042 V 46.963541 a 1.170342,1.170342 0 0 1 0.13229,-0.53975 l 0.19585,-0.386292 z m 9.05939,0.926042 v 9.921875 h -8.20208 v -9.921875 a 1.6609034,1.6609033 0 0 0 -0.0477,-0.396875 h 8.29742 a 1.6607711,1.660771 0 0 0 -0.0477,0.396875 z m -102.19273,-0.926042 0.19586,0.386292 a 1.1703103,1.1703103 0 0 1 0.13229,0.53975 v 10.451042 h 9.26041 V 46.963541 a 1.170342,1.170342 0 0 1 0.1323,-0.53975 l 0.19585,-0.386292 z m 9.0594,0.926042 v 9.921875 h -8.20209 v -9.921875 a 1.6609034,1.6609033 0 0 0 -0.0477,-0.396875 h 8.29743 a 1.6607711,1.660771 0 0 0 -0.0477,0.396875 z m 2.58227,-0.926042 0.19585,0.386292 a 1.1703103,1.1703103 0 0 1 0.13229,0.53975 V 57.414583 H 622.835 V 46.963541 a 1.170342,1.170342 0 0 1 0.13229,-0.53975 l 0.19586,-0.386292 z m 9.05939,0.926042 v 9.921875 h -8.20208 v -9.921875 a 1.6609034,1.6609033 0 0 0 -0.0477,-0.396875 h 8.29743 a 1.6607711,1.660771 0 0 0 -0.0477,0.396875 z m 2.58228,-0.926042 0.19585,0.386292 a 1.1703103,1.1703103 0 0 1 0.13229,0.53975 v 10.451042 h 9.26042 V 46.963541 a 1.170342,1.170342 0 0 1 0.13229,-0.53975 l 0.19585,-0.386292 z m 9.05939,0.926042 v 9.921875 h -8.20208 v -9.921875 a 1.6609034,1.6609033 0 0 0 -0.0477,-0.396875 h 8.29742 a 1.6607711,1.660771 0 0 0 -0.0477,0.396875 z m 2.58227,-0.926042 0.19586,0.386292 a 1.1703103,1.1703103 0 0 1 0.13229,0.53975 v 10.451042 h 9.26041 V 46.963541 a 1.170342,1.170342 0 0 1 0.1323,-0.53975 l 0.19585,-0.386292 z m 9.0594,0.926042 v 9.921875 h -8.20209 v -9.921875 a 1.6609034,1.6609033 0 0 0 -0.0477,-0.396875 h 8.29743 a 1.6607711,1.660771 0 0 0 -0.0477,0.396875 z m 2.58227,-0.926042 0.19585,0.386292 a 1.1703103,1.1703103 0 0 1 0.13229,0.53975 V 57.414583 H 657.76 V 46.963541 a 1.170342,1.170342 0 0 1 0.13229,-0.53975 l 0.19586,-0.386292 z m 9.05939,0.926042 v 9.921875 h -8.20208 v -9.921875 a 1.6609034,1.6609033 0 0 0 -0.0477,-0.396875 h 8.29743 a 1.6607711,1.660771 0 0 0 -0.0477,0.396875 z m 2.58228,-0.926042 0.19585,0.386292 a 1.1703103,1.1703103 0 0 1 0.13229,0.53975 v 10.451042 h 9.26042 V 46.963541 a 1.170342,1.170342 0 0 1 0.13229,-0.53975 l 0.19585,-0.386292 z m 9.05939,0.926042 v 9.921875 h -8.20208 v -9.921875 a 1.6609034,1.6609033 0 0 0 -0.0477,-0.396875 h 8.29742 a 1.6607711,1.660771 0 0 0 -0.0477,0.396875 z m 2.58227,-0.926042 0.19586,0.386292 a 1.1703103,1.1703103 0 0 1 0.13229,0.53975 v 10.451042 h 9.26041 V 46.963541 a 1.170342,1.170342 0 0 1 0.1323,-0.53975 l 0.19585,-0.386292 z m 9.0594,0.926042 v 9.921875 h -8.20209 v -9.921875 a 1.6609034,1.6609033 0 0 0 -0.0477,-0.396875 h 8.29743 a 1.6607711,1.660771 0 0 0 -0.0477,0.396875 z m 2.58227,-0.926042 0.19585,0.386292 a 1.1703103,1.1703103 0 0 1 0.13229,0.53975 V 57.414583 H 692.685 V 46.963541 a 1.170342,1.170342 0 0 1 0.13229,-0.53975 l 0.19586,-0.386292 z m 9.05939,0.926042 v 9.921875 h -8.20208 v -9.921875 a 1.6609034,1.6609033 0 0 0 -0.0477,-0.396875 h 8.29743 a 1.6607711,1.660771 0 0 0 -0.0477,0.396875 z m 2.58228,-0.926042 0.19585,0.386292 a 1.1703103,1.1703103 0 0 1 0.13229,0.53975 v 10.451042 h 9.26042 V 46.963541 a 1.170342,1.170342 0 0 1 0.13229,-0.53975 l 0.19585,-0.386292 z m 9.05939,0.926042 v 9.921875 h -8.20208 v -9.921875 a 1.6609034,1.6609033 0 0 0 -0.0477,-0.396875 h 8.29742 a 1.6607711,1.660771 0 0 0 -0.0477,0.396875 z"
       fill="#3f3d56"
       id="path2917"
       style="stroke-width:0.890763" /><path
       d="m 633.06171,92.339582 h -19.51123 a 1.5517072,1.5517071 0 0 1 -1.54996,-1.549958 V 80.395791 a 1.5517072,1.5517071 0 0 1 1.54996,-1.549959 h 19.51123 a 1.5516913,1.5516913 0 0 1 1.54996,1.549959 v 10.393833 a 1.5516913,1.5516913 0 0 1 -1.54996,1.549958 z"
       fill="#6e63ff"
       id="path2919"
       style="stroke-width:0.890763" /><path
       d="m 662.75312,92.339582 h -19.51124 a 1.5517072,1.5517071 0 0 1 -1.54996,-1.549958 V 80.395791 a 1.5517072,1.5517071 0 0 1 1.54996,-1.549959 h 19.51123 a 1.5516913,1.5516913 0 0 1 1.54996,1.549959 v 10.393833 a 1.5516913,1.5516913 0 0 1 -1.54995,1.549958 z"
       fill="#6e63ff"
       id="path2921"
       style="stroke-width:0.890763" /><path
       d="m 692.44453,92.339582 h -19.51124 a 1.5517045,1.5517045 0 0 1 -1.54995,-1.549958 V 80.395791 a 1.5517045,1.5517045 0 0 1 1.54995,-1.549959 h 19.51124 a 1.5516913,1.5516913 0 0 1 1.54995,1.549959 v 10.393833 a 1.5516913,1.5516913 0 0 1 -1.54995,1.549958 z"
       fill="#6e63ff"
       id="path2923"
       style="stroke-width:0.890763" /><path
       d="m 633.06171,127 h -19.51123 a 1.5517072,1.5517071 0 0 1 -1.54996,-1.54996 v -10.39383 a 1.5517072,1.5517071 0 0 1 1.54996,-1.54996 h 19.51123 a 1.5516913,1.5516913 0 0 1 1.54996,1.54996 v 10.39383 A 1.5516913,1.5516913 0 0 1 633.06171,127 Z"
       fill="#6e63ff"
       id="path2925"
       style="stroke-width:0.890763" /><path
       d="m 662.75312,127 h -19.51124 a 1.5517072,1.5517071 0 0 1 -1.54996,-1.54996 v -10.39383 a 1.5517072,1.5517071 0 0 1 1.54996,-1.54996 h 19.51123 a 1.5516913,1.5516913 0 0 1 1.54996,1.54996 v 10.39383 A 1.5516913,1.5516913 0 0 1 662.75312,127 Z"
       fill="#6e63ff"
       id="path2927"
       style="stroke-width:0.890763" /><path
       d="m 692.44453,127 h -19.51124 a 1.5517045,1.5517045 0 0 1 -1.54995,-1.54996 v -10.39383 a 1.5517045,1.5517045 0 0 1 1.54995,-1.54996 h 19.51124 a 1.5516913,1.5516913 0 0 1 1.54995,1.54996 v 10.39383 A 1.5516913,1.5516913 0 0 1 692.44453,127 Z"
       fill="#6e63ff"
       id="path2929"
       style="stroke-width:0.890763" /><path
       d="m 633.06171,161.66041 h -19.51123 a 1.5517072,1.5517071 0 0 1 -1.54996,-1.54995 v -10.39384 a 1.5517072,1.5517071 0 0 1 1.54996,-1.54996 h 19.51123 a 1.5516913,1.5516913 0 0 1 1.54996,1.54996 v 10.39384 a 1.5516913,1.5516913 0 0 1 -1.54996,1.54995 z"
       fill="#6e63ff"
       id="path2931"
       style="stroke-width:0.890763" /><path
       d="m 662.75312,161.66041 h -19.51124 a 1.5517072,1.5517071 0 0 1 -1.54996,-1.54995 v -10.39384 a 1.5517072,1.5517071 0 0 1 1.54996,-1.54996 h 19.51123 a 1.5516913,1.5516913 0 0 1 1.54996,1.54996 v 10.39384 a 1.5516913,1.5516913 0 0 1 -1.54995,1.54995 z"
       fill="#6e63ff"
       id="path2933"
       style="stroke-width:0.890763" /><path
       d="m 692.44453,161.66041 h -19.51124 a 1.5517045,1.5517045 0 0 1 -1.54995,-1.54995 v -10.39384 a 1.5517045,1.5517045 0 0 1 1.54995,-1.54996 h 19.51124 a 1.5516913,1.5516913 0 0 1 1.54995,1.54996 v 10.39384 a 1.5516913,1.5516913 0 0 1 -1.54995,1.54995 z"
       fill="#6e63ff"
       id="path2935"
       style="stroke-width:0.890763" /><path
       d="m 629.90298,93.673222 h -22.60266 a 2.062517,2.062517 0 0 1 -2.06011,-2.060209 V 79.572405 a 2.062517,2.062517 0 0 1 2.06011,-2.060213 h 22.60266 a 2.0625223,2.0625223 0 0 1 2.06015,2.060213 v 12.040608 a 2.0625223,2.0625223 0 0 1 -2.06015,2.060209 z M 607.30032,78.041359 a 1.5327048,1.5327048 0 0 0 -1.53094,1.531046 v 12.040608 a 1.5327021,1.5327021 0 0 0 1.53094,1.531043 h 22.60266 a 1.5327074,1.5327074 0 0 0 1.53098,-1.531043 V 79.572405 a 1.5327074,1.5327074 0 0 0 -1.53098,-1.531046 z"
       fill="#3f3d56"
       id="path2937"
       style="stroke-width:0.890763" /><path
       d="m 664.29882,93.673222 h -22.60264 a 2.0625223,2.0625223 0 0 1 -2.06015,-2.060209 V 79.572405 a 2.062525,2.062525 0 0 1 2.06015,-2.060213 h 22.60263 a 2.0625223,2.0625223 0 0 1 2.06014,2.060213 v 12.040608 a 2.0625223,2.0625223 0 0 1 -2.06013,2.060209 z M 641.69618,78.041359 a 1.5327101,1.5327101 0 0 0 -1.53098,1.531046 v 12.040608 a 1.5327074,1.5327074 0 0 0 1.53098,1.531043 h 22.60263 a 1.5327074,1.5327074 0 0 0 1.53097,-1.531043 V 79.572405 a 1.5327074,1.5327074 0 0 0 -1.53097,-1.531046 z"
       fill="#3f3d56"
       id="path2939"
       style="stroke-width:0.890763" /><path
       d="m 698.69465,93.673222 h -22.60264 a 2.0625223,2.0625223 0 0 1 -2.06014,-2.060209 V 79.572405 a 2.062525,2.062525 0 0 1 2.06014,-2.060213 h 22.60263 a 2.0625223,2.0625223 0 0 1 2.06014,2.060213 v 12.040608 a 2.0625223,2.0625223 0 0 1 -2.06013,2.060209 z M 676.09201,78.041359 a 1.5327101,1.5327101 0 0 0 -1.53098,1.531046 v 12.040608 a 1.5327074,1.5327074 0 0 0 1.53098,1.531043 h 22.60263 a 1.5327074,1.5327074 0 0 0 1.53098,-1.531043 V 79.572405 a 1.5327074,1.5327074 0 0 0 -1.53098,-1.531046 z"
       fill="#3f3d56"
       id="path2941"
       style="stroke-width:0.890763" /><path
       d="m 629.90298,128.33364 h -22.60266 a 2.062517,2.062517 0 0 1 -2.06011,-2.06021 v -12.04061 a 2.062517,2.062517 0 0 1 2.06011,-2.06021 h 22.60266 a 2.0625223,2.0625223 0 0 1 2.06015,2.06021 v 12.04061 a 2.0625223,2.0625223 0 0 1 -2.06015,2.06021 z m -22.60266,-15.63186 a 1.5327048,1.5327048 0 0 0 -1.53094,1.53104 v 12.04061 a 1.5327021,1.5327021 0 0 0 1.53094,1.53104 h 22.60266 a 1.5327074,1.5327074 0 0 0 1.53098,-1.53104 v -12.04061 a 1.5327074,1.5327074 0 0 0 -1.53098,-1.53104 z"
       fill="#3f3d56"
       id="path2943"
       style="stroke-width:0.890763" /><path
       d="m 664.29882,128.33364 h -22.60264 a 2.0625223,2.0625223 0 0 1 -2.06015,-2.06021 v -12.04061 a 2.062525,2.062525 0 0 1 2.06015,-2.06021 h 22.60263 a 2.0625223,2.0625223 0 0 1 2.06014,2.06021 v 12.04061 a 2.0625223,2.0625223 0 0 1 -2.06013,2.06021 z m -22.60264,-15.63186 a 1.5327101,1.5327101 0 0 0 -1.53098,1.53104 v 12.04061 a 1.5327074,1.5327074 0 0 0 1.53098,1.53104 h 22.60263 a 1.5327074,1.5327074 0 0 0 1.53097,-1.53104 v -12.04061 a 1.5327074,1.5327074 0 0 0 -1.53097,-1.53104 z"
       fill="#3f3d56"
       id="path2945"
       style="stroke-width:0.890763" /><path
       d="m 698.69465,128.33364 h -22.60264 a 2.0625223,2.0625223 0 0 1 -2.06014,-2.06021 v -12.04061 a 2.062525,2.062525 0 0 1 2.06014,-2.06021 h 22.60263 a 2.0625223,2.0625223 0 0 1 2.06014,2.06021 v 12.04061 a 2.0625223,2.0625223 0 0 1 -2.06013,2.06021 z m -22.60264,-15.63186 a 1.5327101,1.5327101 0 0 0 -1.53098,1.53104 v 12.04061 a 1.5327074,1.5327074 0 0 0 1.53098,1.53104 h 22.60263 a 1.5327074,1.5327074 0 0 0 1.53098,-1.53104 v -12.04061 a 1.5327074,1.5327074 0 0 0 -1.53098,-1.53104 z"
       fill="#3f3d56"
       id="path2947"
       style="stroke-width:0.890763" /><path
       d="m 629.90298,162.99405 h -22.60266 a 2.062517,2.062517 0 0 1 -2.06011,-2.06021 v -12.0406 a 2.062517,2.062517 0 0 1 2.06011,-2.06022 h 22.60266 a 2.0625223,2.0625223 0 0 1 2.06015,2.06022 v 12.0406 a 2.0625223,2.0625223 0 0 1 -2.06015,2.06021 z m -22.60266,-15.63186 a 1.5327048,1.5327048 0 0 0 -1.53094,1.53105 v 12.0406 a 1.5327021,1.5327021 0 0 0 1.53094,1.53105 h 22.60266 a 1.5327074,1.5327074 0 0 0 1.53098,-1.53105 v -12.0406 a 1.5327074,1.5327074 0 0 0 -1.53098,-1.53105 z"
       fill="#3f3d56"
       id="path2949"
       style="stroke-width:0.890763" /><path
       d="m 664.29882,162.99405 h -22.60264 a 2.0625223,2.0625223 0 0 1 -2.06015,-2.06021 v -12.0406 a 2.062525,2.062525 0 0 1 2.06015,-2.06022 h 22.60263 a 2.0625223,2.0625223 0 0 1 2.06014,2.06022 v 12.0406 a 2.0625223,2.0625223 0 0 1 -2.06013,2.06021 z m -22.60264,-15.63186 a 1.5327101,1.5327101 0 0 0 -1.53098,1.53105 v 12.0406 a 1.5327074,1.5327074 0 0 0 1.53098,1.53105 h 22.60263 a 1.5327074,1.5327074 0 0 0 1.53097,-1.53105 v -12.0406 a 1.5327074,1.5327074 0 0 0 -1.53097,-1.53105 z"
       fill="#3f3d56"
       id="path2951"
       style="stroke-width:0.890763" /><path
       d="m 698.69465,162.99405 h -22.60264 a 2.0625223,2.0625223 0 0 1 -2.06014,-2.06021 v -12.0406 a 2.062525,2.062525 0 0 1 2.06014,-2.06022 h 22.60263 a 2.0625223,2.0625223 0 0 1 2.06014,2.06022 v 12.0406 a 2.0625223,2.0625223 0 0 1 -2.06013,2.06021 z m -22.60264,-15.63186 a 1.5327101,1.5327101 0 0 0 -1.53098,1.53105 v 12.0406 a 1.5327074,1.5327074 0 0 0 1.53098,1.53105 h 22.60263 a 1.5327074,1.5327074 0 0 0 1.53098,-1.53105 v -12.0406 a 1.5327074,1.5327074 0 0 0 -1.53098,-1.53105 z"
       fill="#3f3d56"
       id="path2953"
       style="stroke-width:0.890763" /><path
       d="m 790.77354,203.86146 h -266.7 a 0.264585,0.264585 0 0 1 0,-0.52917 h 266.7 a 0.264585,0.264585 0 0 1 0,0.52917 z"
       fill="#3f3d56"
       id="path2955"
       style="stroke-width:0.890763" /><path
       d="M 666.35896,178.25254 A 2.277319,2.277319 0 0 0 664.11,175.94791 h -11.1125 v 27.38438 h 13.36146 z"
       fill="#3f3d56"
       id="path2957"
       style="stroke-width:0.890763" /><path
       d="m 653.26208,203.06771 h -13.89062 v -24.73855 a 2.5164018,2.5164018 0 0 1 2.51354,-2.51354 h 11.37708 z m -13.36145,-0.52917 h 12.83229 V 176.34479 H 641.885 a 1.9865869,1.9865869 0 0 0 -1.98437,1.98437 z"
       fill="#3f3d56"
       id="path2959"
       style="stroke-width:0.890763" /><circle
       cx="641.09125"
       cy="190.5"
       r="0.79374999"
       fill="#3f3d56"
       id="circle2961"
       style="stroke-width:0.890763" /></g></svg>
