<?xml version="1.0" encoding="UTF-8" standalone="no"?>
<!-- Created with Inkscape (http://www.inkscape.org/) -->

<svg
   width="300"
   height="300"
   viewBox="0 0 79.374998 79.374998"
   version="1.1"
   id="svg592"
   xml:space="preserve"
   inkscape:version="1.2.1 (9c6d41e410, 2022-07-14)"
   sodipodi:docname="drawing-1.svg"
   xmlns:inkscape="http://www.inkscape.org/namespaces/inkscape"
   xmlns:sodipodi="http://sodipodi.sourceforge.net/DTD/sodipodi-0.dtd"
   xmlns="http://www.w3.org/2000/svg"
   xmlns:svg="http://www.w3.org/2000/svg"><sodipodi:namedview
     id="namedview594"
     pagecolor="#ffffff"
     bordercolor="#000000"
     borderopacity="0.25"
     inkscape:showpageshadow="2"
     inkscape:pageopacity="0.0"
     inkscape:pagecheckerboard="0"
     inkscape:deskcolor="#d1d1d1"
     inkscape:document-units="px"
     showgrid="false"
     inkscape:zoom="0.76880612"
     inkscape:cx="482.5664"
     inkscape:cy="97.553854"
     inkscape:window-width="1920"
     inkscape:window-height="1017"
     inkscape:window-x="-8"
     inkscape:window-y="-8"
     inkscape:window-maximized="1"
     inkscape:current-layer="svg592"><inkscape:page
       x="0"
       y="0"
       width="79.375"
       height="79.375"
       id="page800" /><inkscape:page
       x="220"
       y="0"
       width="172.00922"
       height="126.36813"
       id="page802" /><inkscape:page
       x="402.00922"
       y="0"
       width="183.35625"
       height="139.7"
       id="page1087" /><inkscape:page
       x="595.36548"
       y="0"
       width="122.417"
       height="136.51768"
       id="page1318" /><inkscape:page
       x="727.78247"
       y="0"
       width="183.09166"
       height="132.25903"
       id="page1672" /><inkscape:page
       x="920.87415"
       y="0"
       width="220.98347"
       height="162.21555"
       id="page2059" /></sodipodi:namedview><defs
     id="defs589" /><g
     inkscape:label="Layer 1"
     inkscape:groupmode="layer"
     id="layer1" /><g
     id="g876"
     transform="matrix(0.4599778,0,0,0.4599778,199.35305,-88.97232)"
     style="stroke-width:2.17402"><path
       d="M 265.68894,93.32758 C 240.49591,93.32758 220,72.831674 220,47.638635 220,22.445597 240.4959,1.9496961 265.68894,1.9496961 A 45.789238,45.78924 0 0 1 303.03782,21.31544 l -0.43227,0.305406 A 45.25901,45.259012 0 0 0 265.68894,2.4788628 c -24.90106,0 -45.15977,20.2587122 -45.15977,45.1597752 0,24.901063 20.25871,45.159778 45.15977,45.159778 A 44.870051,44.870054 0 0 0 301.53895,75.10518 l 0.41961,0.321945 A 45.394297,45.394299 0 0 1 265.68894,93.32758 Z"
       fill="#e6e6e6"
       id="path720"
       style="stroke-width:0.57521" /><path
       d="m 284.57747,39.98752 a 2.5325916,2.5325917 0 1 1 2.53259,-2.532592 2.5325916,2.5325917 0 0 1 -2.53259,2.532592 z"
       fill="#e6e6e6"
       id="path722"
       style="stroke-width:0.57521" /><path
       d="m 285.46073,37.984889 -0.52996,-0.529961 0.52996,-0.52996 a 0.24983016,0.24983017 0 1 0 -0.35331,-0.353311 l -0.52996,0.52996 -0.52996,-0.52996 a 0.24982648,0.24982649 0 0 0 -0.35331,0.353306 l 0.52997,0.52996 -0.52997,0.529961 a 0.24983178,0.24983179 0 0 0 0.35332,0.353311 l 0.52996,-0.529961 0.52996,0.529961 a 0.24982511,0.24982512 0 1 0 0.3533,-0.353306 z"
       fill="#ffffff"
       id="path724"
       style="stroke-width:0.57521" /><circle
       cx="271.98215"
       cy="5.0399795"
       r="5.0399818"
       fill="#e6e6e6"
       id="circle726"
       style="stroke-width:0.57521" /><path
       d="M 271.2946,7.6630559 A 0.56046686,0.56046689 0 0 1 270.84613,7.438758 l -1.37498,-1.8333403 a 0.56061732,0.56061735 0 1 1 0.89701,-0.6727111 l 0.89956,1.1993245 2.3104,-3.4655655 a 0.56065207,0.5606521 0 0 1 0.93296,0.6219746 l -2.74996,4.1249495 a 0.56085845,0.56085847 0 0 1 -0.45093,0.2494836 z"
       fill="#ffffff"
       id="path728"
       style="stroke-width:0.57521" /><rect
       x="264.69217"
       y="14.132585"
       width="14.802489"
       height="3.1653376"
       rx="2.9160273"
       fill="#e6e6e6"
       id="rect730"
       style="stroke-width:0.57521"
       ry="2.9160273" /><rect
       x="257.1745"
       y="20.463263"
       width="29.837845"
       height="3.1653376"
       rx="2.9160273"
       fill="#e6e6e6"
       id="rect732"
       style="stroke-width:0.57521"
       ry="2.9160273" /><rect
       x="257.1745"
       y="26.79394"
       width="29.837845"
       height="3.1653376"
       rx="2.9160273"
       fill="#e6e6e6"
       id="rect734"
       style="stroke-width:0.57521"
       ry="2.9160273" /><path
       d="m 269.154,94.292576 a 2.5325916,2.5325917 0 1 1 2.53259,-2.532592 2.5325916,2.5325917 0 0 1 -2.53259,2.532592 z"
       fill="#e6e6e6"
       id="path736"
       style="stroke-width:0.57521" /><path
       d="m 270.03726,92.28994 -0.52996,-0.529961 0.52996,-0.52996 a 0.24982859,0.24982861 0 0 0 -0.35331,-0.353312 l -0.52996,0.529961 -0.52996,-0.529961 a 0.24982648,0.24982649 0 0 0 -0.35331,0.353306 l 0.52996,0.529961 -0.52996,0.52996 a 0.24982859,0.24982861 0 1 0 0.35331,0.353312 l 0.52996,-0.529961 0.52996,0.529961 a 0.24982648,0.24982649 0 1 0 0.35331,-0.353306 z"
       fill="#ffffff"
       id="path738"
       style="stroke-width:0.57521" /><circle
       cx="256.55869"
       cy="59.345032"
       r="5.0399818"
       fill="#e6e6e6"
       id="circle740"
       style="stroke-width:0.57521" /><path
       d="m 255.87113,61.968109 a 0.56046422,0.56046425 0 0 1 -0.44846,-0.224298 l -1.37498,-1.83334 a 0.56061582,0.56061585 0 1 1 0.897,-0.672711 l 0.89956,1.199324 2.31041,-3.465565 a 0.56065207,0.5606521 0 1 1 0.93296,0.621975 l -2.74997,4.124952 a 0.56086638,0.56086641 0 0 1 -0.45092,0.249481 z"
       fill="#ffffff"
       id="path742"
       style="stroke-width:0.57521" /><rect
       x="249.26869"
       y="68.437637"
       width="14.802489"
       height="3.1653376"
       rx="2.9160273"
       fill="#e6e6e6"
       id="rect744"
       style="stroke-width:0.57521"
       ry="2.9160273" /><rect
       x="241.75102"
       y="74.768318"
       width="29.837845"
       height="3.1653376"
       rx="2.9160273"
       fill="#e6e6e6"
       id="rect746"
       style="stroke-width:0.57521"
       ry="2.9160273" /><rect
       x="241.75102"
       y="81.098991"
       width="29.837845"
       height="3.1653376"
       rx="2.9160273"
       fill="#e6e6e6"
       id="rect748"
       style="stroke-width:0.57521"
       ry="2.9160273" /><path
       d="m 321.54429,83.487014 a 3.4972783,3.4972785 0 1 1 3.49728,-3.497279 3.4972809,3.4972811 0 0 1 -3.49728,3.497279 z"
       fill="#e6e6e6"
       id="path750"
       style="stroke-width:0.57521" /><path
       d="m 322.76399,80.721565 -0.73182,-0.731817 0.73184,-0.731824 a 0.3449915,0.34499152 0 0 0 -0.48789,-0.487892 l -0.73184,0.731838 -0.73184,-0.731838 a 0.3449915,0.34499152 0 0 0 -0.48789,0.487892 l 0.73183,0.731824 -0.73183,0.731838 a 0.3449915,0.34499152 0 0 0 0.48789,0.487892 l 0.73183,-0.731825 0.73181,0.731817 a 0.34499456,0.34499458 0 0 0 0.4879,-0.487892 z"
       fill="#ffffff"
       id="path752"
       style="stroke-width:0.57521" /><ellipse
       cx="306.30692"
       cy="35.227791"
       fill="#6e63ff"
       id="circle754"
       rx="6.9597321"
       ry="6.9597325"
       style="stroke-width:0.57521" /><path
       d="m 305.35746,38.85001 a 0.77395386,0.7739539 0 0 1 -0.61928,-0.309732 l -1.89872,-2.531671 a 0.77415812,0.77415816 0 1 1 1.23868,-0.928952 l 1.24222,1.656152 3.19045,-4.785617 a 0.77419034,0.77419038 0 1 1 1.28833,0.858888 l -3.79744,5.696164 a 0.77450419,0.77450423 0 0 1 -0.62268,0.344512 c -0.007,1.32e-4 -0.0144,2.56e-4 -0.0216,2.56e-4 z"
       fill="#ffffff"
       id="path756"
       style="stroke-width:0.57521" /><rect
       x="296.24014"
       y="47.783813"
       width="20.440826"
       height="4.3710303"
       rx="2.9160273"
       fill="#3f3d56"
       id="rect758"
       style="stroke-width:0.57521"
       ry="2.9160273" /><rect
       x="285.85895"
       y="56.525871"
       width="41.203217"
       height="4.3710303"
       rx="2.9160273"
       fill="#3f3d56"
       id="rect760"
       style="stroke-width:0.57521"
       ry="2.9160273" /><rect
       x="285.85895"
       y="65.267937"
       width="41.203217"
       height="4.3710303"
       rx="2.9160273"
       fill="#3f3d56"
       id="rect762"
       style="stroke-width:0.57521"
       ry="2.9160273" /><polygon
       points="450.676,463.637 437.92,463.636 431.851,414.433 450.679,414.434 "
       fill="#ffb6b6"
       id="polygon764"
       transform="matrix(0.26458333,0,0,0.26458334,220,0)"
       style="stroke-width:9.46479" /><path
       d="m 339.15137,121.56824 -3.60363,-1.46579 -0.10318,-0.0423 -1.98967,1.50812 a 4.2366829,4.2366831 0 0 0 -4.23598,4.23598 v 0.13759 h 10.88231 v -4.37357 z"
       fill="#2f2e41"
       id="path766"
       style="stroke-width:0.57521" /><polygon
       points="558.496,452.952 546.314,456.737 525.916,411.551 543.896,405.965 "
       fill="#ffb6b6"
       id="polygon768"
       transform="matrix(0.26458333,0,0,0.26458334,220,0)"
       style="stroke-width:9.46479" /><path
       d="m 367.35548,118.8176 -3.87628,-0.33029 -0.11111,-0.01 -1.45244,2.03065 a 4.2366908,4.236691 0 0 0 -2.78803,5.30227 l 0.0408,0.13137 10.39204,-3.22957 -1.29794,-4.17652 z"
       fill="#2f2e41"
       id="path770"
       style="stroke-width:0.57521" /><path
       d="m 354.26448,55.982133 1.37268,3.904068 v 2.110391 l -0.1913,2.320737 2.12463,7.739981 1.66667,17.067861 8.3875,25.265469 -6.43125,1.85209 -16.41998,-41.281261 -5.18627,41.754721 -5.88134,-0.1569 c 0,0 -1.00617,-2.43323 -0.74158,-3.75614 0.26458,-1.32292 0.26458,0.26458 0.26458,-1.32292 0,-1.5875 -1.14699,-0.89792 -0.30891,-2.16875 0.83808,-1.27083 0.73375,-2.38333 0.78591,-3.15 0.0522,-0.76666 -0.477,-31.722918 -0.477,-32.781251 0,-1.058333 -0.18333,-0.826535 -0.0917,-1.868488 0.0917,-1.041953 1.2545,-0.613608 0.93766,-2.415275 -0.31683,-1.801667 -0.42116,-1.48672 -0.369,-2.834817 0.0522,-1.348097 0.78134,-9.252493 0.78134,-9.252493 z"
       fill="#2f2e41"
       id="path772"
       style="stroke-width:0.57521" /><path
       d="m 332.25275,57.25216 11.79041,-11.370422 3.26792,-9.253008 -4.82028,-2.096029 c -2.47591,2.371725 -5.15225,9.758929 -5.15225,9.758929 l -8.11347,10.322189 c -0.0632,0.02165 -0.12628,0.04465 -0.18856,0.07215 a 2.3218378,2.3218379 0 1 0 3.21623,2.566194 z"
       fill="#ffb8b8"
       id="path774"
       style="stroke-width:0.57521" /><path
       d="m 341.13445,35.565827 6.11418,1.941044 0.0231,-0.0038 c 2.27568,-0.381201 4.16404,-4.097978 5.34734,-7.148833 a 4.257487,4.2574873 0 0 0 -2.16773,-5.393166 v 0 a 4.2668718,4.266872 0 0 0 -4.46886,0.563827 l -3.13967,2.565479 z"
       fill="#6e63ff"
       id="path776"
       style="stroke-width:0.57521" /><path
       d="m 355.30323,60.997461 0.0357,-0.04746 c 1.90765,-2.530039 -0.70146,-8.79537 -1.0959,-9.704031 l 1.77375,-0.525412 -0.30916,-3.377258 -0.14892,-1.505942 1.37913,-1.309688 0.005,-0.03343 0.94846,-6.749786 1.24101,-4.467363 a 9.8748821,9.8748826 0 0 0 -2.5549,-9.63907 l -2.53694,-2.518809 -3.0394,-4.757421 -5.09602,-0.131566 -1.83252,3.255333 a 7.4300978,7.4300982 0 0 0 -5.94273,7.435122 l 0.17252,8.666322 -1.82853,10.737572 -0.0513,1.95044 -1.79472,1.893887 0.33181,1.914684 -1.3425,0.534755 -0.65694,2.720724 c -0.25089,0.313899 -1.90752,2.40793 -1.92259,2.991699 -0.002,0.08764 0.0602,0.174027 0.19665,0.271597 1.07231,0.767205 7.06576,2.429616 9.76319,1.43019 2.87326,-1.063689 14.1342,0.934029 14.24765,0.954352 z"
       fill="#6e63ff"
       id="path778"
       style="stroke-width:0.57521" /><path
       d="m 342.81097,33.524659 -2.60312,-5.189834 c -3.77842,0.258099 -11.27757,4.626841 -11.27757,4.626841 l -14.18864,3.008294 a 2.5633494,2.5633496 0 1 0 0.69885,4.380357 l 18.04882,-1.293739 z"
       fill="#ffb8b8"
       id="path780"
       style="stroke-width:0.57521" /><path
       d="m 341.76106,34.376816 6.79847,-5.052259 1.19753,-4.315542 a 4.7137028,4.713703 0 0 0 -1.41771,-4.769255 v 0 a 4.7025612,4.7025614 0 0 0 -6.41717,0.207045 c -2.55838,2.553615 -5.47635,6.116143 -4.84955,8.586491 l 0.006,0.02504 z"
       fill="#6e63ff"
       id="path782"
       style="stroke-width:0.57521" /><ellipse
       cx="348.62048"
       cy="9.0052233"
       fill="#ffb8b8"
       id="circle784"
       rx="6.0453954"
       ry="6.0453959"
       style="stroke-width:0.57521" /><path
       d="m 352.5989,15.327633 c -1.01118,-0.474956 -2.1922,-0.186325 -3.3085,-0.142396 -1.1163,0.04393 -2.46883,-0.376899 -2.70569,-1.468662 -0.17513,-0.807257 0.35127,-1.692048 0.0196,-2.448558 -0.36173,-0.824992 -1.44745,-0.942403 -2.31814,-1.173398 a 5.3437895,5.3437897 0 0 1 -3.85879,-5.0022708 c -0.0605,0.4507575 0.7108,0.5988077 0.96415,0.2211044 0.25334,-0.3777033 0.0788,-0.9004829 -0.20049,-1.2593849 -0.27934,-0.3589021 -0.65637,-0.6455278 -0.86703,-1.0485967 -0.21065,-0.4030689 -0.16968,-1.0016782 0.24168,-1.1956522 a 3.3592108,3.3592109 0 0 0 2.12764,1.7501871 c -0.18711,-0.5683779 0.0774,-1.2073785 0.50328,-1.6277776 a 4.87145,4.8714503 0 0 1 1.53748,-0.9054042 c 1.39353,-0.60407813 3.02064,-1.2052009 4.37012,-0.50823546 a 2.6132234,2.6132235 0 0 1 1.35091,1.82863596 c 2.49629,0.2110767 5.05959,2.9151608 4.9175,5.4163227 -0.15296,2.6925667 -0.26458,2.9104167 -2.50603,7.4414067"
       fill="#2f2e41"
       id="path786"
       style="stroke-width:0.57521" /><path
       d="m 382.88274,126.09692 h -8.7806 l -0.0377,-0.0685 c -0.11227,-0.2036 -0.22066,-0.41936 -0.32194,-0.64104 -0.90447,-1.93632 -1.28675,-4.15092 -1.62406,-6.1048 l -0.254,-1.47278 a 0.90934115,0.90934119 0 0 1 1.43143,-0.88961 q 2.00162,1.4565 4.0048,2.91015 c 0.50565,0.36794 1.08314,0.79375 1.6362,1.25393 0.0534,-0.25916 0.10917,-0.51909 0.16498,-0.77541 a 0.9099444,0.90994444 0 0 1 1.66179,-0.28732 l 1.02732,1.65055 c 0.7493,1.20535 1.41064,2.39314 1.27589,3.67419 a 0.200025,0.20002501 0 0 1 -0.003,0.0465 2.8963381,2.8963383 0 0 1 -0.14908,0.61676 z"
       fill="#f0f0f0"
       id="path788"
       style="stroke-width:0.57521" /><path
       d="m 391.69585,126.28683 -83.43834,0.0813 a 0.31503672,0.31503674 0 0 1 0,-0.63006 l 83.43834,-0.0813 a 0.31503672,0.31503674 0 0 1 0,0.63006 z"
       fill="#cacaca"
       id="path790"
       style="stroke-width:0.57521" /></g><g
     id="g1161"
     transform="matrix(0.43292401,0,0,0.43292401,70.035893,0)"
     style="stroke-width:2.30987"><path
       d="M 585.36546,75.009373 V 133.6966 a 6.0106373,6.0106373 0 0 1 -6.00339,6.0034 h -45.01621 l 0.41804,-0.52917 50.0724,-63.489415 z"
       fill="#f2f2f2"
       id="path1007"
       style="stroke-width:0.611153" /><path
       d="m 473.6615,54.336949 h -51.69132 a 1.597025,1.597025 0 0 0 0,3.19405 h 51.69132 a 1.597025,1.597025 0 0 0 0,-3.19405 z"
       fill="#e6e6e6"
       id="path1009"
       style="stroke-width:0.611153" /><path
       d="m 437.99719,45.382274 h -16.02701 a 1.597025,1.597025 0 0 0 0,3.19405 h 16.02702 a 1.597025,1.597025 0 0 0 0,-3.19405 z"
       fill="#e6e6e6"
       id="path1011"
       style="stroke-width:0.611153" /><path
       d="M 579.36207,0 H 408.01261 a 6.0106373,6.0106373 0 0 0 -6.00339,6.0033957 V 133.6966 a 6.0106373,6.0106373 0 0 0 6.00339,6.0034 h 171.34946 a 6.0106373,6.0106373 0 0 0 6.00339,-6.0034 V 6.0033957 A 6.0106373,6.0106373 0 0 0 579.36207,0 Z m 5.47423,133.6966 a 5.474229,5.474229 0 0 1 -5.47423,5.47423 H 408.01261 a 5.474229,5.474229 0 0 1 -5.47423,-5.47423 V 41.718319 A 41.189152,41.189152 0 0 1 443.72754,0.52916665 h 135.63453 a 5.474229,5.474229 0 0 1 5.47423,5.47422905 z"
       fill="#e6e6e6"
       id="path1013"
       style="stroke-width:0.611153" /><path
       d="M 568.66774,23.089798 H 418.7203 a 0.2645835,0.2645835 0 0 1 0,-0.529167 h 149.94744 a 0.2645835,0.2645835 0 0 1 0,0.529167 z"
       fill="#e6e6e6"
       id="path1015"
       style="stroke-width:0.611153" /><ellipse
       cx="426.22253"
       cy="12.859546"
       rx="2.237478"
       ry="2.2873414"
       fill="#e6e6e6"
       id="ellipse1017"
       style="stroke-width:0.611153" /><ellipse
       cx="433.952"
       cy="12.859546"
       rx="2.237478"
       ry="2.2873414"
       fill="#e6e6e6"
       id="ellipse1019"
       style="stroke-width:0.611153" /><ellipse
       cx="441.68146"
       cy="12.859546"
       rx="2.237478"
       ry="2.2873414"
       fill="#e6e6e6"
       id="ellipse1021"
       style="stroke-width:0.611153" /><path
       d="m 450.49511,14.667388 a 0.2637102,0.2637102 0 0 1 -0.18913,-0.07958 l -1.50973,-1.543315 a 0.26446162,0.26446162 0 0 1 0,-0.370003 l 1.50973,-1.543185 a 0.26458333,0.26458333 0 1 1 0.37827,0.370001 l -1.32874,1.358186 1.32874,1.358315 a 0.26458333,0.26458333 0 0 1 -0.18914,0.449585 z"
       fill="#e6e6e6"
       id="path1023"
       style="stroke-width:0.611153" /><path
       d="m 453.03204,14.667388 a 0.26458333,0.26458333 0 0 1 -0.18914,-0.449585 l 1.3286,-1.358315 -1.3286,-1.358186 a 0.26458333,0.26458333 0 0 1 0.37827,-0.370001 l 1.5096,1.543185 a 0.26446162,0.26446162 0 0 1 0,0.370004 l -1.5096,1.543314 a 0.2637102,0.2637102 0 0 1 -0.18913,0.07958 z"
       fill="#e6e6e6"
       id="path1025"
       style="stroke-width:0.611153" /><path
       d="m 555.2961,10.837026 h -2.80723 a 0.57926551,0.57926551 0 0 0 -0.57944,0.579438 v 2.809875 a 0.57926815,0.57926815 0 0 0 0.57944,0.579437 h 2.80723 a 0.58153034,0.58153034 0 0 0 0.58208,-0.579437 v -2.809875 a 0.58152769,0.58152769 0 0 0 -0.58208,-0.579438 z"
       fill="#e6e6e6"
       id="path1027"
       style="stroke-width:0.611153" /><path
       d="m 548.41693,10.837026 h -2.80723 a 0.57926551,0.57926551 0 0 0 -0.57944,0.579438 v 2.809875 a 0.57926815,0.57926815 0 0 0 0.57944,0.579437 h 2.80723 a 0.58153034,0.58153034 0 0 0 0.58208,-0.579437 v -2.809875 a 0.58152769,0.58152769 0 0 0 -0.58208,-0.579438 z"
       fill="#e6e6e6"
       id="path1029"
       style="stroke-width:0.611153" /><path
       d="m 561.77839,10.969318 h -2.80723 a 0.57926551,0.57926551 0 0 0 -0.57944,0.579437 v 2.809875 a 0.57926815,0.57926815 0 0 0 0.57944,0.579438 h 2.80723 a 0.58153034,0.58153034 0 0 0 0.58208,-0.579438 v -2.809875 a 0.58152769,0.58152769 0 0 0 -0.58208,-0.579437 z"
       fill="#e6e6e6"
       id="path1031"
       style="stroke-width:0.611153" /><path
       d="m 504.91369,12.038227 h -22.43931 a 0.70643748,0.70643748 0 1 0 0,1.412874 h 22.43931 a 0.70643748,0.70643748 0 0 0 0,-1.412874 z"
       fill="#e6e6e6"
       id="path1033"
       style="stroke-width:0.611153" /><path
       d="m 444.76785,108.59726 -13.41887,-0.42419 c -1.86113,-0.0588 -3.95406,-0.0558 -5.28153,0.90599 -1.50661,1.09163 -1.2785,3.0256 -0.0276,4.28002 1.25091,1.25442 3.24829,1.97108 5.20869,2.55376 10.41502,3.09562 21.94154,3.72406 33.1335,3.02361 11.19197,-0.70046 22.15357,-2.68062 33.06113,-4.65409 1.03452,-0.18718 2.207,-0.45649 2.62887,-1.17642 0.40811,-0.69645 -0.12588,-1.53631 -0.95535,-1.98643 -0.82946,-0.45012 -1.88103,-0.6018 -2.89541,-0.73576 a 271.91438,271.91438 0 0 0 -55.43035,-1.58115"
       fill="#6e63ff"
       id="path1035"
       style="stroke-width:0.611153" /><path
       d="m 468.87736,98.276831 v -3.175 c -2.30402,0.03263 -10.54905,-0.02351 -12.7,7.1e-5 -0.16007,11.096868 -1.14125,8.923108 7.95019,8.966328 a 1.5808404,1.5808404 0 0 1 1.57487,1.57867 v 0.0476 a 1.5782395,1.5782395 0 0 1 -1.57827,1.57814 h -7.94679 v 3.175 h 12.7 c 0.0178,-0.0106 -0.0129,-3.06579 4e-5,-3.175 0.53699,-9.198261 -0.52552,-5.89002 -8.24595,-6.2589 a 1.3480256,1.3480256 0 0 1 -1.27913,-1.347948 v -0.03966 a 1.3494014,1.3494014 0 0 1 1.34933,-1.349325 z"
       fill="#3f3d56"
       id="path1037"
       style="stroke-width:0.611153" /><path
       d="m 484.48778,98.276831 v -3.175 c -2.30403,0.03263 -10.54905,-0.02351 -12.7,7.1e-5 -0.16146,11.193268 -1.15835,8.884348 8.18942,8.967958 a 1.349375,1.349375 0 0 1 1.33565,1.34927 c -1e-5,0.16671 -3e-5,0.33746 -4e-5,0.5046 a 1.3490575,1.3490575 0 0 1 -1.34932,1.34893 h -8.17571 v 3.175 h 12.7 c 0.0178,-0.0106 -0.0129,-3.06578 4e-5,-3.175 0.53698,-9.198254 -0.52552,-5.89001 -8.24595,-6.25889 a 1.3480256,1.3480256 0 0 1 -1.27914,-1.347951 v -0.03966 a 1.3494014,1.3494014 0 0 1 1.34933,-1.349324 z"
       fill="#3f3d56"
       id="path1039"
       style="stroke-width:0.611153" /><path
       d="m 452.47319,98.276831 v -3.175 h -12.7 c -0.009,2.831901 0.006,10.327189 -10e-6,13.229129 -2.48942,4.21448 11.65289,1.29663 12.70071,2.11784 -7e-4,-0.001 -7e-4,-3.17614 -7e-4,-3.17614 -9.66287,-0.0505 -9.9057,1.7584 -9.59485,-6.99288 a 2.0753334,2.0753334 0 0 1 2.07268,-2.003145 c 2.79354,1.96e-4 7.52217,1.96e-4 7.52217,1.96e-4 z"
       fill="#3f3d56"
       id="path1041"
       style="stroke-width:0.611153" /><path
       d="m 477.57618,70.673501 -13.41887,-0.353595 c -1.86113,-0.04904 -3.95406,-0.04654 -5.28152,0.755214 -1.50662,0.90996 -1.27851,2.522082 -0.0276,3.567744 1.2509,1.045663 3.24829,1.643063 5.20868,2.128772 10.41502,2.580457 21.94154,3.104308 33.13351,2.52042 11.19196,-0.583887 22.15356,-2.234512 33.06113,-3.879561 1.03452,-0.156025 2.20699,-0.380519 2.62886,-0.980641 0.40811,-0.580546 -0.12588,-1.280634 -0.95534,-1.655847 -0.82947,-0.375214 -1.88104,-0.50165 -2.89541,-0.61332 a 325.81968,325.81968 0 0 0 -55.43035,-1.318019"
       fill="#6e63ff"
       id="path1043"
       style="stroke-width:0.611153" /><path
       d="m 475.22732,56.737249 c -0.21623,4.901784 1.58542,6.444641 -4.63047,5.820245 -0.41996,-2.924201 1.70972,-6.982245 -3.17467,-5.951974 0.97848,2.121308 -2.72592,18.214975 3.17391,15.344391 0.33136,-4.83521 -1.85263,-6.955972 4.6314,-6.216237 0.51995,2.988998 -1.90696,7.387479 3.17462,6.348942 -0.97833,-2.122308 2.7261,-18.214509 -3.17479,-15.345367 z"
       fill="#3f3d56"
       id="path1045"
       style="stroke-width:0.611153" /><path
       d="m 507.77107,56.737249 c 0.43581,0.269052 -3.99267,4.954015 -4.08823,5.337889 -0.13285,-0.327618 -4.35963,-4.911291 -3.84923,-5.337704 -5.88157,-2.906448 -2.216,13.28071 -3.17612,15.346362 10e-4,-7.17e-4 3.17608,-7.17e-4 3.17608,-7.17e-4 V 62.029383 c 4.46277,6.019226 3.63403,5.006319 7.93758,-0.295507 l -8e-5,10.349206 c 5.88137,2.907432 2.21608,-13.281747 3.17609,-15.346548 -10e-4,7.15e-4 -3.17609,7.15e-4 -3.17609,7.15e-4 z"
       fill="#3f3d56"
       id="path1047"
       style="stroke-width:0.611153" /><path
       d="m 493.74816,56.737249 h -12.7 c -0.74623,4.450802 1.72113,2.958068 4.76294,3.174902 l -4.4e-4,12.170931 h 3.175 V 59.912248 c 3.02772,-0.205893 5.51812,1.256187 4.7625,-3.174999 z"
       fill="#3f3d56"
       id="path1049"
       style="stroke-width:0.611153" /><path
       d="m 516.76691,68.908082 a 33.94058,33.94058 0 0 1 0,-12.170833 h -3.175 c 0.0183,2.011603 -0.006,10.12881 -0.004,13.840801 a 1.5107708,1.5107708 0 0 0 1.50966,1.511479 c 3.19876,0.0042 9.3054,-0.01936 11.19417,-0.0064 l -3e-5,-3.175047 z"
       fill="#3f3d56"
       id="path1051"
       style="stroke-width:0.611153" /><path
       d="M 435.65923,69.437248 H 422.7544 a 2.38125,2.38125 0 0 0 0,4.7625 h 12.90484 a 2.38125,2.38125 0 0 0 0,-4.7625 z"
       fill="#e6e6e6"
       id="path1053"
       style="stroke-width:0.611153" /><polygon
       points="554.781,479.377 569.394,479.378 569.392,517.568 559.491,517.567 "
       fill="#ffb6b6"
       id="polygon1055"
       transform="matrix(0.26458333,0,0,0.26458333,402.00922,0)"
       style="stroke-width:4.61975" /><path
       d="m 552.75309,139.67266 -8.05577,-3e-4 v -0.10187 a 3.1357014,3.1357014 0 0 1 3.13554,-3.13548 h 1.9e-4 l 1.47148,-1.11634 2.74548,1.11652 0.70322,1e-5 z"
       fill="#2f2e41"
       id="path1057"
       style="stroke-width:0.611153" /><polygon
       points="589.781,479.377 604.394,479.378 604.392,517.568 594.491,517.567 "
       fill="#ffb6b6"
       id="polygon1059"
       transform="matrix(0.26458333,0,0,0.26458333,402.00922,0)"
       style="stroke-width:4.61975" /><path
       d="m 562.01351,139.67266 -8.05577,-3e-4 v -0.10187 a 3.1357014,3.1357014 0 0 1 3.13553,-3.13548 h 2e-4 l 1.47148,-1.11634 2.74547,1.11652 0.70322,1e-5 z"
       fill="#2f2e41"
       id="path1061"
       style="stroke-width:0.611153" /><path
       d="m 546.1382,81.883296 c 0,0 -2.52048,7.741213 -2.05525,8.760089 0.46523,1.018876 1.25899,0.225113 0.46524,1.018863 -0.79375,0.79375 -1.48665,-0.05001 -0.74332,1.297916 0.74332,1.347922 1.86943,12.444426 2.36471,12.981586 0.49528,0.53716 1.17626,0.55158 0.57118,1.07354 -0.60507,0.52196 -1.39882,-0.53638 -0.60507,0.52196 0.79375,1.05833 2.9,25.47291 2.9,25.47291 h 4.11457 c 0,0 1.02478,-1.18124 0.44469,-1.95 -0.58009,-0.76875 0.0509,-1.06507 0,-1.57837 -0.0509,-0.51329 0.14201,-1.61998 0.17784,-2.12497 0.0358,-0.50499 0.73118,-12.53531 -0.93942,-19.48473 l 3.04631,-13.232388 1.52316,15.993108 c 0,0 -1.69745,13.41485 0,17.72734 0,0 -1.36852,1.13959 -0.76158,1.8 0.60693,0.66042 1.1361,0.13126 0.60693,0.66043 -0.52917,0.52917 0.79375,2.38125 0.79375,2.38125 l 4.49792,-0.26458 2.54583,-25.06516 c 0,0 0.42916,-2.61401 0,-3.06192 -0.42915,-0.44792 -0.42917,1.13958 -0.42917,-0.44792 v -2.11667 c 0,0 1.91838,-13.018748 1.88523,-13.785415 -0.0331,-0.766667 -3.20814,-6.322917 -3.20814,-6.322917 z"
       fill="#2f2e41"
       id="path1063"
       style="stroke-width:0.611153" /><path
       d="m 559.44142,50.574383 -6.56776,-0.451718 -1.96528,3.0988 -4.73304,1.924296 v 15.265014 a 14.71092,14.71092 0 0 1 0.7541,4.582723 c -0.0181,3.041261 -0.79971,6.623754 -0.52916,7.408333 2.64583,7.672917 17.19791,0 17.19791,0 l -0.26458,-8.202083 0.35914,-18.536541 -2.97363,-2.371683 z"
       fill="#e6e6e6"
       id="path1065"
       style="stroke-width:0.611153" /><path
       d="m 545.87178,85.197054 -0.45284,-4.826331 -2.79317,-0.125989 0.66031,5.085662 a 1.622753,1.622753 0 1 0 2.58568,-0.13335 z"
       fill="#ffb6b6"
       id="path1067"
       style="stroke-width:0.611153" /><path
       d="m 547.24637,54.738705 -0.0774,0.0131 a 4.4947072,4.4947072 0 0 0 -3.32966,2.547516 c -0.79992,1.72982 -3.39719,13.101328 -2.25862,14.816159 0.88307,1.330031 0.66853,1.070544 0.25341,2.073804 -0.41512,1.00326 -1.08365,-0.0673 -0.53572,1.524968 0.54793,1.592268 1.15005,1.365065 0.64143,1.98029 -0.50861,0.615225 -1.03034,0.494623 -0.53572,1.524968 0.49463,1.030346 0.41422,1.378159 0.50773,1.766179 0.0935,0.388019 0.0122,3.117238 0.0122,3.117238 0,0 2.98353,-0.226319 4.46828,0.483309 0,0 -0.82844,-2.75632 -0.36002,-3.197642 0.46842,-0.441323 1.03035,-0.494626 0.62922,-1.136952 -0.40112,-0.642326 -1.31086,-0.669428 -0.32071,-0.990148 0.99014,-0.32072 0.67122,-6.073663 0.67122,-6.073663 1.63071,-4.270508 0.98636,-11.294679 0.2344,-18.449126 z"
       fill="#e6e6e6"
       id="path1069"
       style="stroke-width:0.611153" /><path
       d="m 565.23657,85.541485 0.20877,-4.843028 2.78325,-0.26674 -0.40291,5.112499 a 1.622753,1.622753 0 1 1 -2.58911,-0.0027 z"
       fill="#ffb6b6"
       id="path1071"
       style="stroke-width:0.611153" /><path
       d="m 562.32716,55.191264 0.078,0.0092 a 4.4947151,4.4947151 0 0 1 3.45394,2.3763 c 0.88616,1.687263 3.68963,13.115075 3.0032,14.683356 -0.64016,1.462534 -0.61368,1.102902 -0.14848,2.083932 0.4652,0.98103 1.07888,-0.121883 0.61198,1.496002 -0.46689,1.617885 -1.07972,1.421341 -0.54071,2.010127 0.539,0.588785 1.05398,0.442013 0.61198,1.495999 -0.44201,1.053986 -0.34417,1.397301 -0.41798,1.789543 -0.0738,0.392243 0.14507,3.113882 0.14507,3.113882 0,0 -2.99115,-0.07552 -4.43822,0.708109 0,0 0.68834,-2.794603 0.19825,-3.211732 -0.49009,-0.417129 -1.05399,-0.442018 -0.68578,-1.103759 0.36821,-0.661742 1.27542,-0.734709 0.27036,-1.005068 C 563.4637,79.366772 563.492,73.60506 563.492,73.60506 Z"
       fill="#e6e6e6"
       id="path1073"
       style="stroke-width:0.611153" /><circle
       cx="556.31873"
       cy="44.029392"
       r="5.1229129"
       fill="#ffb6b6"
       id="circle1075"
       style="stroke-width:0.611153" /><path
       d="m 559.88393,48.414537 c 0.71249,-0.557599 0.78165,-1.620438 1.38966,-2.290424 1.01655,-1.120175 1.49416,-2.325333 0.96165,-3.652644 -0.471,-1.173957 -0.37089,-2.61706 -1.38529,-3.372729 0.49821,-0.180353 0.61546,-0.554889 0.17586,-0.561805 -0.29644,-0.0047 -1.40155,0.561908 -0.8698,-0.143889 0.53176,-0.705797 -0.47482,-0.427201 -0.40825,-0.71611 0.0666,-0.28891 0.4935,-0.448922 0.68179,-0.219909 a 1.4921706,1.4921706 0 0 0 -2.34048,0.267729 c -0.59917,-0.897974 -1.23517,-1.515864 -2.15202,-0.946009 -0.9005,0.559678 -0.88874,1.251521 -1.85708,1.085252 -0.45523,-0.07816 -0.49825,0.781904 -0.80924,1.12342 a 1.3882449,1.3882449 0 0 1 -1.21946,0.520052 c -0.45387,-0.08577 -0.80092,-0.651385 -0.5466,-1.036963 l -1.06971,2.4404 -0.43112,-0.528812 c -0.68504,0.446442 -0.46004,1.611384 0.22952,2.050812 0.68956,0.439428 1.58565,0.345506 2.37978,0.150725 a 9.333325,9.333325 0 0 1 2.92407,-0.242522 c 1.49919,0.211796 2.54338,2.004131 1.98824,3.412757 0.576,-0.565615 1.64156,-0.09622 1.93996,0.653886 0.29839,0.75011 0.0796,1.595207 -0.14161,2.371595"
       fill="#2f2e41"
       id="path1077"
       style="stroke-width:0.611153" /></g><g
     id="g2241"
     transform="matrix(0.35460715,0,0,0.35460715,-325.53588,0.55863959)"
     style="stroke-width:2.82003"><path
       d="m 1129.7452,162.21554 0.2516,-0.46535 c -3.3743,-1.82495 -7.5738,-4.09601 -9.7673,-7.82303 -2.1623,-3.67407 -2.2108,-8.66317 -0.1266,-13.0204 1.7736,-3.7083 5.0318,-7.03057 9.4221,-9.60781 0.866,-0.50837 1.775,-0.99012 2.6541,-1.45611 2.125,-1.12616 4.3224,-2.29082 6.1342,-3.94304 2.4955,-2.2757 4.3836,-6.09459 2.9763,-9.49619 a 6.3118178,6.3118178 0 0 0 -5.4709,-3.82781 l -0.03,0.52839 a 5.7839529,5.7839529 0 0 1 5.0132,3.50522 c 1.3078,3.16105 -0.4864,6.74816 -2.8453,8.89945 -1.7623,1.60701 -3.9296,2.75564 -6.0254,3.86643 -0.8842,0.46858 -1.7985,0.95318 -2.6744,1.46736 -4.4816,2.63084 -7.8122,6.03193 -9.6315,9.8357 -2.1591,4.51394 -2.1024,9.69347 0.1479,13.51726 2.2682,3.8539 6.5396,6.16397 9.9718,8.01993 z"
       fill="#f1f1f1"
       id="path1987"
       style="stroke-width:0.746131" /><ellipse
       cx="1132.465"
       cy="113.11587"
       rx="4.630208"
       ry="2.2489583"
       fill="#f1f1f1"
       id="ellipse1989"
       style="stroke-width:0.746131" /><ellipse
       cx="1128.7607"
       cy="127.93253"
       rx="4.630208"
       ry="2.2489583"
       fill="#f1f1f1"
       id="ellipse1991"
       style="stroke-width:0.746131" /><ellipse
       cx="1137.2274"
       cy="130.31378"
       rx="4.630208"
       ry="2.2489583"
       fill="#f1f1f1"
       id="ellipse1993"
       style="stroke-width:0.746131" /><ellipse
       cx="1123.9983"
       cy="142.74919"
       rx="4.630208"
       ry="2.2489583"
       fill="#f1f1f1"
       id="ellipse1995"
       style="stroke-width:0.746131" /><ellipse
       cx="1114.7378"
       cy="142.74919"
       rx="4.630208"
       ry="2.2489583"
       fill="#f1f1f1"
       id="ellipse1997"
       style="stroke-width:0.746131" /><path
       d="m 957.19777,116.28004 h -16.42923 a 1.6799586,1.6799586 0 0 1 -1.67809,-1.67795 V 60.468889 a 1.6799586,1.6799586 0 0 1 1.67809,-1.67795 h 16.42923 a 1.6799586,1.6799586 0 0 1 1.67809,1.67795 v 54.133201 a 1.6799586,1.6799586 0 0 1 -1.67809,1.67795 z"
       fill="#6e63ff"
       id="path1999"
       style="stroke-width:0.746131" /><path
       d="m 987.15854,116.28004 h -16.42923 a 1.6799586,1.6799586 0 0 1 -1.67809,-1.67795 V 38.987586 a 1.6799612,1.6799612 0 0 1 1.67809,-1.677953 h 16.42923 a 1.6799612,1.6799612 0 0 1 1.67809,1.677953 v 75.614504 a 1.6799586,1.6799586 0 0 1 -1.67809,1.67795 z"
       fill="#6e63ff"
       id="path2001"
       style="stroke-width:0.746131" /><path
       d="m 1017.1193,116.28004 h -16.4292 a 1.6799586,1.6799586 0 0 1 -1.67811,-1.67795 V 60.468889 a 1.6799586,1.6799586 0 0 1 1.67811,-1.67795 h 16.4292 a 1.6799586,1.6799586 0 0 1 1.6781,1.67795 v 54.133201 a 1.6799586,1.6799586 0 0 1 -1.6781,1.67795 z"
       fill="#6e63ff"
       id="path2003"
       style="stroke-width:0.746131" /><path
       d="m 1047.0801,116.28004 h -16.4293 a 1.6432397,1.6432397 0 0 1 -1.678,-1.60193 V 30.432107 a 1.6432397,1.6432397 0 0 1 1.678,-1.601936 h 16.4293 a 1.6432397,1.6432397 0 0 1 1.6781,1.601936 v 84.246003 a 1.6432397,1.6432397 0 0 1 -1.6781,1.60193 z"
       fill="#6e63ff"
       id="path2005"
       style="stroke-width:0.746131" /><path
       d="m 1077.0408,116.28004 h -16.4292 a 1.6799586,1.6799586 0 0 1 -1.6781,-1.67795 v -99.357 a 1.6799586,1.6799586 0 0 1 1.6781,-1.67795 h 16.4292 a 1.6799586,1.6799586 0 0 1 1.6781,1.67795 v 99.357 a 1.6799586,1.6799586 0 0 1 -1.6781,1.67795 z"
       fill="#6e63ff"
       id="path2007"
       style="stroke-width:0.746131" /><circle
       cx="948.98315"
       cy="48.615589"
       r="3.3917863"
       fill="#3f3d56"
       id="circle2009"
       style="stroke-width:0.746131" /><circle
       cx="978.94391"
       cy="26.568981"
       r="3.3917863"
       fill="#3f3d56"
       id="circle2011"
       style="stroke-width:0.746131" /><circle
       cx="1008.9047"
       cy="48.615589"
       r="3.3917863"
       fill="#3f3d56"
       id="circle2013"
       style="stroke-width:0.746131" /><circle
       cx="1038.8655"
       cy="15.828329"
       r="3.3917863"
       fill="#3f3d56"
       id="circle2015"
       style="stroke-width:0.746131" /><circle
       cx="1068.8262"
       cy="3.3917863"
       r="3.3917863"
       fill="#3f3d56"
       id="circle2017"
       style="stroke-width:0.746131" /><path
       d="M 1096.2929,116.90997 H 921.13873 a 0.264585,0.264585 0 1 1 0,-0.52917 h 175.15417 a 0.264585,0.264585 0 0 1 0,0.52917 z"
       fill="#cbcbcb"
       id="path2019"
       style="stroke-width:0.746131" /><path
       d="m 1139.9491,162.15372 h -85.725 a 0.264585,0.264585 0 0 1 0,-0.52917 h 85.725 a 0.264585,0.264585 0 0 1 0,0.52917 z"
       fill="#cbcbcb"
       id="path2021"
       style="stroke-width:0.746131" /><path
       d="m 1084.8987,112.60947 a 2.098114,2.098114 0 0 0 -0.2737,-3.20556 l 1.0402,-4.68037 -2.69,-1.32587 -1.3762,6.63022 a 2.1094964,2.1094964 0 0 0 3.2997,2.58158 z"
       fill="#ffb7b7"
       id="path2023"
       style="stroke-width:0.746131" /><path
       d="m 1114.316,112.71206 a 2.0981458,2.0981458 0 0 0 -0.5209,-3.17478 l 0.675,-4.74682 -2.7846,-1.11377 -0.8591,6.71683 a 2.1094964,2.1094964 0 0 0 3.4896,2.31854 z"
       fill="#ffb7b7"
       id="path2025"
       style="stroke-width:0.746131" /><polygon
       points="641.494,602.077 636.562,562.087 651.864,562.088 651.862,602.078 "
       fill="#ffb7b7"
       id="polygon2027"
       transform="matrix(0.26458333,0,0,0.26458333,920.87415,0)"
       style="stroke-width:5.84545" /><path
       d="m 1094.0456,161.95884 -8.8452,-3.3e-4 v -0.11188 a 3.4429567,3.4429567 0 0 1 3.4428,-3.44272 h 2e-4 l 5.4023,2.2e-4 z"
       fill="#2f2e41"
       id="path2029"
       style="stroke-width:0.746131" /><polygon
       points="676.167,602.077 671.235,562.087 686.537,562.088 686.535,602.078 "
       fill="#ffb7b7"
       id="polygon2031"
       transform="matrix(0.26458333,0,0,0.26458333,920.87415,0)"
       style="stroke-width:5.84545" /><path
       d="m 1103.2195,161.95884 -8.8452,-3.3e-4 v -0.11188 a 3.4429567,3.4429567 0 0 1 3.4428,-3.44272 h 2e-4 l 5.4023,2.2e-4 z"
       fill="#2f2e41"
       id="path2033"
       style="stroke-width:0.746131" /><path
       d="m 1108.0431,70.281303 2.9579,-1.067421 c 0,0 1.2555,0.26661 1.2555,3.671358 0,3.404748 3.3343,35.15844 3.3343,35.15844 l -5.8352,1.53641 -3.2982,-30.12632 z"
       fill="#2f2e41"
       id="path2035"
       style="stroke-width:0.746131" /><path
       d="m 1088.2771,70.281303 -2.958,-1.067421 c 0,0 -1.2555,0.26661 -1.2555,3.671358 0,3.404748 -3.3343,35.15844 -3.3343,35.15844 l 5.8352,1.53641 3.2982,-30.12632 z"
       fill="#2f2e41"
       id="path2037"
       style="stroke-width:0.746131" /><path
       d="m 1088.3149,106.49667 -0.8085,23.85261 1.7901,26.38526 4.6123,0.10659 0.6712,-24.61285 3.8038,-12.30642 -0.3837,36.27232 5.2226,-0.0624 3.2347,-24.95507 c 0,0 4.2716,-20.65251 1.9028,-24.68007 l -10.9093,-3.62777 z"
       fill="#2f2e41"
       id="path2039"
       style="stroke-width:0.746131" /><path
       d="m 1088.4039,103.62245 -0.2633,5.73798 c 0,0 3.6808,1.83166 10.1505,0.7159 6.4697,-1.11576 10.7702,-0.38021 10.7702,-0.38021 l -0.4967,-7.31456 z"
       fill="#e5e5e5"
       id="path2041"
       style="stroke-width:0.746131" /><path
       d="m 1085.2014,69.298644 8.5074,-3.727879 0.5074,-1.9525 8.2761,0.239744 0.3576,1.994654 8.1511,3.361219 -3.5912,12.487587 0.3683,8.784656 4.4784,16.010545 c 0,0 -3.7774,3.20802 -12.8526,1.82776 l -1.5659,-3.1553 -0.9579,3.33683 c 0,0 -7.9579,2.92746 -10.1634,-0.88343 l 1.5982,-27.528733 z"
       fill="#2f2e41"
       id="path2043"
       style="stroke-width:0.746131" /><circle
       cx="1098.2791"
       cy="56.288395"
       r="5.4956074"
       fill="#ffb7b7"
       id="circle2045"
       style="stroke-width:0.746131" /><path
       d="m 1104.8088,54.158911 a 3.3469235,3.3469235 0 0 0 -0.5553,-1.240854 6.7044727,6.7044727 0 0 0 -1.0009,-2.88748 3.0295108,3.0295108 0 0 0 -0.8966,-1.034952 2.6469392,2.6469392 0 0 0 -1.4108,-0.351724 c -0.09,-0.0015 -0.2506,0.02567 -0.3957,0.03228 -0.093,-0.02873 -0.1864,-0.05437 -0.2803,-0.07849 -0.055,-0.121906 -0.1634,-0.477194 -0.1937,-0.453133 l -0.4094,0.325266 c -0.1731,-0.03007 -0.347,-0.05349 -0.5217,-0.07207 q -0.095,-0.272012 -0.1907,-0.544033 a 3.7276854,3.7276854 0 0 0 -0.2705,0.508315 q -0.2607,-0.01278 -0.5218,-0.009 l -0.3479,-0.334229 a 0.4906883,0.4906883 0 0 1 -0.3838,0.375972 c -0.1601,0.01642 -0.3196,0.03788 -0.4785,0.06345 -0.013,-8.2e-5 -0.026,0 -0.039,-3.23e-4 -0.8569,-0.02137 -1.7789,-0.0598 -2.4954,0.41062 a 2.4588866,2.4588866 0 0 0 -0.7943,0.901568 c -0.088,0.05963 -0.1758,0.118814 -0.261,0.182033 a 2.8522083,2.8522083 0 0 0 -0.7349,0.728639 3.0894866,3.0894866 0 0 0 -0.3253,0.78803 7.5541635,7.5541635 0 0 0 -0.3743,2.580661 3.8301082,3.8301082 0 0 0 0.9415,2.390296 c 0.3675,0.394838 0.8346,0.686406 1.2026,1.080781 0.7577,0.812032 0.8997,1.944565 1.5478,2.803789 0.6855,0.908778 1.9366,1.506802 3.0353,1.678204 a 5.0702288,5.0702288 0 0 0 3.777,-0.941998 2.3367126,2.3367126 0 0 0 0.6431,-0.674246 c 0.3814,-0.659622 0.2198,-1.488686 0.3613,-2.23734 0.2654,-1.403287 1.6047,-2.580886 1.3729,-3.990083 z"
       fill="#2f2e41"
       id="path2047"
       style="stroke-width:0.746131" /><polygon
       points="332.597,184.11 219.476,99.733 105.555,184.546 104.361,182.942 219.477,97.239 332.348,181.429 446.764,57.205 446.969,57.121 558.009,11.292 558.772,13.141 447.936,58.885 "
       fill="#3f3d56"
       id="polygon2049"
       transform="matrix(0.26458333,0,0,0.26458333,920.87415,0)"
       style="stroke-width:5.84545" /></g></svg>
