<?xml version="1.0" encoding="UTF-8" standalone="no"?>
<!-- Created with Inkscape (http://www.inkscape.org/) -->

<svg
   width="300"
   height="300"
   viewBox="0 0 79.375 79.374999"
   version="1.1"
   id="svg2363"
   xml:space="preserve"
   inkscape:version="1.2.1 (9c6d41e410, 2022-07-14)"
   sodipodi:docname="drawing-1.svg"
   xmlns:inkscape="http://www.inkscape.org/namespaces/inkscape"
   xmlns:sodipodi="http://sodipodi.sourceforge.net/DTD/sodipodi-0.dtd"
   xmlns="http://www.w3.org/2000/svg"
   xmlns:svg="http://www.w3.org/2000/svg"><sodipodi:namedview
     id="namedview2365"
     pagecolor="#ffffff"
     bordercolor="#000000"
     borderopacity="0.25"
     inkscape:showpageshadow="2"
     inkscape:pageopacity="0.0"
     inkscape:pagecheckerboard="0"
     inkscape:deskcolor="#d1d1d1"
     inkscape:document-units="px"
     showgrid="false"
     inkscape:zoom="1.087256"
     inkscape:cx="372.49736"
     inkscape:cy="104.85111"
     inkscape:window-width="1920"
     inkscape:window-height="1017"
     inkscape:window-x="-8"
     inkscape:window-y="-8"
     inkscape:window-maximized="1"
     inkscape:current-layer="svg2363"><inkscape:page
       x="0"
       y="0"
       width="79.375"
       height="79.375"
       id="page2603" /><inkscape:page
       x="310"
       y="0"
       width="203.80896"
       height="172.20407"
       id="page2605" /><inkscape:page
       x="523.80896"
       y="0"
       width="267.22916"
       height="203.87825"
       id="page2971" /><inkscape:page
       x="801.03809"
       y="0"
       width="212.85013"
       height="206.86356"
       id="page3325" /></sodipodi:namedview><defs
     id="defs2360" /><g
     inkscape:label="Layer 1"
     inkscape:groupmode="layer"
     id="layer1" /><g
     id="g3530"
     transform="matrix(0.37291549,0,0,0.38370699,-298.71951,3.0456743e-6)"
     style="stroke-width:2.64359"><path
       d="m 1001.2894,57.095066 a 100.72784,100.72783 0 0 0 -6.62018,-10.388949 q -2.54003,-3.49877 -5.36783,-6.764025 h -0.005 a 101.44595,101.44595 0 0 0 -11.0965,-10.983293 q -1.22049,-1.03654 -2.47401,-2.030608 a 100.78672,100.78672 0 0 0 -24.8395,-14.514264 l 0.0792,13.051173 0.85463,148.77587 H 877.7464 l -4.16586,-148.495168 0.31035,-12.84274 c -36.31608,15.273761 -61.81534,51.185069 -61.81534,93.054318 a 100.98798,100.98798 0 0 0 3.28061,25.61039 99.255466,99.255465 0 0 0 3.34663,10.42669 q 0.70753,1.85728 1.49288,3.68155 c 0.25236,0.59197 0.50944,1.17922 0.77594,1.76412 0.34197,0.76413 0.6981,1.5259 1.06366,2.27825 q 0.42452,0.88795 0.87262,1.76412 0.57664,1.14976 1.19103,2.28063 c 0.31602,0.59196 0.64148,1.17922 0.97168,1.7641 a 101.31808,101.31807 0 0 0 20.14821,25.20001 q 3.42801,3.10962 7.1343,5.89612 a 100.92518,100.92518 0 0 0 121.2572,0 q 2.01647,-1.51413 3.9504,-3.12965 1.28417,-1.06839 2.5259,-2.17686 c 0.21934,-0.19574 0.43868,-0.39149 0.65566,-0.58961 a 101.32973,101.32972 0 0 0 18.88172,-23.02078 99.022329,99.022327 0 0 0 5.11311,-9.70739 q 0.605,-1.316 1.1722,-2.65562 a 99.518362,99.51836 0 0 0 4.382,-12.59175 q 0.2724,-0.99408 0.5259,-1.99523 v -0.002 c 0.028,-0.11557 0.059,-0.2335 0.087,-0.34906 0.1745,-0.70282 0.3419,-1.41035 0.5023,-2.1179 v -0.002 q 0.7783,-3.42094 1.3137,-6.92441 c 0.045,-0.29951 0.09,-0.59904 0.1321,-0.89855 0.017,-0.10848 0.033,-0.21698 0.045,-0.32549 v -0.002 q 0.382,-2.70631 0.6202,-5.45272 0.368,-4.31245 0.3703,-8.7239 A 100.44298,100.44298 0 0 0 1001.289,57.096106 Z"
       fill="#f2f2f2"
       id="path3165"
       style="stroke-width:0.699449" /><path
       d="m 991.37975,166.86877 c 5.97255,-8.07002 8.26952,-19.43714 3.6236,-28.33712 a 46.256977,46.256977 0 0 1 -21.90047,22.99944 c -3.78068,1.85355 -8.17871,3.52149 -9.92868,7.35125 -1.08892,2.38294 -0.88156,5.19672 -0.006,7.66604 0.87542,2.46941 2.36425,4.66662 3.83737,6.83326 l 0.0776,0.64942 c 9.2742,-3.84521 18.32427,-9.09228 24.29682,-17.16229 z"
       fill="#e6e6e6"
       id="path3167"
       style="stroke-width:0.699449" /><path
       d="m 994.80516,138.60307 a 39.537256,39.537256 0 0 1 -8.22481,22.89305 17.026046,17.026046 0 0 1 -3.81626,3.72748 9.7652126,9.7652124 0 0 1 -4.88216,1.60563 c -1.62216,0.11624 -3.2949,0.0473 -4.86054,0.55584 a 5.9792764,5.9792763 0 0 0 -3.57739,3.3338 c -0.86682,1.91334 -0.99445,4.02404 -1.04754,6.09246 -0.0589,2.29658 -0.0838,4.68296 -1.16704,6.77066 -0.13125,0.25295 0.26893,0.44182 0.39998,0.18925 1.8847,-3.63224 0.66091,-7.87982 1.78408,-11.69817 0.52409,-1.7817 1.5883,-3.41628 3.36704,-4.13027 1.55543,-0.62436 3.28044,-0.55474 4.92393,-0.65824 a 10.42022,10.42022 0 0 0 4.83219,-1.3921 15.740216,15.740216 0 0 0 3.94549,-3.567 38.358196,38.358196 0 0 0 6.00885,-10.37408 40.238394,40.238394 0 0 0 2.75508,-13.38677 c 0.009,-0.2839 -0.43189,-0.24358 -0.44089,0.0385 z"
       fill="#ffffff"
       id="path3169"
       style="stroke-width:0.699449" /><path
       d="m 988.34054,159.47462 a 5.9318499,5.9318498 0 0 0 7.55488,-1.38686 c 0.17937,-0.22109 -0.15577,-0.51021 -0.33537,-0.28882 a 5.4927659,5.4927658 0 0 1 -7.03026,1.2757 c -0.24604,-0.14331 -0.43388,0.25749 -0.18925,0.39998 z"
       fill="#ffffff"
       id="path3171"
       style="stroke-width:0.699449" /><path
       d="m 978.71219,166.87861 a 11.433156,11.433156 0 0 1 0.8427,-8.28943 c 0.13035,-0.25341 -0.26978,-0.44235 -0.39997,-0.18925 a 11.892227,11.892227 0 0 0 -0.85937,8.62769 c 0.0773,0.2746 0.49357,0.12411 0.41665,-0.14901 z"
       fill="#ffffff"
       id="path3173"
       style="stroke-width:0.699449" /><path
       d="m 993.57962,147.6994 a 3.3577213,3.3577212 0 0 1 -2.19315,-2.31109 c -0.0738,-0.27545 -0.49,-0.12465 -0.41665,0.149 a 3.762592,3.7625919 0 0 0 2.42055,2.56206 0.22867937,0.22867937 0 0 0 0.29462,-0.10536 0.22236112,0.22236112 0 0 0 -0.10537,-0.29461 z"
       fill="#ffffff"
       id="path3175"
       style="stroke-width:0.699449" /><path
       d="m 961.75689,131.4489 c 0.0412,0.1733 0.0824,0.3466 0.12118,0.52274 a 44.219117,44.219116 0 0 1 1.05108,7.09558 c 0.0151,0.18457 0.0277,0.37184 0.0375,0.55646 a 46.61689,46.616889 0 0 1 -2.22379,17.01827 45.27064,45.270639 0 0 1 -2.62805,6.35661 c -1.43086,2.82989 -3.20743,5.78436 -3.60807,8.83195 a 7.7660156,7.7660155 0 0 0 -0.0768,0.95814 l 11.85478,11.2867 c 0.0398,0.0121 0.0772,0.0271 0.11714,0.0393 l 0.45272,0.47228 c 0.0608,-0.10195 0.12169,-0.209 0.1825,-0.31095 0.0355,-0.059 0.0684,-0.1205 0.10392,-0.1795 0.0228,-0.0401 0.0456,-0.0804 0.0685,-0.11529 0.008,-0.0133 0.0152,-0.0268 0.0203,-0.0374 0.0229,-0.0349 0.0405,-0.0697 0.0608,-0.10195 q 0.51292,-0.89614 1.01502,-1.80261 c 0.003,-0.003 0.003,-0.003 0.003,-0.008 2.53878,-4.61108 4.71492,-9.47461 6.08369,-14.51382 0.0411,-0.15163 0.085,-0.30584 0.12068,-0.46262 a 43.198225,43.198224 0 0 0 1.24814,-6.9382 38.189643,38.189643 0 0 0 0.16407,-3.86063 31.757144,31.757143 0 0 0 -1.65086,-9.79108 c -2.11453,-6.29302 -6.21815,-11.83974 -12.06773,-14.7947 -0.1497,-0.0755 -0.29687,-0.14859 -0.44914,-0.22136 z"
       fill="#e6e6e6"
       id="path3177"
       style="stroke-width:0.699449" /><path
       d="m 961.64029,131.62473 a 39.537275,39.537274 0 0 1 7.21614,23.23072 17.026133,17.026133 0 0 1 -0.80287,5.27384 9.7652179,9.7652177 0 0 1 -2.93143,4.2214 c -1.22521,1.06946 -2.60232,2.02152 -3.54621,3.37019 a 5.9792738,5.9792737 0 0 0 -0.84916,4.81568 c 0.45984,2.04958 1.62873,3.8117 2.83168,5.49518 1.33564,1.86918 2.75257,3.78951 3.14459,6.10863 0.0475,0.28098 0.48072,0.19086 0.4333,-0.0897 -0.68204,-4.03486 -4.2165,-6.6895 -5.61862,-10.41447 -0.65426,-1.73813 -0.78868,-3.68397 0.20168,-5.32498 0.86601,-1.43499 2.28526,-2.41798 3.53517,-3.49012 a 10.420276,10.420276 0 0 0 3.02009,-4.02082 15.740277,15.740277 0 0 0 1.00268,-5.22351 38.358212,38.358212 0 0 0 -1.44818,-11.90086 40.238307,40.238306 0 0 0 -5.85999,-12.34734 c -0.16369,-0.23212 -0.49149,0.0655 -0.32888,0.29616 z"
       fill="#ffffff"
       id="path3179"
       style="stroke-width:0.699449" /><path
       d="m 969.04475,152.18164 a 5.9318446,5.9318445 0 0 0 5.19717,-5.65589 c 0.0101,-0.28452 -0.43155,-0.31359 -0.44166,-0.0287 a 5.49275,5.4927499 0 0 1 -4.84521,5.25128 c -0.28273,0.0337 -0.19141,0.46681 0.0897,0.4333 z"
       fill="#ffffff"
       id="path3181"
       style="stroke-width:0.699449" /><path
       d="m 965.81478,163.89025 a 11.433175,11.433175 0 0 1 -4.31797,-7.12601 c -0.0485,-0.28081 -0.48173,-0.19076 -0.4333,0.0897 a 11.892206,11.892206 0 0 0 4.50831,7.40611 c 0.22709,0.17269 0.46881,-0.19807 0.24296,-0.36982 z"
       fill="#ffffff"
       id="path3183"
       style="stroke-width:0.699449" /><path
       d="m 966.13838,139.62549 a 3.3577107,3.3577106 0 0 1 -3.14255,-0.52484 c -0.22478,-0.17548 -0.46628,0.19549 -0.24296,0.36982 a 3.7625973,3.7625972 0 0 0 3.47521,0.58833 0.22867673,0.22867673 0 0 0 0.1718,-0.26151 0.22236112,0.22236112 0 0 0 -0.2615,-0.1718 z"
       fill="#ffffff"
       id="path3185"
       style="stroke-width:0.699449" /><path
       d="m 805.74877,121.67077 c -5.29696,-8.5287 -6.66254,-20.04489 -1.30871,-28.537869 a 46.256988,46.256987 0 0 0 19.95891,24.703169 c 3.61754,2.15467 7.86547,4.17451 9.29841,8.13382 0.89166,2.46355 0.45632,5.25118 -0.61678,7.64119 -1.07322,2.3901 -2.73569,4.45904 -4.38001,6.4988 l -0.13012,0.64097 c -8.93102,-4.58619 -17.52473,-10.55138 -22.8217,-19.08008 z"
       fill="#e6e6e6"
       id="path3187"
       style="stroke-width:0.699449" /><path
       d="m 804.63177,93.220184 a 39.537254,39.537253 0 0 0 6.33714,23.485736 17.02608,17.02608 0 0 0 3.50072,4.02529 9.7652417,9.7652415 0 0 0 4.73551,1.99708 c 1.60734,0.24769 3.28016,0.31491 4.7993,0.94901 a 5.9792658,5.9792658 0 0 1 3.29462,3.6135 c 0.70846,1.97746 0.66414,4.09154 0.54895,6.15744 -0.1279,2.29378 -0.29708,4.67427 0.61294,6.8431 0.11026,0.26279 -0.30393,0.41851 -0.41403,0.15612 -1.58328,-3.77339 -0.0184,-7.90746 -0.82749,-11.80446 -0.37756,-1.81841 -1.30541,-3.53406 -3.02024,-4.39024 -1.49955,-0.7487 -3.22451,-0.8195 -4.85415,-1.05622 a 10.420265,10.420265 0 0 1 -4.70307,-1.7802 15.740216,15.740216 0 0 1 -3.64256,-3.87584 38.358186,38.358185 0 0 1 -5.14588,-10.82808 40.238318,40.238317 0 0 1 -1.65805,-13.566388 c 0.014,-0.283689 0.45025,-0.207671 0.4363,0.07417 z"
       fill="#ffffff"
       id="path3189"
       style="stroke-width:0.699449" /><path
       d="m 809.37884,114.54806 a 5.9318472,5.9318471 0 0 1 -7.41719,-1.99623 c -0.16081,-0.23494 0.19672,-0.49587 0.35774,-0.26062 a 5.4927632,5.4927632 0 0 0 6.90333,1.84282 c 0.25687,-0.12284 0.41152,0.2919 0.15612,0.41403 z"
       fill="#ffffff"
       id="path3191"
       style="stroke-width:0.699449" /><path
       d="m 818.37363,122.71005 a 11.433175,11.433175 0 0 0 -0.16624,-8.3305 c -0.10932,-0.26316 0.30484,-0.41896 0.41404,-0.15612 a 11.892203,11.892203 0 0 1 0.15535,8.66899 c -0.0994,0.26741 -0.50202,0.0836 -0.40315,-0.18237 z"
       fill="#ffffff"
       id="path3193"
       style="stroke-width:0.699449" /><path
       d="m 805.11403,102.38603 a 3.3577133,3.3577133 0 0 0 2.37372,-2.12522 c 0.096,-0.268531 0.4985,-0.0844 0.40316,0.18237 a 3.762584,3.762584 0 0 1 -2.62076,2.35688 0.22867673,0.22867673 0 0 1 -0.28508,-0.12896 0.22236377,0.22236377 0 0 1 0.12896,-0.28507 z"
       fill="#ffffff"
       id="path3195"
       style="stroke-width:0.699449" /><path
       d="m 838.15215,88.775449 c -0.0552,0.169384 -0.11031,0.338764 -0.16325,0.511175 a 44.219283,44.219283 0 0 0 -1.62425,6.986685 c -0.0301,0.182729 -0.0578,0.368366 -0.0825,0.55158 a 46.616972,46.616971 0 0 0 0.83339,17.142711 45.27055,45.270549 0 0 0 2.10278,6.54915 c 1.19614,2.93681 2.72673,6.02588 2.87837,9.09595 a 7.76605,7.7660499 0 0 1 -10e-4,0.96122 l -12.73281,10.28594 c -0.0407,0.009 -0.0791,0.0207 -0.11996,0.0297 l -0.4896,0.43393 c -0.0523,-0.10655 -0.1043,-0.2182 -0.15663,-0.32475 -0.0306,-0.0617 -0.0584,-0.12566 -0.089,-0.18735 -0.0195,-0.0419 -0.0389,-0.0838 -0.0589,-0.12048 -0.007,-0.0139 -0.013,-0.0279 -0.0172,-0.0389 -0.02,-0.0367 -0.0347,-0.0728 -0.0523,-0.10656 q -0.4384,-0.93486 -0.86518,-1.87913 c -0.002,-0.003 -0.002,-0.003 -0.002,-0.008 -2.15566,-4.80214 -3.92935,-9.82644 -4.88406,-14.96022 -0.0287,-0.15447 -0.0598,-0.31173 -0.0827,-0.47089 a 43.198817,43.198817 0 0 1 -0.68015,-7.01669 38.19058,38.19058 0 0 1 0.15021,-3.86119 31.757165,31.757165 0 0 1 2.4411,-9.62453 c 2.61896,-6.10037 7.15978,-11.295241 13.23015,-13.765042 0.15531,-0.06307 0.30794,-0.123978 0.46562,-0.184139 z"
       fill="#e6e6e6"
       id="path3197"
       style="stroke-width:0.699449" /><path
       d="m 838.25408,88.960176 a 39.53727,39.537269 0 0 0 -9.0802,22.567444 17.026078,17.026078 0 0 0 0.37163,5.32164 9.7652417,9.7652415 0 0 0 2.57866,4.44566 c 1.13425,1.16549 2.42943,2.22632 3.26061,3.64724 a 5.9792738,5.9792737 0 0 1 0.45499,4.86877 c -0.6249,2.00543 -1.93311,3.66673 -3.26889,5.24688 -1.48314,1.75445 -3.05144,3.55328 -3.63063,5.83287 -0.0702,0.2762 -0.49465,0.15116 -0.42458,-0.12462 1.00769,-3.96609 4.74619,-6.32472 6.4464,-9.92341 0.79335,-1.67921 1.08546,-3.60769 0.23174,-5.32376 -0.74654,-1.50062 -2.0812,-2.5957 -3.23985,-3.76586 a 10.420287,10.420286 0 0 1 -2.68333,-4.25296 15.740224,15.740224 0 0 1 -0.57486,-5.28772 38.358101,38.358101 0 0 1 2.41055,-11.7438 40.238392,40.238391 0 0 1 6.84404,-11.830261 c 0.18202,-0.218056 0.48454,0.10527 0.30372,0.3219 z"
       fill="#ffffff"
       id="path3199"
       style="stroke-width:0.699449" /><path
       d="m 829.20348,108.84734 a 5.9318551,5.9318551 0 0 1 -4.72034,-6.05954 0.22143773,0.22143773 0 0 1 0.44255,0.007 5.4927632,5.4927632 0 0 0 4.40241,5.62767 c 0.27906,0.0566 0.15284,0.48082 -0.12462,0.42457 z"
       fill="#ffffff"
       id="path3201"
       style="stroke-width:0.699449" /><path
       d="m 831.47124,120.77971 a 11.433151,11.433151 0 0 0 4.8828,-6.75152 c 0.0711,-0.27594 0.49565,-0.15099 0.42458,0.12462 a 11.892209,11.892208 0 0 1 -5.09528,7.01524 c -0.24037,0.15366 -0.45117,-0.23552 -0.2121,-0.38834 z"
       fill="#ffffff"
       id="path3203"
       style="stroke-width:0.699449" /><path
       d="m 833.12066,96.568926 a 3.357716,3.3577159 0 0 0 3.1748,-0.267719 c 0.23831,-0.156633 0.44885,0.23273 0.2121,0.388342 a 3.762592,3.7625919 0 0 1 -3.51152,0.303953 0.22867937,0.22867937 0 0 1 -0.14998,-0.2746 0.22236112,0.22236112 0 0 1 0.2746,-0.149976 z"
       fill="#ffffff"
       id="path3205"
       style="stroke-width:0.699449" /><circle
       cx="904.07715"
       cy="20.593342"
       r="14.019051"
       fill="#ff6584"
       id="circle3207"
       style="stroke-width:0.699449" /><path
       d="m 947.00045,19.861773 a 51.52164,51.52164 0 0 0 -3.99521,-3.792386 c -2.73107,-2.315983 -5.75461,-4.285295 -9.12484,-5.525842 a 21.041688,21.041688 0 0 0 -3.91501,-1.0306472 c -0.16038,-0.025929 -0.31839,-0.05188 -0.47878,-0.073112 a 0.1771306,0.1771306 0 0 0 -0.0354,0 0.42564579,0.42564579 0 0 0 -0.0755,-0.01415 c -0.32781,-0.04245 -0.65565,-0.075472 -0.98583,-0.099049 a 17.083413,17.083413 0 0 0 -5.29236,0.4764114 17.600194,17.600194 0 0 0 -2.92448,1.0188368 26.180047,26.180047 0 0 0 -2.74287,1.554221 16.479642,16.479642 0 0 1 -1.46223,0.790075 18.237949,18.237949 0 0 1 -4.59897,1.471683 20.648364,20.648364 0 0 1 -3.25467,0.320744 c -0.94809,0.01887 -1.84195,0.05188 -2.74052,0.393859 a 6.5674187,6.5674186 0 0 0 -4.00227,4.334825 0.42242581,0.42242581 0 0 0 0.18867,0.464608 c 0.24291,0.174538 0.47876,0.372639 0.73583,0.528304 a 2.3089632,2.3089632 0 0 0 0.71696,0.195742 q 0.6085,0.127373 1.21933,0.24765 2.24641,0.44573 4.51171,0.790075 4.55653,0.689848 9.16493,0.971679 a 0.45758365,0.45758364 0 0 0 0.0566,0.0047 103.14899,103.14899 0 0 0 10.42434,0.101412 c 0.52592,-0.02123 1.04951,-0.04717 1.57544,-0.07783 q 3.28649,-0.183967 6.55648,-0.580184 3.0247,-0.367911 6.02583,-0.912717 2.14383,-0.389136 4.27117,-0.867907 a 0.41767125,0.41767124 0 0 0 0.18159,-0.691018 z"
       fill="#e6e6e6"
       id="path3209"
       style="stroke-width:0.699449" /><path
       d="m 917.86183,38.554826 a 45.790959,45.790958 0 0 0 -6.67676,-5.877245 c -0.79952,-0.561311 -1.62261,-1.089602 -2.46929,-1.573096 a 26.168765,26.168765 0 0 0 -3.22636,-1.5778 c -0.24764,-0.101412 -0.49763,-0.198102 -0.74763,-0.290084 A 20.898332,20.898331 0 0 0 900.348,28.132849 c -0.0118,-0.0024 -0.0236,0 -0.0354,-0.0024 -0.0236,-0.0047 -0.0495,-0.0094 -0.0731,-0.01415 a 16.231129,16.231129 0 0 0 -2.19336,-0.134432 c -0.52593,0 -1.05422,0.02831 -1.57781,0.08019 a 17.448183,17.448183 0 0 0 -2.50937,0.433948 c -0.40802,0.101426 -0.81367,0.21934 -1.21225,0.353767 a 17.314728,17.314727 0 0 0 -1.70987,0.665083 c -0.009,0.0047 -0.0165,0.0071 -0.0259,0.01179 a 25.476729,25.476729 0 0 0 -2.71694,1.542433 c -0.0189,0.01179 -0.0401,0.02358 -0.059,0.03537 a 17.138134,17.138134 0 0 1 -3.13202,1.466964 19.074757,19.074757 0 0 1 -2.87258,0.759412 20.341214,20.341214 0 0 1 -3.25466,0.3184 c -0.9481,0.01887 -1.84194,0.05188 -2.73815,0.396216 a 6.5708027,6.5708026 0 0 0 -4.00464,4.334827 0.42520129,0.42520129 0 0 0 0.18867,0.464609 c 0.24291,0.174522 0.48112,0.370276 0.73584,0.525941 a 2.2628966,2.2628966 0 0 0 0.71696,0.195742 c 0.40566,0.08492 0.81131,0.169814 1.21931,0.249994 q 2.24644,0.445751 4.51407,0.787728 3.10963,0.470514 6.24518,0.752345 1.48581,0.137972 2.974,0.226417 3.81714,0.229923 7.64136,0.179229 0.78892,-0.0106 1.5778,-0.03537 4.6839,-0.137975 9.33946,-0.702828 a 102.72608,102.72608 0 0 0 10.29462,-1.780625 0.4158906,0.4158906 0 0 0 0.18158,-0.688663 z"
       fill="#e6e6e6"
       id="path3211"
       style="stroke-width:0.699449" /><path
       d="M 882.9182,0.93075388 895.26866,171.60186 870.56775,173.79427 V 3.1021734 C 873.5111,0.80305009 877.7362,0.44334641 882.9182,0.93075388 Z"
       fill="#cccccc"
       id="path3213"
       style="stroke-width:0.699449" /><path
       d="M 943.88216,0.93075388 931.5317,171.60186 l 24.70091,2.19241 V 3.1021734 C 953.28926,0.80305009 949.06416,0.44334641 943.88216,0.93075388 Z"
       fill="#cccccc"
       id="path3215"
       style="stroke-width:0.699449" /><path
       d="M 956.81378,3.1766563 C 956.04729,1.2973817 954.41761,-7.9374999e-6 952.5332,-7.9374999e-6 h -78.52921 c -2.62023,0 -4.74992,2.5140443374999 -4.74992,5.6071875374999 V 175.24032 a 6.0613899,6.0613898 0 0 0 1.63676,4.23185 4.5003905,4.5003905 0 0 0 2.05658,1.23336 3.9257076,3.9257075 0 0 0 1.05658,0.14199 h 78.52921 a 3.9256996,3.9256996 0 0 0 1.05659,-0.14199 c 2.11316,-0.56797 3.69332,-2.80081 3.69332,-5.46521 V 5.6071875 A 6.4404505,6.4404504 0 0 0 956.81378,3.1766563 Z M 955.70767,175.24031 c 0,2.06581 -1.42449,3.7474 -3.17447,3.7474 h -78.52921 c -1.45045,0 -2.6792,-1.15539 -3.0542,-2.72842 a 4.3525757,4.3525757 0 0 1 -0.12028,-1.01898 V 5.6071875 c 0,-2.0658058 1.42452,-3.7446161 3.17447,-3.7446161 h 78.52922 a 2.6932705,2.6932704 0 0 1 0.94337,0.1698281 c 1.29008,0.4733025 2.2311,1.8959777 2.2311,3.5747854 z"
       fill="#cccccc"
       id="path3217"
       style="stroke-width:0.699449" /><rect
       x="870.04218"
       y="51.562576"
       width="86.453194"
       height="1.5766548"
       fill="#cccccc"
       id="rect3219"
       style="stroke-width:0.699449" /><rect
       x="870.04218"
       y="19.016008"
       width="86.453194"
       height="1.5766548"
       fill="#cccccc"
       id="rect3221"
       style="stroke-width:0.699449" /><rect
       x="870.04218"
       y="77.840141"
       width="86.453194"
       height="1.5766548"
       fill="#cccccc"
       id="rect3223"
       style="stroke-width:0.699449" /><rect
       x="896.52045"
       y="0.70753288"
       width="1.5766548"
       height="99.468536"
       fill="#cccccc"
       id="rect3225"
       style="stroke-width:0.699449" /><rect
       x="928.44049"
       y="0.70753288"
       width="1.5766548"
       height="99.468536"
       fill="#cccccc"
       id="rect3227"
       style="stroke-width:0.699449" /><path
       d="M 966.34899,170.99392 H 862.81551 a 7.1025967,7.1025966 0 0 0 -7.09421,7.09422 7.0227825,7.0227824 0 0 0 0.51179,2.6391 7.0947783,7.0947782 0 0 0 6.58242,4.45746 h 103.53348 a 7.0947809,7.0947808 0 0 0 6.12253,-3.51408 6.8513854,6.8513853 0 0 0 0.46225,-0.94338 7.0227825,7.0227824 0 0 0 0.51179,-2.6391 7.1046155,7.1046154 0 0 0 -7.09657,-7.09422 z"
       fill="#cccccc"
       id="path3229"
       style="stroke-width:0.699449" /><rect
       x="870.56775"
       y="96.497215"
       width="85.927643"
       height="5.2555137"
       fill="#cccccc"
       id="rect3231"
       style="stroke-width:0.699449" /><path
       d="m 912.74324,94.920563 h 1.57665 a 2.8905306,2.8905305 0 0 1 2.89053,2.890531 v 0 h -7.35772 v 0 a 2.8905306,2.8905305 0 0 1 2.89054,-2.890531 z"
       fill="#cccccc"
       id="path3233"
       style="stroke-width:0.699449" /><circle
       id="b6ad44ff-295b-418b-9346-03b76e49c34f"
       data-name="ab6171fa-7d69-4734-b81c-8dff60f9761b"
       cx="915.04742"
       cy="95.034477"
       r="16.284538"
       fill="#ffb8b8"
       style="stroke-width:0.699449" /><path
       id="e8f77054-5a04-4fda-83df-6cd2e0c3cac3-3996"
       data-name="bf427902-b9bf-4946-b5d7-5c1c7e04535e"
       d="m 896.88151,79.36862 c 0.12313,-1.870054 1.35982,-3.783677 5.28898,-4.783638 0,0 6.74311,-8.622678 15.90623,-4.10083 0,0 4.44224,-0.764256 7.73627,3.844735 0,0 3.26585,-1.926135 4.64373,1.487942 0,0 3.83029,6.963924 2.42014,14.067129 -1.41015,7.103205 -2.13193,7.989662 -2.13193,7.989662 0,0 1.79744,-14.692841 -8.5553,-13.674026 -10.35274,1.018815 -18.68769,-2.621904 -21.03217,5.349346 -1.94677,6.619002 -1.70154,10.056603 -1.70154,10.056603 0,0 -6.51007,-6.603023 -4.29663,-11.802417 1.1321,-2.659292 1.53235,-5.550529 1.72222,-8.434506 z"
       fill="#2f2e41"
       style="stroke-width:0.699449" /><path
       d="m 870.76336,184.02907 h 90.07425 c -0.60199,-6.87084 -0.99547,-33.13512 -0.99547,-34.86376 0,-7.62418 -6.23857,-15.94452 -6.23857,-15.94452 l -2.23311,-1.23428 -18.64847,-5.81818 -4.82606,-6.26885 a 5.3664591,5.366459 0 0 0 -4.29807,-2.09858 l -15.24499,0.11435 a 5.3827204,5.3827203 0 0 0 -3.61535,1.43269 l -9.44024,8.75756 -13.84596,6.61187 -0.0235,-0.0235 -0.14462,0.1076 -2.05485,1.47977 -1.3217,0.95515 c 0,0 -3.46737,4.16017 -6.23857,16.63731 -0.41702,1.87661 -0.70963,26.17008 -0.90468,30.15539 z"
       fill="#6e63ff"
       id="path3237"
       style="stroke-width:0.699449" /><path
       d="m 981.68597,180.72724 c -0.21698,0.1981 -0.43632,0.39386 -0.65565,0.58961 q -1.24527,1.10728 -2.5259,2.17685 -1.9351,1.61316 -3.9504,3.12966 h -121.2572 q -3.70395,-2.78061 -7.1343,-5.89612 z"
       fill="#cccccc"
       id="path3239"
       style="stroke-width:0.699449" /><polygon
       points="346.303,688.412 349.868,671.476 511.208,671.476 514.774,688.412 "
       fill="#2f2e41"
       id="polygon3241"
       transform="matrix(0.26458333,0,0,0.26458333,801.03809,0)"
       style="stroke-width:6.41108" /><path
       d="m 977.56576,162.80304 h -11.59884 a 1.7915281,1.7915281 0 0 0 -1.37498,0.63679 2.6005552,2.6005552 0 0 0 -0.49054,-0.0472 2.7511251,2.751125 0 1 0 0,5.50225 2.7201389,2.7201389 0 0 0 1.19808,-0.27829 l 0.1934,2.37731 0.76885,9.39607 a 1.7151773,1.7151773 0 0 0 0.14622,0.33725 1.8082392,1.8082392 0 0 0 1.58724,0.94338 h 7.54231 a 1.8147586,1.8147585 0 0 0 1.58959,-0.94338 1.8598012,1.8598012 0 0 0 0.14386,-0.33725 l 2.02828,-15.24029 a 1.8135653,1.8135653 0 0 0 -1.73347,-2.34666 z m -13.46437,5.30651 a 1.9657721,1.9657721 0 0 1 0,-3.93154 c 0.0354,0 0.0684,0.009 0.10377,0.0118 a 1.8008732,1.8008732 0 0 0 0.0283,0.95989 l 0.83017,2.69806 a 1.9334559,1.9334559 0 0 1 -0.96225,0.26179 z"
       fill="#3f3d56"
       id="path3243"
       style="stroke-width:0.699449" /><path
       d="m 951.36812,112.9384 h -73.42316 a 2.3834725,2.3834725 0 0 0 -2.37968,2.37966 v 49.54626 a 2.3819538,2.3819538 0 0 0 2.37968,2.37967 h 73.42316 a 2.3819538,2.3819538 0 0 0 2.37968,-2.37967 v -49.54626 a 2.3834725,2.3834725 0 0 0 -2.37968,-2.37966 z"
       fill="#3f3d56"
       id="path3245"
       style="stroke-width:0.699449" /><path
       d="m 922.92526,152.63813 h -17.17658 a 0.91646375,0.91646374 0 0 0 -0.91508,0.91744 v 27.13393 h 19.0091 v -27.13393 a 0.91695852,0.91695851 0 0 0 -0.91744,-0.91744 z m -8.5305,15.41717 a 2.0377891,2.0377891 0 0 1 -2.02828,-2.02826 v -3.12967 a 2.02827,2.02827 0 0 1 4.05654,0 v 3.12967 a 2.0377573,2.0377573 0 0 1 -2.02826,2.02826 z"
       fill="#2f2e41"
       id="path3247"
       style="stroke-width:0.699449" /><path
       d="m 904.77464,179.82159 v 2.61789 a 0.51283394,0.51283393 0 0 0 0.5118,0.51178 h 18.10344 a 0.51435,0.51434999 0 0 0 0.51178,-0.51178 v -2.61789 z"
       fill="#3f3d56"
       id="path3249"
       style="stroke-width:0.699449" /><circle
       cx="949.80682"
       cy="163.18723"
       r="1.1591184"
       fill="#2f2e41"
       id="circle3251"
       style="stroke-width:0.699449" /><path
       d="m 887.21365,161.5059 a 0.40562742,0.40562741 0 0 0 -0.40566,0.40564 v 2.08724 a 0.405655,0.40565499 0 0 0 0.81131,0 v -2.08724 a 0.40560625,0.40560624 0 0 0 -0.40565,-0.40564 z"
       fill="#2f2e41"
       id="path3253"
       style="stroke-width:0.699449" /><path
       d="m 889.41644,161.5059 a 0.40562477,0.40562477 0 0 0 -0.40564,0.40564 v 2.08724 a 0.405655,0.40565499 0 0 0 0.81131,0 v -2.08724 a 0.40562742,0.40562741 0 0 0 -0.40567,-0.40564 z"
       fill="#2f2e41"
       id="path3255"
       style="stroke-width:0.699449" /><path
       d="m 891.61923,161.5059 a 0.40562742,0.40562741 0 0 0 -0.40566,0.40564 v 2.08724 a 0.405655,0.40565499 0 0 0 0.81131,0 v -2.08724 a 0.40560625,0.40560624 0 0 0 -0.40565,-0.40564 z"
       fill="#2f2e41"
       id="path3257"
       style="stroke-width:0.699449" /><path
       d="m 893.82202,161.5059 a 0.40562477,0.40562477 0 0 0 -0.40564,0.40564 v 2.08724 a 0.40565388,0.40565387 0 0 0 0.8113,0 v -2.08724 a 0.40562742,0.40562741 0 0 0 -0.40566,-0.40564 z"
       fill="#2f2e41"
       id="path3259"
       style="stroke-width:0.699449" /><circle
       cx="895.57953"
       cy="174.83112"
       r="6.1319623"
       fill="#ffb8b8"
       id="circle3261"
       style="stroke-width:0.699449" /><circle
       cx="938.41791"
       cy="176.01035"
       r="6.1319623"
       fill="#ffb8b8"
       id="circle3263"
       style="stroke-width:0.699449" /><path
       d="m 1001.7108,101.9957 c -0.606,-1.00219 -1.324,-2.07222 -2.44846,-2.399462 -1.30223,-0.378966 -2.63994,0.373856 -3.77463,1.116752 a 109.99305,109.99305 0 0 0 -9.78866,7.21216 l 0.003,0.0389 c 2.43482,-0.16791 4.45553,6.30624 6.89035,6.13833 1.75915,-0.12131 3.99284,-6.90142 5.54745,-7.73361 0.58992,-0.31578 1.16496,-0.73761 1.83344,-0.767 0.83051,-0.0365 1.55471,0.54352 2.12381,1.14952 3.3663,3.58471 4.3405,9.06658 8.1172,12.21601 a 119.85602,119.85602 0 0 0 -8.5039,-16.9716 z"
       fill="#3f3d56"
       id="path3265"
       style="stroke-width:0.699449" /><path
       d="m 1008.1902,110.70258 q 2.6639,4.81125 5.6508,9.43143 v 0.002 c -0.012,0.10849 -0.028,0.21699 -0.045,0.32546 q -0.3608,-0.55187 -0.7146,-1.10847 -2.6815,-4.20627 -5.0966,-8.57295 -1.1462,-2.07661 -2.2358,-4.18624 -0.842,-1.6344 -1.6485,-3.28767 c -0.1534,-0.31603 -0.3019,-0.63207 -0.4505,-0.95045 -0.3491,-0.74528 -0.6934,-1.49526 -1.0613,-2.2311 -0.4198,-0.839603 -0.9316,-1.716951 -1.7028,-2.280608 a 2.3232242,2.3232242 0 0 0 -1.2099,-0.46699 3.3790414,3.3790413 0 0 0 -1.75233,0.502351 56.394816,56.394815 0 0 0 -11.09177,7.648447 57.79729,57.797289 0 0 0 -9.00928,10.00218 c -0.0802,0.1132 -0.26886,0.005 -0.18867,-0.11086 0.31839,-0.4481 0.63913,-0.88913 0.96932,-1.32781 a 58.071787,58.071786 0 0 1 14.82284,-13.82522 q 1.43983,-0.933926 2.93627,-1.780621 c 0.50235,-0.285377 1.00706,-0.566021 1.5212,-0.830178 a 3.7094107,3.7094107 0 0 1 1.61316,-0.499991 c 1.95756,-0.03066 2.97166,2.186286 3.66736,3.67682 q 0.3255,0.704 0.6628,1.40565 1.27,2.65324 2.6391,5.26404 0.8419,1.60966 1.724,3.20042 z"
       fill="#3f3d56"
       id="path3267"
       style="stroke-width:0.699449" /><path
       d="m 986.63958,104.43319 c -0.1137,-0.12676 -0.2267,-0.25351 -0.34114,-0.38026 -0.90247,-0.99808 -1.87083,-1.98458 -3.11013,-2.55677 a 4.5122042,4.5122041 0 0 0 -1.89043,-0.43821 5.3948727,5.3948726 0 0 0 -1.96282,0.42807 c -0.29552,0.11806 -0.58453,0.25205 -0.86915,0.39474 -0.32523,0.16369 -0.64466,0.33825 -0.9626,0.51425 q -0.89525,0.49542 -1.76728,1.0343 -1.73508,1.07232 -3.36148,2.30834 -0.84311,0.641 -1.65142,1.32402 -0.75181,0.63447 -1.4732,1.30301 c -0.10284,0.0949 -0.25641,-0.0587 -0.15356,-0.15355 0.12675,-0.11807 0.25495,-0.2354 0.38316,-0.35129 q 0.54322,-0.49106 1.10384,-0.96332 1.02231,-0.86264 2.09756,-1.65864 1.67206,-1.23855 3.45924,-2.30906 0.89308,-0.53453 1.81074,-1.02416 c 0.18472,-0.0985 0.37159,-0.19484 0.56062,-0.2861 a 8.9370535,8.9370534 0 0 1 1.33271,-0.5425 4.7410291,4.741029 0 0 1 2.01283,-0.19773 5.2404142,5.2404142 0 0 1 1.85711,0.64245 c 1.21682,0.68012 2.16055,1.7318 3.07897,2.75813 0.0927,0.10431 -0.0601,0.25858 -0.15357,0.15428 z"
       fill="#3f3d56"
       id="path3269"
       style="stroke-width:0.699449" /><path
       d="m 977.7353,109.23533 a 1.4014212,1.4014212 0 0 1 -0.86922,-0.24897 c -0.67345,-0.51016 -0.65571,-1.73544 0.0539,-3.74611 a 4.2289095,4.2289094 0 0 1 2.28913,-2.46036 3.918622,3.918622 0 0 1 3.15603,-0.0188 q 0.13059,0.0567 0.2575,0.12184 v 0 a 9.2943574,9.2943573 0 0 1 1.61383,1.14502 10.662274,10.662274 0 0 0 1.34413,0.99278 l 0.158,0.0926 -0.14971,0.10548 c -3.8205,2.68964 -6.41065,4.0165 -7.85358,4.0165 z"
       fill="#3f3d56"
       id="path3271"
       style="stroke-width:0.699449" /><path
       d="m 992.42634,93.228852 a 5.4255458,5.4255458 0 0 1 -5.32183,-4.373808 5.4245404,5.4245403 0 1 0 6.39844,4.266567 5.4483609,5.4483608 0 0 1 -1.07661,0.107241 z"
       fill="#3f3d56"
       id="path3273"
       style="stroke-width:0.699449" /><circle
       cx="847.22205"
       cy="93.860306"
       r="8.0948"
       fill="#3f3d56"
       opacity="0.74"
       id="circle3275"
       style="stroke-width:0.699449" /><circle
       cx="855.31689"
       cy="93.860306"
       r="8.0948"
       fill="#6e63ff"
       opacity="0.74"
       id="circle3277"
       style="stroke-width:0.699449" /><circle
       cx="851.33795"
       cy="87.408813"
       r="8.0948"
       fill="#ff6584"
       opacity="0.74"
       id="circle3279"
       style="stroke-width:0.699449" /><rect
       x="785.0965"
       y="342.6839"
       width="21.794273"
       height="0.47168985"
       transform="rotate(-17.440738)"
       fill="#3f3d56"
       id="rect3281"
       style="stroke-width:0.699454" /><circle
       cx="872.63727"
       cy="85.238739"
       r="0.94337982"
       fill="#3f3d56"
       id="circle3283"
       style="stroke-width:0.699449" /><path
       d="m 1007.6195,127.68812 c 1.382,0.97404 2.7098,1.96695 4.2286,2.71694 -0.028,0.11556 -0.059,0.23348 -0.087,0.34904 -0.1863,-0.0873 -0.3679,-0.17924 -0.5495,-0.27358 -1.5401,-0.8066 -2.8655,-1.90327 -4.3113,-2.85609 a 9.301898,9.3018979 0 0 0 -2.3254,-1.16507 7.6716943,7.6716942 0 0 0 -2.658,-0.31132 c -3.74283,0.18397 -6.95031,2.41741 -10.42902,3.5424 -1.70281,0.55188 -3.51409,0.84668 -5.28999,0.49998 -1.77592,-0.34668 -3.35372,-1.29006 -4.9221,-2.14382 -1.54714,-0.84432 -3.23342,-1.69336 -5.04,-1.69336 -1.47166,0.002 -3.0188,0.59196 -3.80652,1.89383 a 0.17663848,0.17663848 0 0 1 -0.30425,-0.17925 3.7122074,3.7122073 0 0 1 0.64387,-0.80422 c 1.02828,-0.97404 2.54004,-1.35847 3.92917,-1.24527 1.79713,0.14622 3.43625,0.99527 4.99046,1.84903 1.64857,0.90564 3.33721,1.87967 5.24284,2.07779 1.88204,0.1981 3.74522,-0.2948 5.49046,-0.95753 3.37966,-1.28534 6.71451,-3.42683 10.47388,-3.18862 1.7735,0.1132 3.2924,0.88206 4.724,1.88912 z"
       fill="#3f3d56"
       id="path3285"
       style="stroke-width:0.699449" /><path
       d="m 859.68821,59.47946 v 0.478771 a 2.4837787,2.4837787 0 0 0 -0.48112,-0.04717 h -2.46694 v 5.297077 a 2.9591979,2.9591979 0 0 1 -2.95749,2.957489 h -3.64616 v 0.816028 a 2.4715153,2.4715152 0 0 0 0.19103,0.952806 h -0.50471 a 2.9048604,2.9048604 0 0 1 -0.15801,-0.952806 v -0.816028 h -2.00468 v -0.471689 h 2.00468 v -5.297072 a 2.9591979,2.9591979 0 0 1 2.95749,-2.957489 h 3.64616 V 58.61392 h 0.47169 v 0.825457 h 2.46694 a 2.9434896,2.9434895 0 0 1 0.48112,0.04009 z"
       fill="#6e63ff"
       id="path3287"
       style="stroke-width:0.699449" /><path
       d="m 853.78266,55.665859 h -6.58479 a 2.9591979,2.9591979 0 0 0 -2.95749,2.957488 v 6.584794 a 2.9591979,2.9591979 0 0 0 2.95749,2.957489 h 6.58479 a 2.9591979,2.9591979 0 0 0 2.95749,-2.957489 v -6.59421 a 2.9587216,2.9587216 0 0 0 -2.95749,-2.948072 z m 2.4858,9.542282 a 2.4891497,2.4891497 0 0 1 -2.4858,2.4858 h -6.58479 a 2.4891497,2.4891497 0 0 1 -2.4858,-2.4858 v -6.584794 a 2.4891471,2.4891471 0 0 1 2.4858,-2.485797 h 6.58479 a 2.4886973,2.4886973 0 0 1 2.4858,2.476368 z"
       fill="#3f3d56"
       id="path3289"
       style="stroke-width:0.699449" /><path
       d="m 849.66481,67.693941 v 0.471689 h 0.47169 v -0.471689 z m 0,0 v 0.471689 h 0.47169 v -0.471689 z m 10.0234,-8.214481 a 2.9434896,2.9434895 0 0 0 -0.48112,-0.04009 h -6.58479 a 2.9591979,2.9591979 0 0 0 -2.95749,2.957489 v 6.584794 a 2.9048604,2.9048604 0 0 0 0.15801,0.952806 2.958555,2.9585549 0 0 0 2.79948,2.00468 h 6.58479 a 2.9591979,2.9591979 0 0 0 2.95749,-2.957486 v -6.584789 a 2.9576316,2.9576315 0 0 0 -2.47637,-2.917404 z m 2.00468,9.502193 a 2.4891497,2.4891497 0 0 1 -2.4858,2.485797 h -6.58479 a 2.4893429,2.4893428 0 0 1 -2.4858,-2.485797 v -6.584789 a 2.4891471,2.4891471 0 0 1 2.4858,-2.4858 h 6.58479 a 2.4867473,2.4867473 0 0 1 2.4858,2.4858 z m -12.02808,-1.287728 v 0.471689 h 0.47169 v -0.471689 z"
       fill="#3f3d56"
       id="path3291"
       style="stroke-width:0.699449" /><path
       d="M 845.00688,129.1763 H 817.0357 a 0.7362825,0.73628249 0 0 0 -0.73583,0.73347 v 1.658 a 99.255678,99.255677 0 0 0 3.34664,10.4267 h 25.36037 a 0.73273973,0.73273972 0 0 0 0.73348,-0.73348 v -11.35122 a 0.73426108,0.73426107 0 0 0 -0.73348,-0.73347 z"
       fill="#6e63ff"
       id="path3293"
       style="stroke-width:0.699449" /><path
       d="m 842.34184,145.676 h -21.20245 c 0.25236,0.59197 0.50943,1.17923 0.77594,1.76412 h 20.42651 c 1.15092,0.0165 1.13913,-1.78063 0,-1.76412 z"
       fill="#e4e4e4"
       id="path3295"
       style="stroke-width:0.699449" /><path
       d="m 842.34184,149.71837 h -19.36285 q 0.4245,0.88795 0.87261,1.76413 h 18.49024 c 1.15092,0.0165 1.13913,-1.77827 0,-1.76413 z"
       fill="#e4e4e4"
       id="path3297"
       style="stroke-width:0.699449" /><path
       d="m 842.34184,153.76311 h -17.29921 c 0.31602,0.59197 0.64149,1.17922 0.97168,1.76411 h 16.32753 c 1.15092,0.0165 1.13913,-1.78062 0,-1.76411 z"
       fill="#e4e4e4"
       id="path3299"
       style="stroke-width:0.699449" /><path
       d="m 987.35133,45.046889 h -0.13439 a 2.7004169,2.7004168 0 0 1 1.20502,0.284988 h -0.61161 a 2.4885121,2.4885121 0 0 0 -2.4857,2.485697 v 6.584997 a 2.4885121,2.4885121 0 0 0 2.4857,2.485697 h 0.3899 a 2.7029489,2.7029489 0 0 1 -0.98331,0.186701 h 0.13439 a 2.7246792,2.7246791 0 0 0 2.72154,-2.721547 V 47.76843 a 2.7246792,2.7246791 0 0 0 -2.72154,-2.721541 z"
       fill="#3f3d56"
       id="path3301"
       style="stroke-width:0.699449" /><path
       d="m 987.35133,45.046889 h -0.13439 a 2.7004169,2.7004168 0 0 1 1.20502,0.284988 h -0.61161 a 2.4885121,2.4885121 0 0 0 -2.4857,2.485697 v 6.584997 a 2.4885121,2.4885121 0 0 0 2.4857,2.485697 h 0.3899 a 2.7029489,2.7029489 0 0 1 -0.98331,0.186701 h 0.13439 a 2.7246792,2.7246791 0 0 0 2.72154,-2.721547 V 47.76843 a 2.7246792,2.7246791 0 0 0 -2.72154,-2.721541 z"
       opacity="0.21"
       id="path3303"
       style="stroke-width:0.699449" /><path
       d="m 969.89882,45.046889 h -0.13439 a 2.7004169,2.7004168 0 0 1 1.20502,0.284988 h -0.61161 a 2.4885147,2.4885147 0 0 0 -2.4857,2.485697 v 6.584997 a 2.4885147,2.4885147 0 0 0 2.4857,2.485697 h 0.3899 a 2.7029489,2.7029489 0 0 1 -0.98331,0.186701 h 0.13439 a 2.7246792,2.7246791 0 0 0 2.72154,-2.721547 V 47.76843 a 2.7246792,2.7246791 0 0 0 -2.72154,-2.721541 z"
       fill="#6e63ff"
       id="path3305"
       style="stroke-width:0.699449" /><path
       d="m 969.89882,45.046889 h -0.13439 a 2.7004169,2.7004168 0 0 1 1.20502,0.284988 h -0.61161 a 2.4885147,2.4885147 0 0 0 -2.4857,2.485697 v 6.584997 a 2.4885147,2.4885147 0 0 0 2.4857,2.485697 h 0.3899 a 2.7029489,2.7029489 0 0 1 -0.98331,0.186701 h 0.13439 a 2.7246792,2.7246791 0 0 0 2.72154,-2.721547 V 47.76843 a 2.7246792,2.7246791 0 0 0 -2.72154,-2.721541 z"
       opacity="0.21"
       id="path3307"
       style="stroke-width:0.699449" /><path
       d="m 970.38418,56.908768 a 2.4885121,2.4885121 0 0 1 -2.48569,-2.485697 v -6.585 a 2.4885147,2.4885147 0 0 1 2.48569,-2.485697 h 0.61161 a 2.7004566,2.7004565 0 0 0 -1.20502,-0.284988 h -6.585 a 2.7246792,2.7246791 0 0 0 -2.72154,2.721541 v 6.584998 a 2.7246633,2.7246633 0 0 0 2.72154,2.721541 h 6.58501 a 2.7029251,2.7029251 0 0 0 0.9833,-0.186701 z"
       fill="#6e63ff"
       id="path3309"
       style="stroke-width:0.699449" /><path
       d="m 987.83668,56.908768 a 2.4885121,2.4885121 0 0 1 -2.4857,-2.485697 v -6.585 a 2.4885147,2.4885147 0 0 1 2.4857,-2.485697 h 0.61161 a 2.7004592,2.7004592 0 0 0 -1.20502,-0.284988 h -6.58499 a 2.7246792,2.7246791 0 0 0 -2.72154,2.721541 v 6.584998 a 2.7246633,2.7246633 0 0 0 2.72154,2.721541 h 6.585 a 2.7029278,2.7029277 0 0 0 0.98331,-0.186701 z"
       fill="#3f3d56"
       id="path3311"
       style="stroke-width:0.699449" /><path
       d="m 995.6126,46.70612 a 100.7269,100.7269 0 0 1 6.6202,10.388957 h -4.12261 a 2.7256899,2.7256898 0 0 1 -2.72164,-2.721642 v -6.584793 a 2.7185408,2.7185408 0 0 1 0.22405,-1.082522 z"
       fill="#ff6584"
       id="path3313"
       style="stroke-width:0.699449" /><path
       d="m 987.34625,60.55021 -2.30657,-3.455133 -1.68628,-2.5259 a 0.938276,0.93827599 0 0 0 -1.67687,0.242927 l -0.70989,2.282973 -1.42922,4.587184 a 0.94009633,0.94009632 0 0 0 1.39149,1.077812 l 0.50707,-0.313679 a 0.7041171,0.7041171 0 0 1 1.07073,0.535374 l 0.46461,5.07066 a 0.94149069,0.94149068 0 0 0 0.93395,0.853757 c 0.0283,0 0.0566,-0.0024 0.0873,-0.0047 l 0.71225,-0.06369 a 0.93785796,0.93785795 0 0 0 0.84905,-1.021196 l -0.47876,-5.235755 a 0.70312492,0.70312491 0 0 1 0.99526,-0.702813 l 0.10377,0.04716 a 0.93851677,0.93851676 0 0 0 1.17216,-1.374963 z"
       fill="#cccccc"
       id="path3315"
       style="stroke-width:0.699449" /></g></svg>
