<svg xmlns="http://www.w3.org/2000/svg" viewBox="0 0 500 500"><g id="freepik--Floor--inject-1--inject-242"><ellipse id="freepik--floor--inject-1--inject-242" cx="251.17" cy="337.65" rx="237.55" ry="137.15" style="fill:#fafafa"></ellipse></g><g id="freepik--Shadows--inject-1--inject-242"><path id="freepik--Shadow--inject-1--inject-242" d="M75.12,382.65,176.92,441a7.53,7.53,0,0,0,6.81,0L454.94,284.34c1.89-1.09,1.88-2.84,0-3.93L346.48,218.09a7.28,7.28,0,0,0-6.76.1L75.06,378.64C73.21,379.77,73.24,381.57,75.12,382.65Z" style="fill:#e6e6e6"></path><ellipse id="freepik--shadow--inject-1--inject-242" cx="68.08" cy="387.92" rx="23.35" ry="13.48" style="fill:#e6e6e6"></ellipse></g><g id="freepik--Window--inject-1--inject-242"><g id="freepik--window--inject-1--inject-242"><polygon points="57.51 211.21 61.57 213.56 163.12 154.93 159.06 152.58 57.51 211.21" style="fill:#455a64"></polygon><polygon points="159.06 152.58 61.57 208.87 61.57 105.68 159.06 49.39 159.06 152.58" style="fill:#BA68C8"></polygon><g style="opacity:0.8"><polygon points="159.06 152.58 61.57 208.87 61.57 105.68 159.06 49.39 159.06 152.58" style="fill:#fff"></polygon></g><polygon points="112.34 74.02 112.34 181.9 116.41 179.56 116.41 71.68 112.34 74.02" style="fill:#37474f"></polygon><polygon points="110.31 72.84 112.34 74.02 112.34 181.9 110.31 180.72 110.31 72.84" style="fill:#263238"></polygon><polygon points="112.34 74.02 116.41 71.68 114.38 70.5 110.31 72.84 112.34 74.02" style="fill:#fafafa"></polygon><path d="M167.18,40,57.51,103.33V220.59l109.67-63.32Zm-4.06,114.92L61.57,213.56V105.68L163.12,47.05Z" style="fill:#37474f"></path><polygon points="163.12 154.93 159.06 152.58 159.06 49.39 163.12 47.05 163.12 154.93" style="fill:#263238"></polygon><polygon points="167.18 40.01 163.12 37.67 53.45 100.99 57.51 103.33 167.18 40.01" style="fill:#455a64"></polygon><polygon points="53.45 100.99 57.51 103.33 57.51 220.59 53.45 218.25 53.45 100.99" style="fill:#263238"></polygon><polygon points="112.34 76.36 116.4 74.02 116.4 76.37 112.34 78.71 112.34 76.36" style="fill:#263238"></polygon><polygon points="112.34 78.71 110.31 77.53 112.34 76.36 112.34 78.71"></polygon></g></g><g id="freepik--Slippers--inject-1--inject-242"><g id="freepik--slippers--inject-1--inject-242"><path d="M339.55,388.37c-.34,1.43.89,6.06,6.45,7.25s12.25.5,17-4.51,8-9.22,10.6-11.23a15.52,15.52,0,0,0,4.29-4.73,2.79,2.79,0,0,0,.26-1.51,4,4,0,0,0-.34-1.59,6.53,6.53,0,0,0-1.43-1.59c-3.61-3-11.07-2.94-16.72,1.81S339.55,388.37,339.55,388.37Z" style="fill:#BA68C8"></path><path d="M339.55,388.37c-.34,1.43.89,6.06,6.45,7.25s12.25.5,17-4.51,8-9.22,10.6-11.23a15.52,15.52,0,0,0,4.29-4.73,2.79,2.79,0,0,0,.26-1.51,4,4,0,0,0-.34-1.59,6.53,6.53,0,0,0-1.43-1.59c-3.61-3-11.07-2.94-16.72,1.81S339.55,388.37,339.55,388.37Z" style="opacity:0.1"></path><path d="M345.87,378.39s3.54-1.6,8.54,1.37c4.73,2.82,6.91,8.25,7.47,9.86a.66.66,0,0,1-.23.76,19.4,19.4,0,0,1-16.43,3.3C339.77,392.19,334.88,384.31,345.87,378.39Z" style="fill:#BA68C8"></path><path d="M314.32,375.8c-.52,1.37.08,6.12,5.43,8.05s12.07,2.14,17.41-2.2,9.2-8.07,12-9.71a15.5,15.5,0,0,0,4.88-4.12,2.86,2.86,0,0,0,.46-1.46,4,4,0,0,0-.13-1.62,6.51,6.51,0,0,0-1.2-1.77c-3.17-3.44-10.58-4.39-16.81-.44S314.32,375.8,314.32,375.8Z" style="fill:#BA68C8"></path><path d="M314.32,375.8c-.52,1.37.08,6.12,5.43,8.05s12.07,2.14,17.41-2.2,9.2-8.07,12-9.71a15.5,15.5,0,0,0,4.88-4.12,2.86,2.86,0,0,0,.46-1.46,4,4,0,0,0-.13-1.62,6.51,6.51,0,0,0-1.2-1.77c-3.17-3.44-10.58-4.39-16.81-.44S314.32,375.8,314.32,375.8Z" style="opacity:0.1"></path><path d="M336.24,379.5s-1.49-9.52-10.64-11.64c0,0-6.15-.41-10,4.1-2.82,3.3-.54,8-.54,8s2.93,4,10.16,3.25C333.77,382.37,336.24,379.5,336.24,379.5Z" style="fill:#BA68C8"></path></g></g><g id="freepik--Furniture--inject-1--inject-242"><g id="freepik--side-table--inject-1--inject-242"><polygon points="439.6 283.66 430.42 278.36 439.6 275.7 439.6 283.66" style="fill:#e0e0e0"></polygon><polygon points="393.59 302.27 393.59 310.73 327.12 272.37 327.13 263.92 393.59 302.27" style="fill:#e0e0e0"></polygon><g style="opacity:0.5;mix-blend-mode:multiply"><polygon points="439.6 283.66 430.42 278.36 439.6 275.7 439.6 283.66" style="fill:#e0e0e0"></polygon></g><g style="opacity:0.5;mix-blend-mode:multiply"><polygon points="393.59 302.27 393.59 310.73 327.12 272.37 327.13 263.92 393.59 302.27" style="fill:#e0e0e0"></polygon></g><polygon points="322.53 197.62 389 235.97 389 304.92 322.53 266.57 322.53 197.62" style="fill:#e0e0e0"></polygon><polygon points="389 235.97 448.79 201.45 448.79 270.4 389 304.92 389 235.97" style="fill:#ebebeb"></polygon><polygon points="448.79 201.45 382.32 163.09 322.53 197.62 389 235.97 448.79 201.45" style="fill:#f5f5f5"></polygon><polygon points="393.59 238.63 444.2 209.41 444.2 225.32 393.59 254.54 393.59 238.63" style="fill:#f5f5f5"></polygon><polygon points="393.59 259.84 444.2 230.62 444.2 267.75 393.59 296.97 393.59 259.84" style="fill:#e0e0e0"></polygon><polygon points="393.59 310.73 398.19 308.07 398.19 299.62 393.59 302.27 393.59 310.73" style="fill:#ebebeb"></polygon><polygon points="439.6 283.66 444.2 281.01 444.2 273.05 439.6 275.7 439.6 283.66" style="fill:#ebebeb"></polygon><path d="M409.28,232.92c0,.73,2.19.06,4.89-1.5l8.58-4.95c2.7-1.57,4.9-3.42,4.9-4.16V221l-18.37,10.6Z" style="fill:#455a64"></path><polygon points="444.2 267.75 412.26 249.06 393.59 259.84 393.59 296.97 444.2 267.75" style="fill:#e0e0e0;opacity:0.5;mix-blend-mode:multiply"></polygon></g><g id="freepik--Lamp--inject-1--inject-242"><path d="M391.84,197.3a3.36,3.36,0,0,0-.08-.77,11.44,11.44,0,0,0-4.68-7h-9.77a11.44,11.44,0,0,0-4.68,7,3.36,3.36,0,0,0-.08.77s0,.13,0,.13c.09,1.35,1,2.69,2.81,3.72a15.06,15.06,0,0,0,13.65,0c1.79-1,2.72-2.37,2.81-3.72C391.83,197.43,391.84,197.34,391.84,197.3Z" style="fill:#37474f"></path><path d="M377.56,189.4c-2.56,1.48-2.56,3.88,0,5.35a10.23,10.23,0,0,0,9.27,0c2.56-1.47,2.56-3.87,0-5.35A10.23,10.23,0,0,0,377.56,189.4Z" style="fill:#455a64"></path><path d="M383.53,156.77h-2.67v34.28h0a.63.63,0,0,0,.38.61,2.1,2.1,0,0,0,1.89,0,.63.63,0,0,0,.38-.61h0Z" style="fill:#263238"></path><path d="M401.86,151.64h0L392.6,128H371.78l-9.26,23.62h0c-1.32,3.69.49,7.68,5.46,10.55,7.84,4.53,20.57,4.53,28.41,0C401.37,159.32,403.18,155.33,401.86,151.64Z" style="fill:#BA68C8"></path><path d="M374.66,133.67a16.61,16.61,0,0,0,15.07,0c4.16-2.4,4.16-6.29,0-8.7a16.67,16.67,0,0,0-15.07,0C370.5,127.38,370.5,131.27,374.66,133.67Z" style="fill:#BA68C8"></path><path d="M374.66,133.67a16.61,16.61,0,0,0,15.07,0c4.16-2.4,4.16-6.29,0-8.7a16.67,16.67,0,0,0-15.07,0C370.5,127.38,370.5,131.27,374.66,133.67Z" style="fill:#fff;opacity:0.30000000000000004"></path><path d="M382.19,134.24a14,14,0,0,1-6.91-1.64c-1.62-.93-2.5-2.09-2.5-3.28s.88-2.34,2.5-3.27a15.4,15.4,0,0,1,13.83,0c1.61.93,2.5,2.09,2.5,3.27s-.89,2.35-2.5,3.28A14,14,0,0,1,382.19,134.24Z" style="fill:#BA68C8"></path><path d="M382.19,134.24a14,14,0,0,1-6.91-1.64c-1.62-.93-2.5-2.09-2.5-3.28s.88-2.34,2.5-3.27a15.4,15.4,0,0,1,13.83,0c1.61.93,2.5,2.09,2.5,3.27s-.89,2.35-2.5,3.28A14,14,0,0,1,382.19,134.24Z" style="opacity:0.15"></path></g></g><g id="freepik--Character--inject-1--inject-242"><g id="freepik--character-on-the-couch--inject-1--inject-242"><path d="M177.52,414.54H164l2.17,13.21h0a2.44,2.44,0,0,0,1.31,1.63,7.27,7.27,0,0,0,6.55,0,2.44,2.44,0,0,0,1.31-1.63h0Z" style="fill:#37474f"></path><ellipse cx="170.75" cy="414.18" rx="6.8" ry="3.92" style="fill:#fafafa"></ellipse><path d="M108.65,374.47H95.11l2.16,13.21h0a2.42,2.42,0,0,0,1.31,1.63,7.27,7.27,0,0,0,6.55,0,2.45,2.45,0,0,0,1.31-1.63h0Z" style="fill:#37474f"></path><path d="M97.07,371.34c-2.65,1.54-2.65,4,0,5.55a10.59,10.59,0,0,0,9.62,0c2.65-1.53,2.65-4,0-5.55A10.65,10.65,0,0,0,97.07,371.34Z" style="fill:#fafafa"></path><path d="M373.86,315.19H360.32l2.16,13.21h0a2.46,2.46,0,0,0,1.32,1.63,7.24,7.24,0,0,0,6.54,0,2.46,2.46,0,0,0,1.32-1.63h0Z" style="fill:#263238"></path><path d="M362.28,312.06c-2.65,1.54-2.65,4,0,5.55a10.59,10.59,0,0,0,9.62,0c2.65-1.53,2.65-4,0-5.55A10.65,10.65,0,0,0,362.28,312.06Z" style="fill:#fafafa"></path><path d="M305,275.13H291.45l2.16,13.2h0a2.43,2.43,0,0,0,1.31,1.63,7.2,7.2,0,0,0,6.55,0,2.4,2.4,0,0,0,1.31-1.63h0Z" style="fill:#fafafa"></path><path d="M293.41,272c-2.65,1.53-2.65,4,0,5.55a10.63,10.63,0,0,0,9.61,0c2.66-1.53,2.66-4,0-5.55A10.57,10.57,0,0,0,293.41,272Z" style="fill:#fafafa"></path><path d="M384.67,245.79v63.06a14.56,14.56,0,0,1-6.57,11.37l-5.35,3.1-.09,0a14.82,14.82,0,0,1-8.21,1.41L201.6,415a14.63,14.63,0,0,1-6.49,10.92.11.11,0,0,0-.06,0l-5.33,3.08a4.09,4.09,0,0,1-.51.26,1.66,1.66,0,0,1-.27.13l-.07,0a15,15,0,0,1-10.19.47,9.59,9.59,0,0,1-1.14-.42l-.18-.08c-.28-.12-.53-.26-.78-.39L91.17,379.74a14.54,14.54,0,0,1-6.56-11.37l0-105.75a14.58,14.58,0,0,1,6.57-11.37L279.54,142.42a14.53,14.53,0,0,1,13.13,0L298,145.5a17.44,17.44,0,0,1,7.56,11.31l5.16,38.71,67.35,38.9A14.55,14.55,0,0,1,384.67,245.79Z" style="fill:#37474f"></path><path d="M298,145.51l-5.35-3.09a14.53,14.53,0,0,0-13.13,0L91.16,251.25c-.38.22-.8.52-.67.42a15,15,0,0,0-5.82,9.84c.48-3.35,3.21-4.56,6.49-2.68l5.35,3.09a14.53,14.53,0,0,0,13.13,0L298,153.09C301.65,151,301.65,147.6,298,145.51Z" style="fill:#455a64"></path><path d="M384.67,245.79v63.06a14.56,14.56,0,0,1-6.57,11.37l-5.35,3.1-.09,0a14.05,14.05,0,0,1-7.69,1.46,13,13,0,0,1-5.35-1.5l-60.78-35.11a14.56,14.56,0,0,1-6.56-11.37V213.78a14.51,14.51,0,0,1,6.56-11.37l11.91-6.89,67.35,38.9A14.55,14.55,0,0,1,384.67,245.79Z" style="fill:#263238"></path><path d="M310.75,195.53l-11.91,6.87c-3.61,2.09-3.61,5.5,0,7.59l60.78,35.09a14.55,14.55,0,0,1,6.56,11.37v63.07c0,4.17,3,5.87,6.57,3.79l5.35-3.09a14.55,14.55,0,0,0,6.56-11.37V245.78a14.55,14.55,0,0,0-6.56-11.37Z" style="fill:#455a64"></path><path d="M366.18,256.45v63.07c0,4.17,3,5.87,6.57,3.79l5.35-3.09a14.55,14.55,0,0,0,6.56-11.37V245.78a13.46,13.46,0,0,0-1.93-6.47L364.26,250A13.41,13.41,0,0,1,366.18,256.45Z" style="fill:#37474f"></path><path d="M363.45,324.82a15.76,15.76,0,0,1-2.4,3.61c-1.39,1.56-4.36,3.27-6.17,4.32-23.1,13.34-122.24,70.64-145.33,84a7.25,7.25,0,0,1-6.57,0l-21.35-12.33-42.71-24.65c-3.63-2.09-6.57-7-6.57-10.9s2.94-8.81,6.57-10.91l24.23-14,18.48-10.66L284.2,274a14.59,14.59,0,0,1,13.13,0l60.77,35.1c3.62,2.09,6.57,7,6.57,10.9A11.61,11.61,0,0,1,363.45,324.82Z" style="fill:#263238"></path><path d="M209.55,402.5l151.83-87.73c1.82-1,3.29-.2,3.29,1.9v6.64a7.23,7.23,0,0,1-3.29,5.68L209.55,416.72c-1.81,1-3.28.2-3.28-1.89v-6.64A7.28,7.28,0,0,1,209.55,402.5Z" style="fill:#37474f"></path><path d="M284.19,241.47,138.92,325.41a14.49,14.49,0,0,0-6.57,11.37v13.28a14.53,14.53,0,0,0,6.57,11.38l60.78,35.09a14.53,14.53,0,0,0,13.13,0L358.1,312.59a14.51,14.51,0,0,0,6.57-11.37V287.93a14.49,14.49,0,0,0-6.57-11.37l-60.78-35.09A14.47,14.47,0,0,0,284.19,241.47Z" style="fill:#37474f"></path><path d="M206.27,369.64V398.1a13.43,13.43,0,0,1-6.56-1.57l-60.79-35.09a14.51,14.51,0,0,1-6.57-11.37V336.78a14.71,14.71,0,0,1,5.9-10.94c-2.94,2.1-2.71,5.2.67,7.15l60.79,35.09A13.37,13.37,0,0,0,206.27,369.64Z" style="fill:#263238"></path><path d="M212.83,368.08,358.1,284.14c3.63-2.09,3.63-5.49,0-7.58l-60.78-35.09a14.47,14.47,0,0,0-13.13,0L138.92,325.41c-3.63,2.09-3.63,5.49,0,7.58l60.78,35.09A14.53,14.53,0,0,0,212.83,368.08Z" style="fill:#455a64"></path><rect x="257.63" y="356.14" width="12.07" height="20.67" style="fill:#ffa8a7"></rect><path d="M258.56,371.21l-.93-2.5a17.16,17.16,0,0,1-2.47,7.15,71.89,71.89,0,0,1-4.07,6.58,53.68,53.68,0,0,1-5.61,6.53,28.51,28.51,0,0,1-3.14,2.88,41.85,41.85,0,0,1-4.19,2.37,1.72,1.72,0,0,0-.68.57,1.4,1.4,0,0,0-.13.68,3.73,3.73,0,0,0,3.35,3.53,1.08,1.08,0,0,1,.44.08,1,1,0,0,1,.29.3,6.11,6.11,0,0,0,2.69,1.79,14.26,14.26,0,0,0,9.93.05,12.51,12.51,0,0,0,2.81-1.46c2.35-1.65,3.83-4.12,5.44-6.44s2.51-4.88,4.14-7.08c1.46-2,4.66-3.76,5.45-6.06.43-1.25-.13-3.31-1-5.57a13.28,13.28,0,0,1-1.22-5.5c0,.26,0,1.34,0,1.34-.88,1-3.53,1.93-6.27,2C261.65,372.55,258.55,372.56,258.56,371.21Z" style="fill:#ffa8a7"></path><path d="M183.65,336.49c2.82-.61,7.59.06,10.07-3,1.91-2.39,1.16-4.83.72-7.56-.68-4.24.85-7.81,2.21-11.71a1,1,0,0,0,0-.74.93.93,0,0,0-.6-.36,32.32,32.32,0,0,0-9-1.21,2.22,2.22,0,0,0-1,.16,2.35,2.35,0,0,0-.83.8A84.36,84.36,0,0,1,180,319.4a38.81,38.81,0,0,1-9.17,7.6c-4.71,2.71-10,4.06-15.12,6-.85.32-1.8.77-2,1.64a2.64,2.64,0,0,0,.78,2.23c2.48,3,6.37,4.09,10.12,4.37a44,44,0,0,0,5.15-.3,20.27,20.27,0,0,0,6.72-1.22C178.84,338.74,181.08,337.13,183.65,336.49Z" style="fill:#ffa8a7"></path><path d="M276.86,243.68s-11.45-1.81-19.44-2.35c-34.65-2.38-41.52-3.25-46,1.22-3.85,3.81-27.49,71.33-27.49,71.33,2.22,4.73,11.31,5.19,11.31,5.19s17.07-24,24.29-37.31a144.53,144.53,0,0,0,6.87-16.2l43.78,6.87c-8,5.46-22.3,17.12-22.91,19.68-1,4.1,1.39,15.06,4.74,36.82,2.15,13.94,5,33.09,5,33.09,5.21,3.31,12.79.12,12.79.12s3.61-25.17,3.51-36.3a88.19,88.19,0,0,0-2.5-21.07s11.61-5.31,25.57-10.83c17.58-7,27.31-15.39,30.44-29.76Z" style="fill:#BA68C8"></path><path d="M270.14,272.43l7.62-4.89a16.41,16.41,0,0,1-5.53-6.35,18.17,18.17,0,0,0-.35,7.13c-13.59,1-45.52-2.76-45.52-2.76Z" style="opacity:0.1"></path><path d="M291.42,181.73c-4.71-.14-10.73,7-16.93,18s-15.66,37.52-15.66,37.52l15,8.68Z" style="fill:#ffa8a7"></path><path d="M295.41,180.4c-10.58-.19-14,3.59-18.45,10.66s-11.85,23.67-11.85,23.67,7.06,9.68,17.67,8.21S295.41,180.4,295.41,180.4Z" style="fill:#e0e0e0"></path><path d="M325.75,185.24a36.15,36.15,0,0,1,5.33,18.41l2.1,22.33c-1,18.08-2,25.41-5.1,38.36-7.32,2.57-42.22-1.4-51.22-20.66,0,0,2.15-24.86,5.16-42.42,2.07-12.06,4.7-20.88,16.4-21.14l15,2.06Z" style="fill:#f5f5f5"></path><circle cx="293.39" cy="146.66" r="16.43" transform="translate(-17.77 250.42) rotate(-45)" style="fill:#263238"></circle><path d="M320.28,156.47s-2.52,11.85-3.53,13.79a5.34,5.34,0,0,1-3.1,2.5l.17-8.33Z" style="fill:#263238"></path><path d="M317.11,139.51a5.85,5.85,0,0,1,4.83,1.7c2.08,2.12.92,8.76-1.66,15.26l-4.75.55Z" style="fill:#263238"></path><path d="M314.11,157c.95.57,2.31-1.26,3.48-2.48s5-2.91,6.92,1.12-1.69,9.53-4.71,10.47c-5.2,1.63-6-1.7-6-1.7l-.39,18.75c-4.48,5-19.81,3.82-16.92-.49l0-5.71a32.51,32.51,0,0,1-7,.36c-3.83-.59-6.23-3.61-7.39-7.75-1.87-6.64-2.57-12-1-25.09,1.73-14.33,18.4-14.48,27.4-8.81S314.11,157,314.11,157Z" style="fill:#ffa8a7"></path><path d="M307.87,141.38c1.77-.24,2.15,1.48,3.1,6.15.83,4.11,1.53,11.06,3.14,11.1.48,0,2.3-3,3.48-4.09a2.1,2.1,0,0,0,.46-1.13c.64-3,0-6.5-.35-9.51-.14-1.26-.32-2.52-.49-3.77-.22-1.57.53-3.06.58-4.67a5.9,5.9,0,0,0-1-3.71,6.92,6.92,0,0,0-2.14-1.77c-3.43-2-7.43-2.64-11.2-3.83-2.14-.68-4.21-1.54-6.32-2.31a7.89,7.89,0,0,0-4.41-.66c-1.47.34-2.77,1.84-2.34,3.29a5.65,5.65,0,0,0-6.19-.74,4.86,4.86,0,0,0-2.84,5,6.2,6.2,0,0,0-4,.52,3.5,3.5,0,0,0-1.85,3.43,4.65,4.65,0,0,0,1.37,2.38,18.36,18.36,0,0,0,10.54,5.22c3.73.6,7.22,0,10.93-.14,3.07-.11,6.08-.24,9.17-.65Z" style="fill:#263238"></path><path d="M317.11,140.56l5.75-3.09A3.19,3.19,0,0,0,318.5,136,3.43,3.43,0,0,0,317.11,140.56Z" style="fill:#263238"></path><path d="M296.53,177s8.53-1.72,11.51-3.31a9.8,9.8,0,0,0,4.13-4.08,13.48,13.48,0,0,1-2.34,4.82c-2.19,2.79-13.3,4.84-13.3,4.84Z" style="fill:#f28f8f"></path><path d="M297,156.65a1.71,1.71,0,1,0,1.71-1.78A1.74,1.74,0,0,0,297,156.65Z" style="fill:#263238"></path><path d="M299,150.33l4,1.26a2.2,2.2,0,0,0-1.42-2.69A2,2,0,0,0,299,150.33Z" style="fill:#263238"></path><path d="M297.3,166.71l-3.91,1.46a2.05,2.05,0,0,0,2.66,1.29A2.19,2.19,0,0,0,297.3,166.71Z" style="fill:#f28f8f"></path><path d="M281.55,151.92l3.34-2.57a2,2,0,0,0-2.9-.45A2.21,2.21,0,0,0,281.55,151.92Z" style="fill:#263238"></path><path d="M282.78,156.16a1.74,1.74,0,0,0,1.71,1.78,1.76,1.76,0,0,0,1.71-1.79,1.71,1.71,0,1,0-3.42,0Z" style="fill:#263238"></path><polygon points="291.67 154.09 292.63 164.42 286.39 163.76 291.67 154.09" style="fill:#f28f8f"></polygon><polygon points="245.25 245.97 243.9 245.19 264.6 221.5 304.09 244.04 305.09 245.97 245.25 245.97" style="fill:#BA68C8"></polygon><polygon points="245.25 245.97 243.9 245.19 264.6 221.5 304.09 244.04 305.09 245.97 245.25 245.97" style="opacity:0.2"></polygon><polygon points="305.09 245.97 265.2 222.94 245.25 245.97 283.06 263.25 305.09 245.97" style="fill:#BA68C8"></polygon><polygon points="305.09 245.97 265.2 222.94 245.25 245.97 283.06 263.25 305.09 245.97" style="opacity:0.4"></polygon><path d="M245.25,246l-4-2.29a3.39,3.39,0,0,1-1.69-2.86L239,213.15l1.3-.76.71,29.73,4.27,2.41Z" style="fill:#BA68C8"></path><path d="M245.25,246l-4-2.29a3.39,3.39,0,0,1-1.69-2.86L239,213.15l1.3-.76.71,29.73,4.27,2.41Z" style="opacity:0.2"></path><polygon points="240.27 212.39 261.45 225.1 244.73 244.24 240.98 242.12 240.27 212.39" style="fill:#BA68C8"></polygon><polygon points="240.27 212.39 261.45 225.1 244.73 244.24 240.98 242.12 240.27 212.39" style="opacity:0.4"></polygon><polygon points="241.31 215.74 241.96 241.65 245.25 243.63 256.65 230.59 241.31 215.74" style="fill:#ebebeb"></polygon><path d="M244.39,240.66a32.22,32.22,0,0,0-.32-14.24c-2-7.39-2.76-10.68-2.76-10.68l18.9,10.78-3.56,4.07C247.74,235.68,245.39,238.53,244.39,240.66Z" style="fill:#fafafa"></path><path d="M310.69,251.05a82.92,82.92,0,0,0-13.44.45c-2.23.34-4.45.73-6.71.88-3.78.26-7.3.26-13.89-4.4a7.56,7.56,0,0,1-2.6-7.7,3,3,0,0,0,.21-.83c0-.26-.06-.53,0-.79a1.34,1.34,0,0,1,1-1,3.58,3.58,0,0,1,1.53,0c2.48.35,4.9,1.06,7.35,1.58,2.2.46,4.75,1.09,6.73-.34a.39.39,0,0,0,.18-.24.36.36,0,0,0-.09-.24c-.92-1.38-2.59-1.86-3.65-3.14a4.86,4.86,0,0,1-1-4.26.32.32,0,0,1,.55-.24,27.28,27.28,0,0,0,5.41,2.42,20.15,20.15,0,0,1,5.08,1.83c2.27,1.37,3.51,3.42,6.23,4.15,6.48,1.72,28.91-2.66,28.91-2.66L323.89,206s-6.38-19.41,1.86-20.76c.91-.25,7.78-.41,12.72,10.86,5.18,11.81,10.34,39.76,10.95,44.56s-.71,7.06-9,8.77C332.35,251.09,313.14,251.14,310.69,251.05Z" style="fill:#ffa8a7"></path><path d="M320.8,184s8.63-.89,13.43,3.59,10.55,25.09,12.08,30c0,0-3.46,5.24-18.09,7.1C328.22,224.7,316.75,189.6,320.8,184Z" style="fill:#e0e0e0"></path><path d="M259.59,224a21,21,0,0,0-4.56-6.13c-1.84-1.72-3.57-3.92-4.53-2.12a3.22,3.22,0,0,0-.11,2.73Z" style="fill:#ffa8a7"></path><path d="M183.15,425.26V362.19a14.58,14.58,0,0,0-6.57-11.37l-67.34-38.88-5.16-38.71a17.43,17.43,0,0,0-7.57-11.31l-5.35-3.09c-3.61-2.08-6.56-.38-6.56,3.79V368.37a14.57,14.57,0,0,0,6.56,11.37l85.42,49.31C180.19,431.14,183.15,429.43,183.15,425.26Z" style="fill:#263238"></path><path d="M201.62,351.52V414.6a3,3,0,0,1,0,.42,14.63,14.63,0,0,1-6.49,10.92.11.11,0,0,0-.06,0l-5.33,3.08a4.09,4.09,0,0,1-.51.26,1.66,1.66,0,0,1-.27.13l-.07,0c-.19.08-.37.15-.53.2a15.2,15.2,0,0,1-9.66.27,9.59,9.59,0,0,1-1.14-.42c3.15,1.3,5.59-.47,5.61-4.25h0V362.19a14.56,14.56,0,0,0-6.57-11.37l-11.91-6.88-55.44-32,11.92-6.88a14.59,14.59,0,0,1,13.13,0l48.87,28.22,11.9,6.87A14.52,14.52,0,0,1,201.62,351.52Z" style="fill:#455a64"></path><path d="M183.15,362.19v63.07h0c0,3.78-2.46,5.55-5.61,4.25a9.59,9.59,0,0,0,1.14.42,15.2,15.2,0,0,0,9.66-.27c.16-.05.34-.12.53-.2l.07,0a1.66,1.66,0,0,0,.27-.13,4.09,4.09,0,0,0,.51-.26l5.33-3.08a.11.11,0,0,1,.06,0A14.63,14.63,0,0,0,201.6,415a3,3,0,0,0,0-.42V351.52a13.42,13.42,0,0,0-1.93-6.46l-18.47,10.66A13.49,13.49,0,0,1,183.15,362.19Z" style="fill:#37474f"></path></g></g><g id="freepik--Plants--inject-1--inject-242"><g id="freepik--Pot--inject-1--inject-242"><path d="M83.14,390.82c8-8.21,12.78-41.65,4.92-48.17h-40C40.25,349.17,45,382.59,53,390.81l.22.23.28.27c.23.22.47.44.73.65l.19.15c.2.15.39.31.61.46a10.64,10.64,0,0,0,1,.66c6.62,3.83,17.36,3.83,24,0h0a9.14,9.14,0,0,0,1-.67l.57-.42.24-.19a8.47,8.47,0,0,0,.7-.63L83,391Z" style="fill:#BA68C8"></path><g style="opacity:0.5"><path d="M83.14,390.82c8-8.21,12.78-41.65,4.92-48.17h-40C40.25,349.17,45,382.59,53,390.81l.22.23.28.27c.23.22.47.44.73.65l.19.15c.2.15.39.31.61.46a10.64,10.64,0,0,0,1,.66c6.62,3.83,17.36,3.83,24,0h0a9.14,9.14,0,0,0,1-.67l.57-.42.24-.19a8.47,8.47,0,0,0,.7-.63L83,391Z" style="fill:#fff"></path></g><path d="M51.57,340c-9.11,5.26-9.11,13.8,0,19.06s23.9,5.27,33,0,9.12-13.8,0-19.06S60.69,334.76,51.57,340Z" style="fill:#BA68C8"></path><g style="opacity:0.7000000000000001"><path d="M51.57,340c-9.11,5.26-9.11,13.8,0,19.06s23.9,5.27,33,0,9.12-13.8,0-19.06S60.69,334.76,51.57,340Z" style="fill:#fff"></path></g><path d="M56,342.56c-6.7,3.87-6.7,10.13,0,14s17.55,3.87,24.25,0,6.69-10.13,0-14S62.65,338.69,56,342.56Z" style="fill:#BA68C8"></path><g style="opacity:0.2"><path d="M56,342.56c-6.7,3.87-6.7,10.13,0,14s17.55,3.87,24.25,0,6.69-10.13,0-14S62.65,338.69,56,342.56Z" style="fill:#fff"></path></g><path d="M80.21,349.2c-6.7-3.86-17.56-3.86-24.25,0a11.22,11.22,0,0,0-4,3.68,11.13,11.13,0,0,0,4,3.68c6.69,3.87,17.55,3.87,24.25,0a11.13,11.13,0,0,0,4-3.68A11.22,11.22,0,0,0,80.21,349.2Z" style="fill:#f5f5f5"></path><g id="freepik--plants--inject-1--inject-242"><path d="M68.6,352.05a27,27,0,0,1-13.82-1.56c-7.64-2.88-8.82-8-8.82-8s6.49-5,11.52-4.58a45.05,45.05,0,0,0-15-1.93s-4.32-2.36-2.31-9.86c0,0,4.77-2.49,14.48.23,0,0-4.43-4.25-13-6.58-.68-.1,1.74-9.89,3.23-14.2s3-3.37,6.53-2.45,14.13,6.28,15.08,9-1.33,9-1.33,9,3.65-2.2,4.86-5.33a12.5,12.5,0,0,1,6.37,3.83c2.73,3.13,1.57,4.67.16,7.15a30.35,30.35,0,0,1-5.23,6.81s3.51-.7,7.87-8.16c0,0,2.37,6.56,2.29,11S75.93,349.52,68.6,352.05Z" style="fill:#BA68C8"></path><path d="M68.6,352.05a27,27,0,0,1-13.82-1.56c-7.64-2.88-8.82-8-8.82-8s6.49-5,11.52-4.58a45.05,45.05,0,0,0-15-1.93s-4.32-2.36-2.31-9.86c0,0,4.77-2.49,14.48.23,0,0-4.43-4.25-13-6.58-.68-.1,1.74-9.89,3.23-14.2s3-3.37,6.53-2.45,14.13,6.28,15.08,9-1.33,9-1.33,9,3.65-2.2,4.86-5.33a12.5,12.5,0,0,1,6.37,3.83c2.73,3.13,1.57,4.67.16,7.15a30.35,30.35,0,0,1-5.23,6.81s3.51-.7,7.87-8.16c0,0,2.37,6.56,2.29,11S75.93,349.52,68.6,352.05Z" style="opacity:0.2"></path><path d="M68.38,352.44a.44.44,0,0,1-.23-.42c1-15-12.22-40.56-18.92-46.3a.45.45,0,0,1,.59-.69c6.81,5.84,20.28,31.86,19.24,47.05a.46.46,0,0,1-.49.42A.33.33,0,0,1,68.38,352.44Z" style="fill:#fff"></path><path d="M66.8,355.71a23.5,23.5,0,0,0,12.14.45c7-1.5,8.65-5.75,8.65-5.75s-5-5.16-9.35-5.45a39.19,39.19,0,0,1,13.19.28s4-1.49,3.27-8.22c0,0-3.79-2.77-12.53-1.68a28.21,28.21,0,0,1,12-4c.61,0-.21-8.76-.94-12.67s-2.19-3.31-5.32-3-13,3.6-14.19,5.85,0,7.95,0,7.95-2.87-2.37-3.51-5.23a10.89,10.89,0,0,0-6,2.48c-2.76,2.34-2,3.82-1.06,6.15a26.41,26.41,0,0,0,3.63,6.56s-3-1.06-5.74-8.07c0,0-2.89,5.36-3.4,9.21S60.8,352.58,66.8,355.71Z" style="fill:#BA68C8"></path><path d="M66.94,356.08a.38.38,0,0,0,.25-.34c1.06-13.05,15.82-33.43,22.35-37.52a.4.4,0,1,0-.43-.67c-6.63,4.16-21.64,24.87-22.71,38.13a.41.41,0,0,0,.37.43A.47.47,0,0,0,66.94,356.08Z" style="fill:#fff"></path></g></g></g></svg>