<svg xmlns="http://www.w3.org/2000/svg" xmlns:xlink="http://www.w3.org/1999/xlink" viewBox="0 0 500 500"><defs><clipPath id="freepik--clip-path--inject-69"><path d="M274.43,172.51a8.18,8.18,0,0,0-.95,2.46,5.38,5.38,0,0,0,.95,2.08L272,181.2l2.64,1.52s.38,5.1,1.71,6.8,2.64,1.7,3.21,1.33,2.65-2.27,2.65-2.27l.94,2.08s5.11-2.08,7.19-2.08,8.31.19,8.31.19-2.26-7.57-2.26-8.89,3-9.26,3-9.26-2.08-1.7-9.07-1.51S274.43,172.51,274.43,172.51Z" style="fill:#fff;stroke:#263238;stroke-linecap:round;stroke-linejoin:round"></path></clipPath><clipPath id="freepik--clip-path-2--inject-69"><path d="M273.48,172.89s4.92-13.8,5.86-14.37,13.05-1.7,16.45-.57,2.46,12.1,2.46,12.1-10,.38-15.13.95A63.27,63.27,0,0,0,273.48,172.89Z" style="fill:#fff;stroke:#263238;stroke-linecap:round;stroke-linejoin:round"></path></clipPath><clipPath id="freepik--clip-path-3--inject-69"><path d="M269.51,174.78s5.86-2.65,15.88-2.65h14.94l2.26-4s-3.78,1-13,1.13S268.75,172.51,269.51,174.78Z" style="fill:#fff;stroke:#263238;stroke-linecap:round;stroke-linejoin:round"></path></clipPath><clipPath id="freepik--clip-path-4--inject-69"><path d="M345.24,266.88c-3.56-8.89-4.45-18.66-8.89-27.54-4.44-10.66-6.22-22.21-11.55-32.87-5.32-9.77-16.87-15.1-26.51-18.93v.35a24.44,24.44,0,0,0-11.77-.45c-8.31,1.89-17.2,10-22.11,12.86s-6.43,12.1-7.76,16.07-3.78,12.48-4,13.23-4.53,5.3-5.48,9.64-6.61,25.15-7.56,27.42-1.7,8.31-1.7,9.45.75,3,1.51,3,4.54.38,5.48,0,1.52-3.21.95-5.29-2.27-4.16-2.27-6.81S255.52,245.29,258,241s3.78-11.54,4.72-12.86,5.49-9.83,5.49-9.83,5.67,21.36,5.29,23.63-3,4.16-3,6.43c0,1.67,1.3,5.94,2.92,6.73,1.3.64,3.52-.55,4.64-1.06,5.28-2.44,11.78-2.91,17.52-2.83a10,10,0,0,1,1.9.15c4.17.86,16.71,8.18,16.71-1.48,0-5.33-3.56-7.83-2.67-13.15,1.74-6.09,2.55-12.46,4.75-18.4a1.34,1.34,0,0,1,0,.2c.53.83,4,7.8,8.4,16.48l-.1.31s2.08,7.75,2.84,9.83c1.1,3,3.68,5.91,5.52,8.51,3.13,4.43,7.91,9.44,7.91,15-.88,3.56-5.33,7.11-1.77,10.66,1.77.89,6.22.89,7.1-1.77C347,274,346.12,270.43,345.24,266.88Z" style="fill:#fff;stroke:#263238;stroke-linecap:round;stroke-linejoin:round"></path></clipPath><clipPath id="freepik--clip-path-5--inject-69"><path d="M272.16,315.05a178.3,178.3,0,0,0,2.45,20.42c1.71,8.13,2.65,21,2.84,25.52a47.53,47.53,0,0,1-.76,9.46h7.57s-2.08-18.15-.76-26.85,2.65-24.39,2.65-25.14S276.88,318.83,272.16,315.05Z" style="fill:#fff;stroke:#263238;stroke-linecap:round;stroke-linejoin:round"></path></clipPath><clipPath id="freepik--clip-path-6--inject-69"><path d="M296.17,317.51a188,188,0,0,1-2.46,18.91c-1.51,7-7.94,27.22-8.51,29.3s.38,1.89,1.89,3a29.15,29.15,0,0,0,4.54,2.46l8.88.19s-7.94-7.18-7.94-8.7,5.3-14.17,8.7-21.55,7.37-14.55,9.26-21S298.25,311.84,296.17,317.51Z" style="fill:#fff;stroke:#263238;stroke-linecap:round;stroke-linejoin:round"></path></clipPath><clipPath id="freepik--clip-path-7--inject-69"><path d="M273.48,254s-4.92,19.28-4.16,25.33.38,20.61-.57,26.28a72.57,72.57,0,0,0-.94,10.59,59.76,59.76,0,0,0,12.48,4.91,13.32,13.32,0,0,0,11-2.45s.38-10.78.76-13.81.38-10.77.38-10.77.94,13.42.94,16.45-1.13,11.34-1.13,11.34,7.75-1.7,11.91-.57a56.35,56.35,0,0,1,8.13,3s2.45-16.83,3.21-22.88-.19-27.41-.76-33.27-2.27-15.32-2.27-15.32-4.53-3.4-12.47-4.16-18.15.76-20.61,1.89A55.45,55.45,0,0,0,273.48,254Z" style="fill:#fff;stroke:#263238;stroke-linecap:round;stroke-linejoin:round"></path></clipPath><clipPath id="freepik--clip-path-8--inject-69"><path d="M324.8,206.47c-5.32-9.77-16.87-15.1-26.51-18.93v.35a24.44,24.44,0,0,0-11.77-.45c-8.31,1.89-17.2,10-22.11,12.86s-6.43,12.1-7.76,16.07c-.32,1-.71,2.22-1.13,3.56,3.31.28,7.5,1.09,10,3.29,1.37-2.49,2.69-5,2.69-5s5.67,21.36,5.29,23.63-3,4.16-3,6.43c0,1.67,1.3,5.94,2.92,6.73,1.3.64,3.52-.55,4.64-1.06,5.28-2.44,11.78-2.91,17.52-2.83a10,10,0,0,1,1.9.15c4.17.86,16.71,8.18,16.71-1.48,0-5.33-3.56-7.83-2.67-13.15,1.74-6.09,2.55-12.46,4.75-18.4a1.34,1.34,0,0,1,0,.2c.3.47,1.53,2.89,3.34,6.46.92-2.57,3.26-6.24,9.14-9A77.2,77.2,0,0,0,324.8,206.47Z" style="fill:#92E3A9;stroke:#263238;stroke-linecap:round;stroke-linejoin:round"></path></clipPath><clipPath id="freepik--clip-path-9--inject-69"><path d="M167.32,192.55s-.93-1.21,3.4-4.16c4.73-3.22,15.32-8.13,16.45-10.4s2.08-4.35,4-4.91,6.83-1.7,6.26-.57-4.18,1.89-4.56,2.46-2.83,2.26-3.59,3.59-5.67,7.75-9.07,12.1c-2.81,3.58-3.41,5.1-4.73,5.86a6.55,6.55,0,0,1-6.24,0" style="fill:#fff;stroke:#263238;stroke-linecap:round;stroke-linejoin:round"></path></clipPath><clipPath id="freepik--clip-path-10--inject-69"><path d="M210.42,199.35a8.69,8.69,0,0,0-3.21,5.49,41.82,41.82,0,0,1-.76,4.91l-9.26-.19-4.92-2.08s2.27-.75,3.41-4.91a15.38,15.38,0,0,0-.57-8.51s.76-1.89,6-1.89S210.42,199.35,210.42,199.35Z" style="fill:#fff;stroke:#263238;stroke-linecap:round;stroke-linejoin:round"></path></clipPath><clipPath id="freepik--clip-path-11--inject-69"><path d="M219.12,273.65s-2.84,20-5.29,26.47-3.41,8.7-2.65,13.42,3.21,21.11-.38,29.43c-2.35,5.45-5.29,15.11-5.29,18.51S208.34,373,208.34,373h-6.61s-.38-5.48-.76-8.13-1.89-4-1.32-6.24,2.27-1.3,2.46-11.51-1.33-25.27-1.14-31.89,2.27-40.45,2.27-40.45Z" style="fill:#fff;stroke:#263238;stroke-linecap:round;stroke-linejoin:round"></path></clipPath><clipPath id="freepik--clip-path-12--inject-69"><path d="M185.47,274.22l4,27.79c.76,5.29-1.89,7.18-2.27,13.8s2.08,25.63,3.59,31.68,1.7,7.75,1.51,8.89-2.45,2.45-1.7,4.91,1.7,2.84,1.52,4.16a35,35,0,0,0-1,5.67,9.32,9.32,0,0,0,.57,3.4h7.37s-1.7-8.88-1.7-11-.95-10.78-.19-15.31,3.21-25.26,3.59-30.93.57-17,.57-22.12.94-20.23.94-20.23S188.87,270.06,185.47,274.22Z" style="fill:#fff;stroke:#263238;stroke-linecap:round;stroke-linejoin:round"></path></clipPath><clipPath id="freepik--clip-path-13--inject-69"><path d="M171.48,193.49l2.65.76s13.23,7,17.58,11,12.1,2.46,12.1,2.46,11-.38,13.42,1.89,1.51,11-.19,19.29-4.54,14.74-4.35,15.88,5.67,11.72,7.38,18.52a55.41,55.41,0,0,1,1.7,12.1s-5.3,1.89-10,3a18.36,18.36,0,0,1-8.89-.19l-11.53-.76c-5.86-.38-8.51-1.51-8.51-1.51s1.51-12.1,3.22-17.77,5.1-13.42,5.1-13.42-3-17.59-4-21.37-3.78-8.88-8.32-13.23-10-12.67-11-14-1.7-3.59.56-4.35" style="fill:#fff;stroke:#263238;stroke-linecap:round;stroke-linejoin:round"></path></clipPath><clipPath id="freepik--clip-path-14--inject-69"><path d="M218.43,258.2c-2.28-6.06-5.59-12.6-5.74-13.47s1.91-5.87,3.58-12.51a10.53,10.53,0,0,1-7.74.22c-5.06-2.2-3.95-20-2.84-24.79-1.14,0-1.88,0-1.88,0s-5.82,1.13-10.2-1.15c0,3.78-.16,11.91-1.15,17.41a19.39,19.39,0,0,1-3.54,8.3c1.1,6,2.22,12.5,2.22,12.5s-3.24,7.38-5,13C192.85,256.57,206.88,254.83,218.43,258.2Z" style="fill:#92E3A9;stroke:#263238;stroke-linecap:round;stroke-linejoin:round"></path></clipPath><clipPath id="freepik--clip-path-15--inject-69"><path d="M215.34,186.88s.76,2.26,1.32,2.45,1.89.95,1.33,1.89a4.36,4.36,0,0,1-1.14,1.33s-.38,4.35-1.32,6.24-6.81.94-7.75.94-6.24-1.7-7.94-3.78S211,186.5,215.34,186.88Z" style="fill:#fff;stroke:#263238;stroke-linecap:round;stroke-linejoin:round"></path></clipPath><clipPath id="freepik--clip-path-16--inject-69"><path d="M191.52,190.47S178.1,204.08,178.1,205s19.85-5.87,32.7-13.43,20.8-23.25,19.66-23.06-20.41,7.94-20.41,7.94S207.59,186.88,191.52,190.47Z" style="fill:#92E3A9;stroke:#263238;stroke-linecap:round;stroke-linejoin:round"></path></clipPath><clipPath id="freepik--clip-path-17--inject-69"><path d="M211.75,176.1s-5.67-4.92-9.27-4.92-12.66,3.79-13.23,7.38,2.27,13.23,2.27,13.23,4.16.19,12.48-5.48S211.75,176.1,211.75,176.1Z" style="fill:#92E3A9;stroke:#263238;stroke-linecap:round;stroke-linejoin:round"></path></clipPath><clipPath id="freepik--clip-path-18--inject-69"><path d="M213.21,222.48c.74,2.06,2.26,6.34,3,8.61,1,3.06,2.5,9.73,4.59,14.73a149.75,149.75,0,0,0,10.09,19.64c1.7,2.8,3.71,5.37,5.37,8.19.68,1.15,1.46,2.92,2.74,3.54,1.67.82,4.9.55,4.9.55s1.52-.32,2.66-.47.24-1.51-.3-2.09c-.23-.25-.66-.88-1.22-1.58a13.58,13.58,0,0,0,3.09.13c.69-.2.39-.7.39-.7s-3-1.39-3.47-1.49-3-.48-3-.48c-2-.83-3.16-1.44-3.69-2.59s-7.24-20.21-8.46-23.09-3.62-4.86-3.92-6.95-2.69-20.33-5.34-25.54-6.27-4.57-6.27-4.57" style="fill:#fff;stroke:#263238;stroke-linecap:round;stroke-linejoin:round"></path></clipPath></defs><g id="freepik--background-simple--inject-69"><path d="M374,151.17C332.85,107.27,270,81,210,100.64,127.17,127.82,49.38,237.55,86.8,331c11.94,29.82,33.51,37.64,62.25,34.22,61.74-7.37,84.68,4.73,141.53-3.56,40.05-5.84,60.76,20.66,110.73,1.19,34.68-13.51,31.23-59,28.12-92.3C425.28,226,404.27,183.45,374,151.17Z" style="fill:#92E3A9"></path><path d="M374,151.17C332.85,107.27,270,81,210,100.64,127.17,127.82,49.38,237.55,86.8,331c11.94,29.82,33.51,37.64,62.25,34.22,61.74-7.37,84.68,4.73,141.53-3.56,40.05-5.84,60.76,20.66,110.73,1.19,34.68-13.51,31.23-59,28.12-92.3C425.28,226,404.27,183.45,374,151.17Z" style="fill:#fff;opacity:0.7000000000000001"></path></g><g id="freepik--Clouds--inject-69"><path d="M384.14,235.48s1.19-20.13-8.29-31.38-23.69-3-36.71-5.93,3-18.95-17.77-30.79S284.66,168,281.1,181s-5.33,17.77-17.17,12.44-23.1,1.77-23.1,11.84,4.15,17.76-9.47,16-26.06,1.77-28.42,7.1,11.84,6.52-7.11,6.52-28.43,3.55-29.61,6.51-17.17,3.56-26.06,4.74-10.65,3-10.65,3H407.83s.59-7.11-8.29-9.47S393,240.22,384.14,235.48Z" style="fill:#92E3A9"></path><path d="M262.51,165.31s.55-9.25-3.81-14.42-10.88-1.36-16.87-2.72,1.36-8.71-8.16-14.15-16.87.27-18.51,6.25-2.45,8.17-7.89,5.72-10.61.82-10.61,5.44,1.9,8.17-4.36,7.35-12,.82-13.06,3.27,5.44,3-3.27,3-13.06,1.63-13.6,3-7.89,1.64-12,2.18-4.9,1.36-4.9,1.36H273.4s.27-3.26-3.81-4.35S266.6,167.49,262.51,165.31Z" style="fill:#92E3A9"></path><path d="M419.44,315.72s.55-9.25-3.81-14.42-10.88-1.36-16.87-2.72,1.36-8.71-8.17-14.15-16.87.27-18.5,6.26-2.45,8.16-7.89,5.71-10.62.82-10.62,5.44,1.91,8.17-4.35,7.35-12,.82-13.06,3.27,5.44,3-3.27,3-13.06,1.63-13.61,3-7.89,1.63-12,2.17-4.9,1.36-4.9,1.36H430.33s.27-3.26-3.81-4.35S423.52,317.9,419.44,315.72Z" style="fill:#92E3A9"></path><g style="opacity:0.4"><path d="M384.14,235.48s1.19-20.13-8.29-31.38-23.69-3-36.71-5.93,3-18.95-17.77-30.79S284.66,168,281.1,181s-5.33,17.77-17.17,12.44-23.1,1.77-23.1,11.84,4.15,17.76-9.47,16-26.06,1.77-28.42,7.1,11.84,6.52-7.11,6.52-28.43,3.55-29.61,6.51-17.17,3.56-26.06,4.74-10.65,3-10.65,3H407.83s.59-7.11-8.29-9.47S393,240.22,384.14,235.48Z" style="fill:#fff"></path><path d="M262.51,165.31s.55-9.25-3.81-14.42-10.88-1.36-16.87-2.72,1.36-8.71-8.16-14.15-16.87.27-18.51,6.25-2.45,8.17-7.89,5.72-10.61.82-10.61,5.44,1.9,8.17-4.36,7.35-12,.82-13.06,3.27,5.44,3-3.27,3-13.06,1.63-13.6,3-7.89,1.64-12,2.18-4.9,1.36-4.9,1.36H273.4s.27-3.26-3.81-4.35S266.6,167.49,262.51,165.31Z" style="fill:#fff"></path><path d="M419.44,315.72s.55-9.25-3.81-14.42-10.88-1.36-16.87-2.72,1.36-8.71-8.17-14.15-16.87.27-18.5,6.26-2.45,8.16-7.89,5.71-10.62.82-10.62,5.44,1.91,8.17-4.35,7.35-12,.82-13.06,3.27,5.44,3-3.27,3-13.06,1.63-13.61,3-7.89,1.63-12,2.17-4.9,1.36-4.9,1.36H430.33s.27-3.26-3.81-4.35S423.52,317.9,419.44,315.72Z" style="fill:#fff"></path></g></g><g id="freepik--Sea--inject-69"><path d="M82.15,317.2A134,134,0,0,0,86.8,331c11.94,29.82,33.51,37.64,62.25,34.22,61.74-7.37,84.68,4.73,141.53-3.56,40.05-5.84,60.76,20.66,110.73,1.19,19.61-7.64,27-25.5,29.21-45.6Z" style="fill:#92E3A9"></path><path d="M82.15,317.2A134,134,0,0,0,86.8,331c11.94,29.82,33.51,37.64,62.25,34.22,61.74-7.37,84.68,4.73,141.53-3.56,40.05-5.84,60.76,20.66,110.73,1.19,19.61-7.64,27-25.5,29.21-45.6Z" style="fill:#fff;opacity:0.42"></path><line x1="99.3" y1="327.27" x2="136.61" y2="327.27" style="fill:none;stroke:#fff;stroke-miterlimit:10"></line><line x1="221.63" y1="327.27" x2="258.94" y2="327.27" style="fill:none;stroke:#fff;stroke-miterlimit:10"></line><line x1="262.74" y1="327.27" x2="338.77" y2="327.27" style="fill:none;stroke:#fff;stroke-miterlimit:10"></line><line x1="335.6" y1="333.95" x2="411.63" y2="333.95" style="fill:none;stroke:#fff;stroke-miterlimit:10"></line><line x1="253.38" y1="333.95" x2="275.93" y2="333.95" style="fill:none;stroke:#fff;stroke-miterlimit:10"></line><line x1="162.14" y1="333.95" x2="232.48" y2="333.95" style="fill:none;stroke:#fff;stroke-miterlimit:10"></line><line x1="109" y1="340.64" x2="179.34" y2="340.64" style="fill:none;stroke:#fff;stroke-miterlimit:10"></line><line x1="193.22" y1="340.64" x2="223.79" y2="340.64" style="fill:none;stroke:#fff;stroke-miterlimit:10"></line><line x1="293.49" y1="340.64" x2="324.06" y2="340.64" style="fill:none;stroke:#fff;stroke-miterlimit:10"></line><line x1="336.6" y1="340.64" x2="389.57" y2="340.64" style="fill:none;stroke:#fff;stroke-miterlimit:10"></line><line x1="317.71" y1="351.33" x2="401.6" y2="351.33" style="fill:none;stroke:#fff;stroke-miterlimit:10"></line><line x1="225.13" y1="351.33" x2="261.9" y2="351.33" style="fill:none;stroke:#fff;stroke-miterlimit:10"></line><line x1="151.94" y1="351.33" x2="188.7" y2="351.33" style="fill:none;stroke:#fff;stroke-miterlimit:10"></line><line x1="113.17" y1="351.33" x2="127.87" y2="351.33" style="fill:none;stroke:#fff;stroke-miterlimit:10"></line><line x1="142.75" y1="327.27" x2="151.27" y2="327.27" style="fill:none;stroke:#fff;stroke-miterlimit:10"></line><line x1="346.3" y1="327.27" x2="354.81" y2="327.27" style="fill:none;stroke:#fff;stroke-miterlimit:10"></line><line x1="362.67" y1="327.27" x2="380.21" y2="327.27" style="fill:none;stroke:#fff;stroke-miterlimit:10"></line></g><g id="freepik--Characters--inject-69"><path d="M274.43,172.51a8.18,8.18,0,0,0-.95,2.46,5.38,5.38,0,0,0,.95,2.08L272,181.2l2.64,1.52s.38,5.1,1.71,6.8,2.64,1.7,3.21,1.33,2.65-2.27,2.65-2.27l.94,2.08s5.11-2.08,7.19-2.08,8.31.19,8.31.19-2.26-7.57-2.26-8.89,3-9.26,3-9.26-2.08-1.7-9.07-1.51S274.43,172.51,274.43,172.51Z" style="fill:#fff"></path><g style="clip-path:url(#freepik--clip-path--inject-69)"><path d="M296.36,179.88c0-1.32,3-9.26,3-9.26s-2.08-1.7-9.07-1.51-15.88,3.4-15.88,3.4a8.18,8.18,0,0,0-.95,2.46,5.38,5.38,0,0,0,.95,2.08L272,181.2l2.64,1.52s.38,5.1,1.71,6.8a4.42,4.42,0,0,0,1.27,1.16l2-.53s8.09-8.59,14.16-8.85c.95,0,1.91,0,2.85,0A8.47,8.47,0,0,1,296.36,179.88Z" style="fill:#92E3A9"></path><path d="M296.36,179.88c0-1.32,3-9.26,3-9.26s-2.08-1.7-9.07-1.51-15.88,3.4-15.88,3.4a8.18,8.18,0,0,0-.95,2.46,5.38,5.38,0,0,0,.95,2.08L272,181.2l2.64,1.52s.38,5.1,1.71,6.8a4.42,4.42,0,0,0,1.27,1.16l2-.53s8.09-8.59,14.16-8.85c.95,0,1.91,0,2.85,0A8.47,8.47,0,0,1,296.36,179.88Z" style="fill:#fff;opacity:0.5"></path></g><path d="M274.43,172.51a8.18,8.18,0,0,0-.95,2.46,5.38,5.38,0,0,0,.95,2.08L272,181.2l2.64,1.52s.38,5.1,1.71,6.8,2.64,1.7,3.21,1.33,2.65-2.27,2.65-2.27l.94,2.08s5.11-2.08,7.19-2.08,8.31.19,8.31.19-2.26-7.57-2.26-8.89,3-9.26,3-9.26-2.08-1.7-9.07-1.51S274.43,172.51,274.43,172.51Z" style="fill:none;stroke:#263238;stroke-linecap:round;stroke-linejoin:round"></path><path d="M285,182.34c-.38-1.7-1.51-7.37-1.51-7.37s2.27-2.65,2.65,0a41.89,41.89,0,0,0,.94,4.72,29.76,29.76,0,0,0,6.43.76,9.87,9.87,0,0,0,2.84-.46v-.11c0-1.32,3-9.26,3-9.26s-2.08-1.7-9.07-1.51a52.66,52.66,0,0,0-12.3,2.25,13.36,13.36,0,0,0,.2,3.79c.37.76,2.27.95,2.27.95s2.26,7.37,1.7,8.32-1.52,2.65-3.22,1.89-2.78-3.08-4.23-2.5c.19,1.59.65,4.51,1.59,5.71,1.32,1.7,2.64,1.7,3.21,1.33s2.65-2.27,2.65-2.27S285.39,184,285,182.34Z" style="fill:#263238;stroke:#263238;stroke-linecap:round;stroke-linejoin:round"></path><path d="M273.48,172.89s4.92-13.8,5.86-14.37,13.05-1.7,16.45-.57,2.46,12.1,2.46,12.1-10,.38-15.13.95A63.27,63.27,0,0,0,273.48,172.89Z" style="fill:#fff"></path><g style="clip-path:url(#freepik--clip-path-2--inject-69)"><path d="M291.12,159a6.42,6.42,0,0,1,.14-1.51c-4.83-.06-11.24.64-11.92,1.05-.94.57-5.86,14.37-5.86,14.37a63.27,63.27,0,0,1,9.64-1.89l.69-.08,8.53-1.71S291.12,161.55,291.12,159Z" style="fill:#92E3A9"></path><path d="M291.12,159a6.42,6.42,0,0,1,.14-1.51c-4.83-.06-11.24.64-11.92,1.05-.94.57-5.86,14.37-5.86,14.37a63.27,63.27,0,0,1,9.64-1.89l.69-.08,8.53-1.71S291.12,161.55,291.12,159Z" style="fill:#fff;opacity:0.5"></path></g><path d="M273.48,172.89s4.92-13.8,5.86-14.37,13.05-1.7,16.45-.57,2.46,12.1,2.46,12.1-10,.38-15.13.95A63.27,63.27,0,0,0,273.48,172.89Z" style="fill:none;stroke:#263238;stroke-linecap:round;stroke-linejoin:round"></path><path d="M298.34,168.28a83.61,83.61,0,0,0-23.29.31c-.9,2.41-1.57,4.3-1.57,4.3a63.27,63.27,0,0,1,9.64-1.89c5.11-.57,15.13-.95,15.13-.95S298.31,169.35,298.34,168.28Z" style="fill:#263238;stroke:#263238;stroke-linecap:round;stroke-linejoin:round"></path><path d="M269.51,174.78s5.86-2.65,15.88-2.65h14.94l2.26-4s-3.78,1-13,1.13S268.75,172.51,269.51,174.78Z" style="fill:#fff"></path><g style="clip-path:url(#freepik--clip-path-3--inject-69)"><path d="M289.55,169.29c-9.26.19-20.8,3.22-20,5.49,0,0,5.86-2.65,15.88-2.65h6.81a4,4,0,0,1,.62-.14c.86,0-.57-2-.57-2s0-.28.09-.78Z" style="fill:#92E3A9"></path><path d="M289.55,169.29c-9.26.19-20.8,3.22-20,5.49,0,0,5.86-2.65,15.88-2.65h6.81a4,4,0,0,1,.62-.14c.86,0-.57-2-.57-2s0-.28.09-.78Z" style="fill:#fff;opacity:0.5"></path></g><path d="M269.51,174.78s5.86-2.65,15.88-2.65h14.94l2.26-4s-3.78,1-13,1.13S268.75,172.51,269.51,174.78Z" style="fill:none;stroke:#263238;stroke-linecap:round;stroke-linejoin:round"></path><path d="M316.22,218.48l0,0C315.91,219.23,316.16,219.24,316.22,218.48Z" style="fill:#fff;stroke:#263238;stroke-linecap:round;stroke-linejoin:round"></path><path d="M345.24,266.88c-3.56-8.89-4.45-18.66-8.89-27.54-4.44-10.66-6.22-22.21-11.55-32.87-5.32-9.77-16.87-15.1-26.51-18.93v.35a24.44,24.44,0,0,0-11.77-.45c-8.31,1.89-17.2,10-22.11,12.86s-6.43,12.1-7.76,16.07-3.78,12.48-4,13.23-4.53,5.3-5.48,9.64-6.61,25.15-7.56,27.42-1.7,8.31-1.7,9.45.75,3,1.51,3,4.54.38,5.48,0,1.52-3.21.95-5.29-2.27-4.16-2.27-6.81S255.52,245.29,258,241s3.78-11.54,4.72-12.86,5.49-9.83,5.49-9.83,5.67,21.36,5.29,23.63-3,4.16-3,6.43c0,1.67,1.3,5.94,2.92,6.73,1.3.64,3.52-.55,4.64-1.06,5.28-2.44,11.78-2.91,17.52-2.83a10,10,0,0,1,1.9.15c4.17.86,16.71,8.18,16.71-1.48,0-5.33-3.56-7.83-2.67-13.15,1.74-6.09,2.55-12.46,4.75-18.4a1.34,1.34,0,0,1,0,.2c.53.83,4,7.8,8.4,16.48l-.1.31s2.08,7.75,2.84,9.83c1.1,3,3.68,5.91,5.52,8.51,3.13,4.43,7.91,9.44,7.91,15-.88,3.56-5.33,7.11-1.77,10.66,1.77.89,6.22.89,7.1-1.77C347,274,346.12,270.43,345.24,266.88Z" style="fill:#fff"></path><g style="clip-path:url(#freepik--clip-path-4--inject-69)"><path d="M261.14,232.6l-21.5,34.06c1-2.27,6.62-23.07,7.56-27.42s5.3-8.88,5.48-9.64c.14-.55,1.51-5.31,2.75-9.37,3.48-2.11,7.62-4.82,9.49-6.83,3.54-3.79,6.07-7.58,6.58-2,.36,4-.6,11.48-1.15,15.3-1.15-4.59-2.16-8.42-2.16-8.42s-4.54,8.51-5.49,9.83A23.44,23.44,0,0,0,261.14,232.6Zm79.46,33c-.33-2.91-1-6.3-3.14-9a71.71,71.71,0,0,1-9.6-18.45c-1.52-4.55-5.82-17.69-5.82-17.69l-3.25,2.93L324.62,235l-.1.31s2.08,7.75,2.84,9.83,8.33,12.55,10.09,14.76C338.58,262,339.64,263.92,340.6,265.64Zm.9,6.14c-.48-.48-.56-2-.71-4v.85c-.73,2.93-3.86,5.85-3,8.78a20.67,20.67,0,0,0,4.94-1.35C344.79,275.07,342.77,273.05,341.5,271.78Z" style="fill:#92E3A9"></path><path d="M261.14,232.6l-21.5,34.06c1-2.27,6.62-23.07,7.56-27.42s5.3-8.88,5.48-9.64c.14-.55,1.51-5.31,2.75-9.37,3.48-2.11,7.62-4.82,9.49-6.83,3.54-3.79,6.07-7.58,6.58-2,.36,4-.6,11.48-1.15,15.3-1.15-4.59-2.16-8.42-2.16-8.42s-4.54,8.51-5.49,9.83A23.44,23.44,0,0,0,261.14,232.6Zm79.46,33c-.33-2.91-1-6.3-3.14-9a71.71,71.71,0,0,1-9.6-18.45c-1.52-4.55-5.82-17.69-5.82-17.69l-3.25,2.93L324.62,235l-.1.31s2.08,7.75,2.84,9.83,8.33,12.55,10.09,14.76C338.58,262,339.64,263.92,340.6,265.64Zm.9,6.14c-.48-.48-.56-2-.71-4v.85c-.73,2.93-3.86,5.85-3,8.78a20.67,20.67,0,0,0,4.94-1.35C344.79,275.07,342.77,273.05,341.5,271.78Z" style="fill:#fff;opacity:0.5"></path></g><path d="M345.24,266.88c-3.56-8.89-4.45-18.66-8.89-27.54-4.44-10.66-6.22-22.21-11.55-32.87-5.32-9.77-16.87-15.1-26.51-18.93v.35a24.44,24.44,0,0,0-11.77-.45c-8.31,1.89-17.2,10-22.11,12.86s-6.43,12.1-7.76,16.07-3.78,12.48-4,13.23-4.53,5.3-5.48,9.64-6.61,25.15-7.56,27.42-1.7,8.31-1.7,9.45.75,3,1.51,3,4.54.38,5.48,0,1.52-3.21.95-5.29-2.27-4.16-2.27-6.81S255.52,245.29,258,241s3.78-11.54,4.72-12.86,5.49-9.83,5.49-9.83,5.67,21.36,5.29,23.63-3,4.16-3,6.43c0,1.67,1.3,5.94,2.92,6.73,1.3.64,3.52-.55,4.64-1.06,5.28-2.44,11.78-2.91,17.52-2.83a10,10,0,0,1,1.9.15c4.17.86,16.71,8.18,16.71-1.48,0-5.33-3.56-7.83-2.67-13.15,1.74-6.09,2.55-12.46,4.75-18.4a1.34,1.34,0,0,1,0,.2c.53.83,4,7.8,8.4,16.48l-.1.31s2.08,7.75,2.84,9.83c1.1,3,3.68,5.91,5.52,8.51,3.13,4.43,7.91,9.44,7.91,15-.88,3.56-5.33,7.11-1.77,10.66,1.77.89,6.22.89,7.1-1.77C347,274,346.12,270.43,345.24,266.88Z" style="fill:none;stroke:#263238;stroke-linecap:round;stroke-linejoin:round"></path><path d="M272.16,315.05a178.3,178.3,0,0,0,2.45,20.42c1.71,8.13,2.65,21,2.84,25.52a47.53,47.53,0,0,1-.76,9.46h7.57s-2.08-18.15-.76-26.85,2.65-24.39,2.65-25.14S276.88,318.83,272.16,315.05Z" style="fill:#fff"></path><g style="clip-path:url(#freepik--clip-path-5--inject-69)"><path d="M278.82,370.45a2.85,2.85,0,0,0,.18-.54c.59-2.66,1.48-5.62,0-13.32s-3.85-29-3.25-32.27,9.47-4.44,9.47-4.44l-1.28-1.78c-3-.17-8.5-.42-11.78-3.05a178.3,178.3,0,0,0,2.45,20.42c1.71,8.13,2.65,21,2.84,25.52a47.53,47.53,0,0,1-.76,9.46Z" style="fill:#92E3A9"></path><path d="M278.82,370.45a2.85,2.85,0,0,0,.18-.54c.59-2.66,1.48-5.62,0-13.32s-3.85-29-3.25-32.27,9.47-4.44,9.47-4.44l-1.28-1.78c-3-.17-8.5-.42-11.78-3.05a178.3,178.3,0,0,0,2.45,20.42c1.71,8.13,2.65,21,2.84,25.52a47.53,47.53,0,0,1-.76,9.46Z" style="fill:#fff;opacity:0.5"></path></g><path d="M272.16,315.05a178.3,178.3,0,0,0,2.45,20.42c1.71,8.13,2.65,21,2.84,25.52a47.53,47.53,0,0,1-.76,9.46h7.57s-2.08-18.15-.76-26.85,2.65-24.39,2.65-25.14S276.88,318.83,272.16,315.05Z" style="fill:none;stroke:#263238;stroke-linecap:round;stroke-linejoin:round"></path><path d="M296.17,317.51a188,188,0,0,1-2.46,18.91c-1.51,7-7.94,27.22-8.51,29.3s.38,1.89,1.89,3a29.15,29.15,0,0,0,4.54,2.46l8.88.19s-7.94-7.18-7.94-8.7,5.3-14.17,8.7-21.55,7.37-14.55,9.26-21S298.25,311.84,296.17,317.51Z" style="fill:#fff"></path><g style="clip-path:url(#freepik--clip-path-6--inject-69)"><path d="M306.83,321.65l-4.11-7.51c-2.92,0-5.72,1.09-6.55,3.37a188,188,0,0,1-2.46,18.91c-1.51,7-7.94,27.22-8.51,29.3s.38,1.89,1.89,3a29.15,29.15,0,0,0,4.54,2.46l.8,0c-1-.68-2-1.42-3.06-2.19-4.45-3.26-1.19-5-1.19-5.93s9.77-36.71,12.14-40.56S306.83,321.65,306.83,321.65Z" style="fill:#92E3A9"></path><path d="M306.83,321.65l-4.11-7.51c-2.92,0-5.72,1.09-6.55,3.37a188,188,0,0,1-2.46,18.91c-1.51,7-7.94,27.22-8.51,29.3s.38,1.89,1.89,3a29.15,29.15,0,0,0,4.54,2.46l.8,0c-1-.68-2-1.42-3.06-2.19-4.45-3.26-1.19-5-1.19-5.93s9.77-36.71,12.14-40.56S306.83,321.65,306.83,321.65Z" style="fill:#fff;opacity:0.5"></path></g><path d="M296.17,317.51a188,188,0,0,1-2.46,18.91c-1.51,7-7.94,27.22-8.51,29.3s.38,1.89,1.89,3a29.15,29.15,0,0,0,4.54,2.46l8.88.19s-7.94-7.18-7.94-8.7,5.3-14.17,8.7-21.55,7.37-14.55,9.26-21S298.25,311.84,296.17,317.51Z" style="fill:none;stroke:#263238;stroke-linecap:round;stroke-linejoin:round"></path><path d="M273.48,254s-4.92,19.28-4.16,25.33.38,20.61-.57,26.28a72.57,72.57,0,0,0-.94,10.59,59.76,59.76,0,0,0,12.48,4.91,13.32,13.32,0,0,0,11-2.45s.38-10.78.76-13.81.38-10.77.38-10.77.94,13.42.94,16.45-1.13,11.34-1.13,11.34,7.75-1.7,11.91-.57a56.35,56.35,0,0,1,8.13,3s2.45-16.83,3.21-22.88-.19-27.41-.76-33.27-2.27-15.32-2.27-15.32-4.53-3.4-12.47-4.16-18.15.76-20.61,1.89A55.45,55.45,0,0,0,273.48,254Z" style="fill:#fff"></path><g style="clip-path:url(#freepik--clip-path-7--inject-69)"><path d="M278.87,256.13c3.44-1.72,13.53-1.23,21.9-1.23a31.74,31.74,0,0,0,11.67-2l0-.1s-4.53-3.4-12.47-4.16-18.15.76-20.61,1.89a55.45,55.45,0,0,0-5.86,3.41s-4.92,19.28-4.16,25.33.38,20.61-.57,26.28c-.1.61-.19,1.21-.27,1.79,1.81,3.41,4.86,8.71,6.2,8.54,2-.24-1-4.67-2-9.1s2.7-4.19,2.7-4.19.5-5.41,1.23-6.4,10.09,18.46,12.8,18.46,1.72-6.64,1.72-6.64l.53.77c.09-1.67.2-3.13.31-4,.38-3,.38-10.77.38-10.77s.94,13.42.94,16.45c0,.18,0,.39,0,.61,1.91,2.64,4.44,5.86,4.75,4.8.49-1.72.73-3.44,3.19-4.92s7.88-6.4,10.1-8.61-8.62,4.43-9.6,0-4.43-9.35-3-9.85,8.37-2.95,10.34-5.9-9.6,1.47-13.29,1.47-1-3.94,1.48-4.92,3.44-1.72-.25-4.43-4.92-2-4.92-7.38-2.22-9.11-4.92-8.12-6.16,5.66-4.68,8.86,1.48,5.41-1.48,2.46,6.16,11.07,6.16,11.07c2.46,2.46-.74,1.48-6.4,0s-8.37-3.69-8.37-7.87S275.42,257.85,278.87,256.13Z" style="fill:#92E3A9"></path><path d="M278.87,256.13c3.44-1.72,13.53-1.23,21.9-1.23a31.74,31.74,0,0,0,11.67-2l0-.1s-4.53-3.4-12.47-4.16-18.15.76-20.61,1.89a55.45,55.45,0,0,0-5.86,3.41s-4.92,19.28-4.16,25.33.38,20.61-.57,26.28c-.1.61-.19,1.21-.27,1.79,1.81,3.41,4.86,8.71,6.2,8.54,2-.24-1-4.67-2-9.1s2.7-4.19,2.7-4.19.5-5.41,1.23-6.4,10.09,18.46,12.8,18.46,1.72-6.64,1.72-6.64l.53.77c.09-1.67.2-3.13.31-4,.38-3,.38-10.77.38-10.77s.94,13.42.94,16.45c0,.18,0,.39,0,.61,1.91,2.64,4.44,5.86,4.75,4.8.49-1.72.73-3.44,3.19-4.92s7.88-6.4,10.1-8.61-8.62,4.43-9.6,0-4.43-9.35-3-9.85,8.37-2.95,10.34-5.9-9.6,1.47-13.29,1.47-1-3.94,1.48-4.92,3.44-1.72-.25-4.43-4.92-2-4.92-7.38-2.22-9.11-4.92-8.12-6.16,5.66-4.68,8.86,1.48,5.41-1.48,2.46,6.16,11.07,6.16,11.07c2.46,2.46-.74,1.48-6.4,0s-8.37-3.69-8.37-7.87S275.42,257.85,278.87,256.13Z" style="fill:#fff;opacity:0.30000000000000004"></path><path d="M293.71,291s3,14.18,4.35,15.32,7,1.89,7,1.89" style="fill:none;stroke:#263238;stroke-linecap:round;stroke-linejoin:round"></path><path d="M298.44,308.44s5.67,1.51,9.26-1.89" style="fill:none;stroke:#263238;stroke-linecap:round;stroke-linejoin:round"></path><path d="M297.68,257.58l-.57,16.07s2.46,4,11.16,4.54" style="fill:none;stroke:#263238;stroke-linecap:round;stroke-linejoin:round"></path><path d="M297.68,256.82s10,0,13.8.95" style="fill:none;stroke:#263238;stroke-linecap:round;stroke-linejoin:round"></path><path d="M298.25,260.6s8.13.19,11.34.95" style="fill:none;stroke:#263238;stroke-linecap:round;stroke-linejoin:round"></path><path d="M273.1,280.27c2.84,1.13,10.78-1.33,10.78-3.4s1.7-20.42,1.7-20.42" style="fill:none;stroke:#263238;stroke-linecap:round;stroke-linejoin:round"></path><path d="M283.5,261.36s-5.86,0-8.51,1.89" style="fill:none;stroke:#263238;stroke-linecap:round;stroke-linejoin:round"></path><path d="M274.05,259.66s4.91-3.21,10.4-1.89" style="fill:none;stroke:#263238;stroke-linecap:round;stroke-linejoin:round"></path><path d="M270.27,288.78s2.45,18.14,5.86,21.74" style="fill:none;stroke:#263238;stroke-linecap:round;stroke-linejoin:round"></path><path d="M270.46,301.44s0,9.45,3,11.53" style="fill:none;stroke:#263238;stroke-linecap:round;stroke-linejoin:round"></path></g><path d="M273.48,254s-4.92,19.28-4.16,25.33.38,20.61-.57,26.28a72.57,72.57,0,0,0-.94,10.59,59.76,59.76,0,0,0,12.48,4.91,13.32,13.32,0,0,0,11-2.45s.38-10.78.76-13.81.38-10.77.38-10.77.94,13.42.94,16.45-1.13,11.34-1.13,11.34,7.75-1.7,11.91-.57a56.35,56.35,0,0,1,8.13,3s2.45-16.83,3.21-22.88-.19-27.41-.76-33.27-2.27-15.32-2.27-15.32-4.53-3.4-12.47-4.16-18.15.76-20.61,1.89A55.45,55.45,0,0,0,273.48,254Z" style="fill:none;stroke:#263238;stroke-linecap:round;stroke-linejoin:round"></path><path d="M316.2,218.44l0,0C316.16,219.24,315.91,219.23,316.2,218.44Z" style="fill:#92E3A9;stroke:#263238;stroke-linecap:round;stroke-linejoin:round"></path><path d="M324.8,206.47c-5.32-9.77-16.87-15.1-26.51-18.93v.35a24.44,24.44,0,0,0-11.77-.45c-8.31,1.89-17.2,10-22.11,12.86s-6.43,12.1-7.76,16.07c-.32,1-.71,2.22-1.13,3.56,3.31.28,7.5,1.09,10,3.29,1.37-2.49,2.69-5,2.69-5s5.67,21.36,5.29,23.63-3,4.16-3,6.43c0,1.67,1.3,5.94,2.92,6.73,1.3.64,3.52-.55,4.64-1.06,5.28-2.44,11.78-2.91,17.52-2.83a10,10,0,0,1,1.9.15c4.17.86,16.71,8.18,16.71-1.48,0-5.33-3.56-7.83-2.67-13.15,1.74-6.09,2.55-12.46,4.75-18.4a1.34,1.34,0,0,1,0,.2c.3.47,1.53,2.89,3.34,6.46.92-2.57,3.26-6.24,9.14-9A77.2,77.2,0,0,0,324.8,206.47Z" style="fill:#92E3A9"></path><g style="clip-path:url(#freepik--clip-path-8--inject-69)"><path d="M290.7,214.62s-2.31,13.14-6.23,22.37" style="fill:none;stroke:#263238;stroke-linecap:round;stroke-linejoin:round"></path><path d="M290.7,222.92s-3,16.76-5.77,22.07" style="fill:none;stroke:#263238;stroke-linecap:round;stroke-linejoin:round"></path><path d="M293,213.93s2.54,11.76,4.85,17.06" style="fill:none;stroke:#263238;stroke-linecap:round;stroke-linejoin:round"></path><path d="M296,231.45s2.54,9.23,5.3,13.38" style="fill:none;stroke:#263238;stroke-linecap:round;stroke-linejoin:round"></path><path d="M270.46,248.32c0-2,2-3.66,2.76-5.55,1.3-.78,2.67-1.3,2.67-.46,0,1.36-3.26,4.9-2.18,4.08s8.71-3,14.69-1.63,12.51,3.81,14.41,2.18,1.36-6.53,1.36-6.53l3.54,4.35a57.14,57.14,0,0,0-.82-9.79c-.81-3.53-1.9-17.67-1.9-17.67l5.44,15.5s-.28-1.91-1.09-7.89-3.81-25-3.81-25l10.66,18.53c-2.17,5.9-3,12.22-4.71,18.26-.89,5.32,2.67,7.82,2.67,13.15,0,9.66-12.54,2.34-16.71,1.48a10,10,0,0,0-1.9-.15c-5.74-.08-12.24.39-17.52,2.83-1.12.51-3.34,1.7-4.64,1.06C271.76,254.26,270.46,250,270.46,248.32Zm20.93-49.79s-1.09,12.24-3,21.76-3.26,13.87-3.26,13.87,5.16-12,6.25-20.67A55.72,55.72,0,0,0,291.39,198.53Z" style="fill:#263238;opacity:0.26"></path></g><path d="M324.8,206.47c-5.32-9.77-16.87-15.1-26.51-18.93v.35a24.44,24.44,0,0,0-11.77-.45c-8.31,1.89-17.2,10-22.11,12.86s-6.43,12.1-7.76,16.07c-.32,1-.71,2.22-1.13,3.56,3.31.28,7.5,1.09,10,3.29,1.37-2.49,2.69-5,2.69-5s5.67,21.36,5.29,23.63-3,4.16-3,6.43c0,1.67,1.3,5.94,2.92,6.73,1.3.64,3.52-.55,4.64-1.06,5.28-2.44,11.78-2.91,17.52-2.83a10,10,0,0,1,1.9.15c4.17.86,16.71,8.18,16.71-1.48,0-5.33-3.56-7.83-2.67-13.15,1.74-6.09,2.55-12.46,4.75-18.4a1.34,1.34,0,0,1,0,.2c.3.47,1.53,2.89,3.34,6.46.92-2.57,3.26-6.24,9.14-9A77.2,77.2,0,0,0,324.8,206.47Z" style="fill:none;stroke:#263238;stroke-linecap:round;stroke-linejoin:round"></path><path d="M338.62,273.19s-1.55,1.73-2,2.15-2,1.31-1.61,1.85,2.15-.3,2.27-.48S338.62,273.19,338.62,273.19Z" style="fill:#fff;stroke:#263238;stroke-linecap:round;stroke-linejoin:round"></path><path d="M340.86,270.49s0,1.9.84,2.53a6.28,6.28,0,0,1,1.48,2.32,3.76,3.76,0,0,0-2.32-1.06c-1.26,0-2.66,2-1.48,3.8" style="fill:none;stroke:#263238;stroke-linecap:round;stroke-linejoin:round"></path><path d="M340.86,274.28S339,273,338.2,274" style="fill:none;stroke:#263238;stroke-linecap:round;stroke-linejoin:round"></path><path d="M342.91,275s-2.68.78-1.63,3.31" style="fill:none;stroke:#263238;stroke-linecap:round;stroke-linejoin:round"></path><path d="M343.39,275.46s-1.31,1.61-.3,2.92" style="fill:none;stroke:#263238;stroke-linecap:round;stroke-linejoin:round"></path><path d="M167.32,192.55s-.93-1.21,3.4-4.16c4.73-3.22,15.32-8.13,16.45-10.4s2.08-4.35,4-4.91,6.83-1.7,6.26-.57-4.18,1.89-4.56,2.46-2.83,2.26-3.59,3.59-5.67,7.75-9.07,12.1c-2.81,3.58-3.41,5.1-4.73,5.86a6.55,6.55,0,0,1-6.24,0" style="fill:#fff"></path><g style="clip-path:url(#freepik--clip-path-9--inject-69)"><path d="M198.28,172.16s-7.56,1.76-9.14,3.52-6.33,6.33-8.8,7.73-12.84,8.27-13.19,10,7,.81,7,.81,12-14,14.48-15.76,9.67-3.52,11.61-4.93S198.28,172.16,198.28,172.16Z" style="fill:#92E3A9"></path><path d="M198.28,172.16s-7.56,1.76-9.14,3.52-6.33,6.33-8.8,7.73-12.84,8.27-13.19,10,7,.81,7,.81,12-14,14.48-15.76,9.67-3.52,11.61-4.93S198.28,172.16,198.28,172.16Z" style="fill:#fff;opacity:0.5"></path></g><path d="M167.32,192.55s-.93-1.21,3.4-4.16c4.73-3.22,15.32-8.13,16.45-10.4s2.08-4.35,4-4.91,6.83-1.7,6.26-.57-4.18,1.89-4.56,2.46-2.83,2.26-3.59,3.59-5.67,7.75-9.07,12.1c-2.81,3.58-3.41,5.1-4.73,5.86a6.55,6.55,0,0,1-6.24,0" style="fill:none;stroke:#263238;stroke-linecap:round;stroke-linejoin:round"></path><path d="M210.42,199.35a8.69,8.69,0,0,0-3.21,5.49,41.82,41.82,0,0,1-.76,4.91l-9.26-.19-4.92-2.08s2.27-.75,3.41-4.91a15.38,15.38,0,0,0-.57-8.51s.76-1.89,6-1.89S210.42,199.35,210.42,199.35Z" style="fill:#fff"></path><g style="clip-path:url(#freepik--clip-path-10--inject-69)"><path d="M210.42,199.35a8.69,8.69,0,0,0-3.21,5.49,41.82,41.82,0,0,1-.76,4.91l-9.26-.19-4.92-2.08s2.27-.75,3.41-4.91a15.38,15.38,0,0,0-.57-8.51s.76-1.89,6-1.89S210.42,199.35,210.42,199.35Z" style="fill:#92E3A9"></path><path d="M210.42,199.35a8.69,8.69,0,0,0-3.21,5.49,41.82,41.82,0,0,1-.76,4.91l-9.26-.19-4.92-2.08s2.27-.75,3.41-4.91a15.38,15.38,0,0,0-.57-8.51s.76-1.89,6-1.89S210.42,199.35,210.42,199.35Z" style="fill:#fff;opacity:0.5"></path></g><path d="M210.42,199.35a8.69,8.69,0,0,0-3.21,5.49,41.82,41.82,0,0,1-.76,4.91l-9.26-.19-4.92-2.08s2.27-.75,3.41-4.91a15.38,15.38,0,0,0-.57-8.51s.76-1.89,6-1.89S210.42,199.35,210.42,199.35Z" style="fill:none;stroke:#263238;stroke-linecap:round;stroke-linejoin:round"></path><path d="M219.12,273.65s-2.84,20-5.29,26.47-3.41,8.7-2.65,13.42,3.21,21.11-.38,29.43c-2.35,5.45-5.29,15.11-5.29,18.51S208.34,373,208.34,373h-6.61s-.38-5.48-.76-8.13-1.89-4-1.32-6.24,2.27-1.3,2.46-11.51-1.33-25.27-1.14-31.89,2.27-40.45,2.27-40.45Z" style="fill:#fff"></path><g style="clip-path:url(#freepik--clip-path-11--inject-69)"><path d="M202.15,292.92l.36.55s12.05-16.21,16.61-19.82l-15.88,1.14S202.71,283.48,202.15,292.92Z" style="fill:#92E3A9"></path><path d="M202.15,292.92l.36.55s12.05-16.21,16.61-19.82l-15.88,1.14S202.71,283.48,202.15,292.92Z" style="fill:#fff;opacity:0.5"></path><path d="M202.61,295.6s-.29,13,.3,20.72,5.92,17.47,5.62,24.87-4.44,13.92-4.44,13.92l-4.44.89s.89-16.58.89-22.21V305.07Z" style="fill:#92E3A9"></path><path d="M202.61,295.6s-.29,13,.3,20.72,5.92,17.47,5.62,24.87-4.44,13.92-4.44,13.92l-4.44.89s.89-16.58.89-22.21V305.07Z" style="fill:#fff;opacity:0.5"></path></g><path d="M219.12,273.65s-2.84,20-5.29,26.47-3.41,8.7-2.65,13.42,3.21,21.11-.38,29.43c-2.35,5.45-5.29,15.11-5.29,18.51S208.34,373,208.34,373h-6.61s-.38-5.48-.76-8.13-1.89-4-1.32-6.24,2.27-1.3,2.46-11.51-1.33-25.27-1.14-31.89,2.27-40.45,2.27-40.45Z" style="fill:none;stroke:#263238;stroke-linecap:round;stroke-linejoin:round"></path><path d="M185.47,274.22l4,27.79c.76,5.29-1.89,7.18-2.27,13.8s2.08,25.63,3.59,31.68,1.7,7.75,1.51,8.89-2.45,2.45-1.7,4.91,1.7,2.84,1.52,4.16a35,35,0,0,0-1,5.67,9.32,9.32,0,0,0,.57,3.4h7.37s-1.7-8.88-1.7-11-.95-10.78-.19-15.31,3.21-25.26,3.59-30.93.57-17,.57-22.12.94-20.23.94-20.23S188.87,270.06,185.47,274.22Z" style="fill:#fff"></path><g style="clip-path:url(#freepik--clip-path-12--inject-69)"><path d="M189.85,272.57c0,.47,0,.94,0,1.42l11.61,17.81c.23-6.46.87-16.83.87-16.83S195,272.32,189.85,272.57Z" style="fill:#92E3A9"></path><path d="M189.85,272.57c0,.47,0,.94,0,1.42l11.61,17.81c.23-6.46.87-16.83.87-16.83S195,272.32,189.85,272.57Z" style="fill:#fff;opacity:0.5"></path><path d="M189.58,276.05s-2.66,9.18-1.18,17.18,3.26,14.8,3.26,18.95-2.37,7.7-2.37,15.1,2.66,20.13,3.85,24.57a6.28,6.28,0,0,1-2.67,6.81s-7.1-31.38-7.1-40.26,4.44-13.62,2.66-23.4-3.55-21-3.55-21Z" style="fill:#92E3A9"></path><path d="M189.58,276.05s-2.66,9.18-1.18,17.18,3.26,14.8,3.26,18.95-2.37,7.7-2.37,15.1,2.66,20.13,3.85,24.57a6.28,6.28,0,0,1-2.67,6.81s-7.1-31.38-7.1-40.26,4.44-13.62,2.66-23.4-3.55-21-3.55-21Z" style="fill:#fff;opacity:0.5"></path></g><path d="M185.47,274.22l4,27.79c.76,5.29-1.89,7.18-2.27,13.8s2.08,25.63,3.59,31.68,1.7,7.75,1.51,8.89-2.45,2.45-1.7,4.91,1.7,2.84,1.52,4.16a35,35,0,0,0-1,5.67,9.32,9.32,0,0,0,.57,3.4h7.37s-1.7-8.88-1.7-11-.95-10.78-.19-15.31,3.21-25.26,3.59-30.93.57-17,.57-22.12.94-20.23.94-20.23S188.87,270.06,185.47,274.22Z" style="fill:none;stroke:#263238;stroke-linecap:round;stroke-linejoin:round"></path><path d="M171.48,193.49l2.65.76s13.23,7,17.58,11,12.1,2.46,12.1,2.46,11-.38,13.42,1.89,1.51,11-.19,19.29-4.54,14.74-4.35,15.88,5.67,11.72,7.38,18.52a55.41,55.41,0,0,1,1.7,12.1s-5.3,1.89-10,3a18.36,18.36,0,0,1-8.89-.19l-11.53-.76c-5.86-.38-8.51-1.51-8.51-1.51s1.51-12.1,3.22-17.77,5.1-13.42,5.1-13.42-3-17.59-4-21.37-3.78-8.88-8.32-13.23-10-12.67-11-14-1.7-3.59.56-4.35" style="fill:#fff"></path><g style="clip-path:url(#freepik--clip-path-13--inject-69)"><path d="M178.85,210.13c4.54,4.35,7.37,9.45,8.32,13.23.62,2.5,2.15,11,3.12,16.48H202a41.58,41.58,0,0,1,11.44,2c.78-2.45,2.07-6.21,3.13-10.68-.27-1.09-.77-1.87-1.59-2.06-3.67-.85-7.9-3.11-5.92-12.42,1-4.73,2.44-7.27,3.61-8.63a61.44,61.44,0,0,0-8.81-.39s-7.75,1.51-12.1-2.46c-3.22-.55-15.86-4.57-22.1-6.58C171.81,201.78,175.57,207,178.85,210.13Z" style="fill:#92E3A9"></path><path d="M178.85,210.13c4.54,4.35,7.37,9.45,8.32,13.23.62,2.5,2.15,11,3.12,16.48H202a41.58,41.58,0,0,1,11.44,2c.78-2.45,2.07-6.21,3.13-10.68-.27-1.09-.77-1.87-1.59-2.06-3.67-.85-7.9-3.11-5.92-12.42,1-4.73,2.44-7.27,3.61-8.63a61.44,61.44,0,0,0-8.81-.39s-7.75,1.51-12.1-2.46c-3.22-.55-15.86-4.57-22.1-6.58C171.81,201.78,175.57,207,178.85,210.13Z" style="fill:#fff;opacity:0.5"></path><path d="M182.82,275.92l6.76.13s-6.58-4-4.22-4,3.39.78,3.39,0-6-2.35-2.35-7.84S200,254.82,205,258s10.71,7.58,10.19,10.19-4.7,3.92-4.7,3.92,9.67-1.83,7.58-1.05a74.83,74.83,0,0,0-7.32,3.92s10.71-1.3,7.32.27a106.56,106.56,0,0,1-9.94,4.18S191.26,278.46,182.82,275.92Z" style="fill:#92E3A9"></path><path d="M182.82,275.92l6.76.13s-6.58-4-4.22-4,3.39.78,3.39,0-6-2.35-2.35-7.84S200,254.82,205,258s10.71,7.58,10.19,10.19-4.7,3.92-4.7,3.92,9.67-1.83,7.58-1.05a74.83,74.83,0,0,0-7.32,3.92s10.71-1.3,7.32.27a106.56,106.56,0,0,1-9.94,4.18S191.26,278.46,182.82,275.92Z" style="fill:#fff;opacity:0.30000000000000004"></path><polyline points="192.65 274.03 202.29 276.49 202.29 278.38" style="fill:none;stroke:#263238;stroke-linecap:round;stroke-linejoin:round"></polyline><path d="M202.29,276.49a51.52,51.52,0,0,0,9.65-3" style="fill:none;stroke:#263238;stroke-linecap:round;stroke-linejoin:round"></path><path d="M200.63,257.75s-2.09,7.24-.21,13" style="fill:none;stroke:#263238;stroke-linecap:round;stroke-linejoin:round"></path><path d="M206.8,259s5.53-1.91,10,1.07" style="fill:none;stroke:#263238;stroke-linecap:round;stroke-linejoin:round"></path><path d="M196,259s-5.11-.85-8.09.85" style="fill:none;stroke:#263238;stroke-linecap:round;stroke-linejoin:round"></path></g><path d="M171.48,193.49l2.65.76s13.23,7,17.58,11,12.1,2.46,12.1,2.46,11-.38,13.42,1.89,1.51,11-.19,19.29-4.54,14.74-4.35,15.88,5.67,11.72,7.38,18.52a55.41,55.41,0,0,1,1.7,12.1s-5.3,1.89-10,3a18.36,18.36,0,0,1-8.89-.19l-11.53-.76c-5.86-.38-8.51-1.51-8.51-1.51s1.51-12.1,3.22-17.77,5.1-13.42,5.1-13.42-3-17.59-4-21.37-3.78-8.88-8.32-13.23-10-12.67-11-14-1.7-3.59.56-4.35" style="fill:none;stroke:#263238;stroke-linecap:round;stroke-linejoin:round"></path><path d="M218.43,258.2c-2.28-6.06-5.59-12.6-5.74-13.47s1.91-5.87,3.58-12.51a10.53,10.53,0,0,1-7.74.22c-5.06-2.2-3.95-20-2.84-24.79-1.14,0-1.88,0-1.88,0s-5.82,1.13-10.2-1.15c0,3.78-.16,11.91-1.15,17.41a19.39,19.39,0,0,1-3.54,8.3c1.1,6,2.22,12.5,2.22,12.5s-3.24,7.38-5,13C192.85,256.57,206.88,254.83,218.43,258.2Z" style="fill:#92E3A9"></path><g style="clip-path:url(#freepik--clip-path-14--inject-69)"><path d="M208.53,232.44c-5.06-2.2-3.95-20-2.84-24.79-1.14,0-1.88,0-1.88,0s-5.82,1.13-10.2-1.15c0,3.78-.16,11.91-1.15,17.41a19.39,19.39,0,0,1-3.54,8.3c1.1,6,2.22,12.5,2.22,12.5s-1.46,3.32-2.94,7.21c5.93-3.73,15.6-7.24,26.94-1.57-1.31-2.93-2.37-5.16-2.45-5.64-.16-1,1.91-5.87,3.58-12.51A10.53,10.53,0,0,1,208.53,232.44Z" style="fill:#263238;opacity:0.26"></path></g><path d="M218.43,258.2c-2.28-6.06-5.59-12.6-5.74-13.47s1.91-5.87,3.58-12.51a10.53,10.53,0,0,1-7.74.22c-5.06-2.2-3.95-20-2.84-24.79-1.14,0-1.88,0-1.88,0s-5.82,1.13-10.2-1.15c0,3.78-.16,11.91-1.15,17.41a19.39,19.39,0,0,1-3.54,8.3c1.1,6,2.22,12.5,2.22,12.5s-3.24,7.38-5,13C192.85,256.57,206.88,254.83,218.43,258.2Z" style="fill:none;stroke:#263238;stroke-linecap:round;stroke-linejoin:round"></path><path d="M215.34,186.88s.76,2.26,1.32,2.45,1.89.95,1.33,1.89a4.36,4.36,0,0,1-1.14,1.33s-.38,4.35-1.32,6.24-6.81.94-7.75.94-6.24-1.7-7.94-3.78S211,186.5,215.34,186.88Z" style="fill:#fff"></path><g style="clip-path:url(#freepik--clip-path-15--inject-69)"><path d="M215.34,186.88s.76,2.26,1.32,2.45,1.89.95,1.33,1.89a4.36,4.36,0,0,1-1.14,1.33s-.38,4.35-1.32,6.24-6.81.94-7.75.94-6.24-1.7-7.94-3.78S211,186.5,215.34,186.88Z" style="fill:#92E3A9"></path><path d="M215.34,186.88s.76,2.26,1.32,2.45,1.89.95,1.33,1.89a4.36,4.36,0,0,1-1.14,1.33s-.38,4.35-1.32,6.24-6.81.94-7.75.94-6.24-1.7-7.94-3.78S211,186.5,215.34,186.88Z" style="fill:#fff;opacity:0.5"></path></g><path d="M215.34,186.88s.76,2.26,1.32,2.45,1.89.95,1.33,1.89a4.36,4.36,0,0,1-1.14,1.33s-.38,4.35-1.32,6.24-6.81.94-7.75.94-6.24-1.7-7.94-3.78S211,186.5,215.34,186.88Z" style="fill:none;stroke:#263238;stroke-linecap:round;stroke-linejoin:round"></path><path d="M207.78,192.36A16.6,16.6,0,0,0,206.64,206c2.65,7.75,3.59,15.31-.19,21.93s-11,6.24-16.07,3.59-7-10.77-4-18.9,4.16-13.24,5.3-16.83,3-10.59,10.4-10.77S208.72,188.39,207.78,192.36Z" style="fill:#263238;stroke:#263238;stroke-linecap:round;stroke-linejoin:round"></path><path d="M191.52,190.47S178.1,204.08,178.1,205s19.85-5.87,32.7-13.43,20.8-23.25,19.66-23.06-20.41,7.94-20.41,7.94S207.59,186.88,191.52,190.47Z" style="fill:#92E3A9"></path><g style="clip-path:url(#freepik--clip-path-16--inject-69)"><path d="M209.14,181.12c.15-.39-.24-.62-1-.74-2.25,3.34-7,7.94-16.62,10.09,0,0-13.42,13.61-13.42,14.56,0,.53,6.28-1.4,14.07-4.53C199.43,192.92,208.62,182.51,209.14,181.12Z" style="fill:#263238;opacity:0.2"></path></g><path d="M191.52,190.47S178.1,204.08,178.1,205s19.85-5.87,32.7-13.43,20.8-23.25,19.66-23.06-20.41,7.94-20.41,7.94S207.59,186.88,191.52,190.47Z" style="fill:none;stroke:#263238;stroke-linecap:round;stroke-linejoin:round"></path><path d="M211.75,176.1s-5.67-4.92-9.27-4.92-12.66,3.79-13.23,7.38,2.27,13.23,2.27,13.23,4.16.19,12.48-5.48S211.75,176.1,211.75,176.1Z" style="fill:#92E3A9"></path><g style="clip-path:url(#freepik--clip-path-17--inject-69)"><path d="M192.41,180.08c-3.13-1.57,1.83-6,1.83-6l-.21-.16c-2.48,1.34-4.52,3-4.78,4.66-.57,3.59,2.27,13.23,2.27,13.23s4.16.19,12.48-5.48a29.92,29.92,0,0,0,3.08-2.39,18.27,18.27,0,0,0,2.06-2.8C209.92,179,195.55,181.64,192.41,180.08Z" style="opacity:0.15"></path></g><path d="M211.75,176.1s-5.67-4.92-9.27-4.92-12.66,3.79-13.23,7.38,2.27,13.23,2.27,13.23,4.16.19,12.48-5.48S211.75,176.1,211.75,176.1Z" style="fill:none;stroke:#263238;stroke-linecap:round;stroke-linejoin:round"></path><path d="M199.65,358.64s.56-4.16,3.59-2.26" style="fill:none;stroke:#263238;stroke-linecap:round;stroke-linejoin:round"></path><path d="M192.09,357.32s1.51-2.46,3.78,1.7" style="fill:none;stroke:#263238;stroke-linecap:round;stroke-linejoin:round"></path><path d="M213.21,222.48c.74,2.06,2.26,6.34,3,8.61,1,3.06,2.5,9.73,4.59,14.73a149.75,149.75,0,0,0,10.09,19.64c1.7,2.8,3.71,5.37,5.37,8.19.68,1.15,1.46,2.92,2.74,3.54,1.67.82,4.9.55,4.9.55s1.52-.32,2.66-.47.24-1.51-.3-2.09c-.23-.25-.66-.88-1.22-1.58a13.58,13.58,0,0,0,3.09.13c.69-.2.39-.7.39-.7s-3-1.39-3.47-1.49-3-.48-3-.48c-2-.83-3.16-1.44-3.69-2.59s-7.24-20.21-8.46-23.09-3.62-4.86-3.92-6.95-2.69-20.33-5.34-25.54-6.27-4.57-6.27-4.57" style="fill:#fff"></path><g style="clip-path:url(#freepik--clip-path-18--inject-69)"><path d="M248.54,273s-3-1.39-3.47-1.49l-.86-.14c-3.05.27-6,.34-6.83-.38-1.77-1.51-9.35-16.68-11.88-22s-6.57-17.95-8.59-24.77c-1.53-5.16-.46,4.56.15,9.61a107.28,107.28,0,0,0,3.76,11.94,149.75,149.75,0,0,0,10.09,19.64c1.7,2.8,3.71,5.37,5.37,8.19.68,1.15,1.46,2.92,2.74,3.54,1.67.82,4.9.55,4.9.55s1.52-.32,2.66-.47.24-1.51-.3-2.09c-.23-.25-.66-.88-1.22-1.58a13.58,13.58,0,0,0,3.09.13C248.84,273.53,248.54,273,248.54,273Z" style="fill:#92E3A9"></path><path d="M248.54,273s-3-1.39-3.47-1.49l-.86-.14c-3.05.27-6,.34-6.83-.38-1.77-1.51-9.35-16.68-11.88-22s-6.57-17.95-8.59-24.77c-1.53-5.16-.46,4.56.15,9.61a107.28,107.28,0,0,0,3.76,11.94,149.75,149.75,0,0,0,10.09,19.64c1.7,2.8,3.71,5.37,5.37,8.19.68,1.15,1.46,2.92,2.74,3.54,1.67.82,4.9.55,4.9.55s1.52-.32,2.66-.47.24-1.51-.3-2.09c-.23-.25-.66-.88-1.22-1.58a13.58,13.58,0,0,0,3.09.13C248.84,273.53,248.54,273,248.54,273Z" style="fill:#fff;opacity:0.5"></path></g><path d="M213.21,222.48c.74,2.06,2.26,6.34,3,8.61,1,3.06,2.5,9.73,4.59,14.73a149.75,149.75,0,0,0,10.09,19.64c1.7,2.8,3.71,5.37,5.37,8.19.68,1.15,1.46,2.92,2.74,3.54,1.67.82,4.9.55,4.9.55s1.52-.32,2.66-.47.24-1.51-.3-2.09c-.23-.25-.66-.88-1.22-1.58a13.58,13.58,0,0,0,3.09.13c.69-.2.39-.7.39-.7s-3-1.39-3.47-1.49-3-.48-3-.48c-2-.83-3.16-1.44-3.69-2.59s-7.24-20.21-8.46-23.09-3.62-4.86-3.92-6.95-2.69-20.33-5.34-25.54-6.27-4.57-6.27-4.57" style="fill:none;stroke:#263238;stroke-linecap:round;stroke-linejoin:round"></path></g><g id="freepik--Trees--inject-69"><path d="M123.5,233.17s0,0,0,0C123.36,233.41,123.39,233.36,123.5,233.17Z" style="fill:#263238"></path><path d="M118.18,221.51a2,2,0,0,0-.54.78C117.47,222.81,117.8,222.23,118.18,221.51Z" style="fill:#263238"></path><path d="M107.78,263.38a6.73,6.73,0,0,0-.86,1.42C106.79,265.21,107.12,264.57,107.78,263.38Z" style="fill:#263238"></path><path d="M115.69,222.52a2.85,2.85,0,0,0-.17.26C115.36,223.09,115.47,222.91,115.69,222.52Z" style="fill:#263238"></path><path d="M172.63,242.76c.83.46,2.71,1.27,2.71,1.27l-3.66-2.56,3.18,1s-3.9-3-3-2.75a9,9,0,0,1,1.14.51c-1.22-.91-2.74-2.2-2.74-2.2s-.07-1.59.53-1S174.9,240,174.9,240l-1.73-4.29,3.8,5.16-2.4-6.46-2.37-3.52a5.87,5.87,0,0,0-1.89-.81c-.59,0-1.24-.4-1.83-.4h-.59l.46-1.42-2.41.19,3-.78-2.83-.34s3-1,2.17-1.25-5.36-1-5.36-1l3.82-.32-.71-.23,2.29-1s-5.3,0-4.42-.26a40.66,40.66,0,0,1,4.71-.62l-3.19-1,2.35-1.19-2.18.07,1.4-1.89-1.94.54s2.52-2.31,1.87-2.13-3,1-3,1,3-2.73,2.16-2.43-2.76,1.26-2.76,1.26l.75-2.3c-.17.53-1.75,1.77-1.75,1.77l.46-1.41s4.46-1.68,3.34-1.85-5.3-.55-5.88,0-1.64,1.43-1.64,1.43L159.7,211l-2.92,3.55.09-3.89-1,4.19-.42-1.12-.8,2.48-.54-1.35-.64,1.95-.87,1.47-1.34,2.31c0,.59,0,1.94,0,1.94L151,224l-1.1,2.19h-1.18l2.09-12.44-2.3,7.08,1.36-7.19s-2.7,8.91-2.59,8,.88-9.31.88-9.31-2,7-2.12,7.69c.15-.69-.47-7.55-.47-7.55l-.79,4.83s-.34-6.77-.63-5.88-1.16,3-1.16,3L141.8,210s.57,4.88.44,4.06-2.28-6.82-2.33-6,.62,4.7.14,4.35a39.4,39.4,0,0,1-2.62-4.57l.74,4.35-2.55-3,1.43,3.4-1.4-1.07-1.73-1.32-3.13.83s2.26.65,1.67.65-3.3-.1-2.59.13,4.18,1,3.18,1-4.94.15-4.94.15,5.24.73,3.89,1.27-3.28,1.67-2.46,1.55,3.94-.67,3.94-.67-3.8,3.26-1.87,2.13a20.11,20.11,0,0,1,5.82-1.63s-3.81,2.67-2.81,2,4.28-1.74,3.93-1.26-2.86,2.78-2.1,2.25,5.06-.51,4.06-.44l-3.64,2.14,3.47-.44s-3.4,2-2.22,2,4.24.21,4.24.21-3,1.37-2.41,1.37,3.18.45,3.18.45l-2.46,1.54,2.18-.07-2.1,2.25,2.05-.31s-1.45,3.25-1,2.42a6.36,6.36,0,0,1,2.11-1.66l.59,1.17s-1.45,2.07-.69,2.13a3.64,3.64,0,0,0,1.76-.6l-1.27,3.3s-5-6.73-5.76-8.14-1.92-4.34-1.92-4.34l.14,2.59a11.4,11.4,0,0,0-4.21-5.1,55.1,55.1,0,0,0-8.21-4.24c-.89-.29,1-.24-3.54-.56s-5.53.74-5.53.74,3,.48,3.92.57a14.77,14.77,0,0,0-3,1.48s3.76-.73,2.59-.13a22.7,22.7,0,0,0-3.51,3l2.06-.31s-1.13,2-1.64,2.87a19.77,19.77,0,0,1,3.34-2.71s-.45.93-.85,1.7c.72-.72,1.83-1.23,1.57-.88s-2.52,2.31-1,1.42a22.63,22.63,0,0,1,3.46-1.61s-2.16,2.43-1.58,1.83a6.83,6.83,0,0,1,2.64-.9s-2.57,2.49-1.34,1.72a12.47,12.47,0,0,1,3.7-1.14s-2.75,2.43-1.52,1.65a5.44,5.44,0,0,1,1.18-.5,20.82,20.82,0,0,1,3.11-.64l-1.11,1.59,1.68-.52c1.2-.38,2.54-.79,2-.62-.88.3,1,1.7,1,1.7l-1.94.54,2.88.16a34.75,34.75,0,0,0,3.55,2.33s-11.15-4.22-14.72-1.08-5.84,7.69-5.19,6.92,2.74-3,2.74-3-1.5,3.43-.51,2.18,5.09-4.8,5.09-4.8l-2.27,4.55,3.23-1.49-1.32,2.27c.51-.84,3.38-2.58,3.38-2.58s-2.22,3.78-1.52,2.83a8.51,8.51,0,0,1,2.94-1.78l-1.05,1.42c.35-.47,2.63-2.08,2.28-1.61s-2.69,2.85-1.46,2.07a11.34,11.34,0,0,1,2.11-1.07l-.4,1.24c.4-1.24,2.17-1.84,2-1.31a7.62,7.62,0,0,1-.87,1.48s1.64-1.43,1.47-.89-1.75,2.36-.94,1.65,3.11-1.73,2.53-1.14-2.05,1.49-1,1.25a17.61,17.61,0,0,1,2.64-.32l-.64.77a4.68,4.68,0,0,1,1.3.23,19.72,19.72,0,0,1,1.88.81s-11.66-2-14.72-1.66-3.76.73-4.7,1.2,2.42.4,2.42.4l-5.53,1.33,4.18-.2-5.17,1.44,4.59.33-3.93,1.26s2.53.63,1.94.63-2.52.55-4.4.92-2.46,1.54-4,2-3.92,3-3.92,3l1.76-.6-1.92,2.37-1.35,1.66s.07,1.58.59,1.17,2.17-1.84,2.17-1.84l-1.1,2.18,1.7-1s-2.45,4.49-1.75,3.55,2.81-3.2,2.81-3.2-2.32,4.72-2,4.25,4-5.74,4-5.74-1.68,4-1.16,3.54,3.16-3.67,3.16-3.67-1.22,2.54-.46,2a27.29,27.29,0,0,0,2.75-3s-1.63,3.19-.75,2.3,2.51-2.9,2.51-2.9-1.33,4.07-.86,3.24,3-3.91,3-3.91-.92,2.34-.67,2.4c-.72.79-1.59,1.77-2.65,3a65.64,65.64,0,0,0-7,10.7c1.3-1.81,3.57-4.38,3.57-4.38s-1.74,3.55-.75,2.3,2.34-3,2.34-3-.74,2.28-.87,2.66c.18-.53,3.21-4.44,3.21-4.44s-.72,2.23-1,3.19a17.81,17.81,0,0,1,1-2.33c.78-1.49,1.64-2.87,1.64-2.87l1.64-1.42s-.84,2.57-1.15,3.54c.58-1.77,4-6.33,4-6.33s-1.68,4.55-1.27,3.9,3-4.5,3-4.5-1.91,4.66-1.68,4-4.56,4.38-6.58,10.58l3.52-2.38s-5.56,5-4.74,4.91,4.17-2,3.82-1.49-3.79,5.61-3.79,5.61,4.21-3.91,3.57-3.14-3,4.49-3,4.49,3.1-2.9,2.51-2.31a24.23,24.23,0,0,0-1.91,4.08l2.22-2.61s-1.39,3.07-.87,2.66c.31-.25,1.87-1.43,3.1-2.37-5.88,9.19-14.74,23.13-20.26,32.2-8.85,14.54-28.45,51.3-31.66,55.73-1.24,1.72-4,6.76-7,12.28,3.33-.33,7-.61,10.64-.76,1.28-2.41,2.31-4.43,2.85-5.68,2.43-5.66,16.71-36.91,17.36-37.68s6.37-14.17,15-28.76,14.42-25.64,17.4-28.78c1.26-1.32,3.27-3.48,5.18-5.53l-.56,1,1.77-2.27.69-.74c-.58,1.11-2,3.93-.76,2.58,1.52-1.66,3.86-4.61,3.86-4.61l-5.19,8.09s-.51,2.77-.91,4-1.33,3.48-1.33,3.48l2.92-3.55L127,278.79s1.52-1.66,1.29-1-2.49,5.25-2.49,5.25l3.84-5.79-.92,2.83,1.3-3.69,1.3-3.68,2.51-2.9s-2.14,6-1.73,5.31,4.24-8.21,4.24-8.21l-2.59,8-.87,3.24,5.06-9.51s-1.22,3.76-1.5,4.6c.41-1.24,3.47-8.85,3.47-8.85a2.19,2.19,0,0,1,.52-1.59c.64-.77,1.88-.37,1.88-.37l-2.41,8.61,2.56-3.66s-2.21,6.8-2.36,7.25c.17-.53,2.92-4.14,2.92-4.14l-2.31,7.08,1.58-1.25-.87,2.66.88-.89-1.09,3.36,1.63-1.42-1.26,3.89,4.55-5.56.73,3.17,1-4.36.63-1.95,1.19,1.17.09-2.71,1,1.29-.56-3.11.83.46-.72-2.58,1.66,1.51-.91-3.23,1.18.58-1-2.28,1.35.63-1.3-2,1.41.46-2.14-3,1.13.76-1.37-2.41-.37-1.29,2.14,3s.19,1.24.72,1.41a4.61,4.61,0,0,0,1.82-.19s-1,2.42-.45,2.6.46-.83.53.17-1.26,5.07-1.26,5.07l1.23-1.36-.68,4.47,1-1.24-.92,2.83,1-1.24-1.15,3.54,1.69-2.19,0,3.53s1.24-.18,2.2-6.72a32.88,32.88,0,0,0,.34-4.75l.15-.38s-.14,5.83-.13,6.42,1.38-4.25,1.38-4.25.28,5.77.46,7.59,1.68-5.13,1.68-5.13a23.11,23.11,0,0,0,.71-8.18,24.38,24.38,0,0,0-1.89-6.43c.59-.7,1.95-2.17,1.95-2.17l-.86,3.25,1.69-2.19L162,261l1.92-2.9s-.8,3.65-.45,3.18,1.33-3.48,1.28-2.72-.74,4.07-.74,4.07,1.16-3.54,1.34-2.3a30.79,30.79,0,0,1,.14,3.76s.86-4.42.92-3.42.74,4.35.74,4.35.09-4.47.51-3.36,1.68,5.64,1.5,4.41-.51-5.06-.27-4,1,4.23,1,4.23-.74-4.94.28-2.65a31.27,31.27,0,0,0,1.79,3.52l-.68-4.53,1.84,2.17-2.21-4.64,2,1.81-2.62-4.57c-2.32-3.69.81-1.3-4.46-6.15s-3.62-3.92-7.22-6.66,1,.52,1,.52l-1-2.29,1.13.76.44-3.77,2.22,5.81.51-2.77s1,4.23,1.14,3.7a34,34,0,0,0,.27-3.82l1,3.64s.5-4,1-3,1.68,5.05,1.68,5.05l1.33-3.48.8,4.76.92-2.83.67,3.35,1.57-3,.37,3.06-.39-6,1.77.57S171.8,242.29,172.63,242.76ZM156.35,258a1,1,0,0,1,0-.16l.13-.18Zm1.81,9.36c0-.3,0-.6,0-.9.37-.55.65-1,.65-1S158.51,266.27,158.16,267.34Zm3.19-12.21s-.64,1.7-.94,2.63c-.1-.24-.21-.48-.31-.73C160.7,256.17,161.35,255.13,161.35,255.13Zm-1.24-.4s-.21.66-.42,1.38c-.06-.15-.12-.29-.19-.43Zm-1.36-1.81a7.42,7.42,0,0,0-.19.76c-.06-.14-.13-.27-.19-.4C158.67,252.82,158.86,252.58,158.75,252.92Zm-.18,8.94-.68,2.1c0-.36-.1-.7-.15-1C158.21,262.33,158.57,261.86,158.57,261.86Zm-.84-2.82-.49,1.5c-.07-.25-.13-.49-.2-.72Z" style="fill:#263238"></path><path d="M173,240.27a7.5,7.5,0,0,0,1.34.89C174.81,241.32,173.89,240.74,173,240.27Z" style="fill:#263238"></path><path d="M334.62,198.58c0,.47.55-.78,1.21-2.44A7.87,7.87,0,0,0,334.62,198.58Z" style="fill:#263238"></path><path d="M355.11,203.87a14.33,14.33,0,0,0-.47,1.88C354.53,206.6,354.81,205.34,355.11,203.87Z" style="fill:#263238"></path><path d="M430.87,194.62c.32.81.65,1.51.65,1.51Z" style="fill:#263238"></path><path d="M423.5,173.36a12.34,12.34,0,0,0,2.23,2.23C426.81,176.25,425,174.63,423.5,173.36Z" style="fill:#263238"></path><path d="M434.2,372.93a164,164,0,0,1-7.86-20.2c-9.87-31.08-11.73-62.7-13.88-74S400,236.31,398.15,232.19a65.41,65.41,0,0,1-3.76-12.6l4.14,6.74-.32-1.56-.54-2.63-.05-2.66,3,5.09L399.3,216l1.36,2-1.73-5.33.75.51-.29-3.63-.09-1.11-.2-3.08,1.14,3.62.57-4.2.69,4,2.51-3.53-.48,3.6a25.69,25.69,0,0,1,1.92-2.19c-.51.75-2.47,4.76-2.47,4.76l3.28-3.22-2.46,6.19,3.14-3.66-2.55,5.37,3.16-3.86-3.19,7.11,3.55-5.22s-3.54,6.65-2.69,6.36,5-5,5-5l-1.1,5.15,2.31-3.56-.62,4.6,1.79-4.24-.6,6,1.59-4.27-.3,5.26,1.28-.44,1.16,2,.82-4.58v6.12l.54-4,1.32,3.85.6-3,.89,4,.4-3,1,3.19-1.61-6.27-.39-1.54L418.19,218l1.52.82L418.46,216s-1.73-2.27-.73-2.13a14.93,14.93,0,0,1,2.92,1L417,211.9l-5.15-5.58,2.8.37s-3.71-2.74-2.91-2.63,3.18.63,3.18.63l-4.16-2.39,5-1,.83,4.4,1.41-2.87-.4,4.43,2-2.79-.84,6.21,2.29-3.36-.58,5.83,1.34-3.9.14,6.54,1.47-4.89,1.29,7.1,1.7-5.07,1,5.84.89-3.55.6,3.14.44-1.77,1.18,2.58,1.49,3.28,1.35.59-.79-6.22,3,6.31.22-4.65,2.87,5.88-.62-4.59-.2-1.42-.74-3.57,1.67,1.24L437,213.37l1,.13s-7.63-3.88-6.43-3.72,6.94,3,6.94,3-4.23-3.43-6.82-5.4-2.73-2.41-4.83-4.93-4.47-4.68-5.53-5.84a23.66,23.66,0,0,0-3.8-3.57c-1.47-1.14-.78-1-1.48-1.51-.36-.25-1.07-.66-2.6-1.48a76.87,76.87,0,0,1-8.27-5.19l7.1,1.77,6.58,5.57s-5.95-5.69-5.18-5.38a56.28,56.28,0,0,1,4.65,3.27s-2.8-3.43-2-2.92,6.16,5.72,6.16,5.72-3.38-5.15-2-4.56,5,5.16,5,5.16-3.13-5.51-1.69-4.1,7.28,9.54,7.28,9.54-5-8.61-4-8.28a5.24,5.24,0,0,0,2.23.1l1.67,3.89c-.48-1.22-.94-2.69-.23-2.48,1.17.36,4.58,5.31,4.58,5.31s-2.9-5.69-1.56-5.1,4.52,7.33,4.52,7.33l-.46-4.14s1.58,4.9,1.69,4.1-.48-5.57-.48-5.57l2.19,5,.11-3.85,1.46,4.27.06-3.46,1.71,3.9s-1.34-3.64-.25-2.68a21.15,21.15,0,0,1,2.75,3.83s-3.8-6.62-3-6.51a14.89,14.89,0,0,1,2.9,1.2s-5.84-5.06-4.44-4.87a16.54,16.54,0,0,1,2.57.55l-6.13-2.87,3.95.94s-8.91-3.44-8.31-3.36l-2.6-.35s-.23-2.88-5.93-5.89-10-4.4-11-4.54,4.09-.06,4.09-.06-3.72-1.11-2.9-1.2a50.87,50.87,0,0,1,5.23.5s-4.93-2.7-4.13-2.6,6.16,2.67,6.16,2.67L421.93,172s.73.61,1.57,1.34c-1.85-2.2-3.91-5.12-3.91-5.12l5.29,4.59s-2.72-4-1.74-3.7,3.68,2.94,3.68,2.94-.94-2.75-1.33-3.76a24.35,24.35,0,0,0,2.69,2.72l-.82-3,2.71,4,.18-2.83,2.66,4.43L432.4,170l1.9,2.49s-1.29-4-.42-2.9a44,44,0,0,1,2.49,4.2s-.69-4,.4-3a36.14,36.14,0,0,1,3.47,4.54s-1.68-5.73-1-5a11.68,11.68,0,0,1,1.53,2.25s-.87-2.57-.1-2.26a17,17,0,0,1,2.76,2.21s-1.33-2.22-.56-1.91,2.3,1.12,2.3,1.12-2.82-1.8-.7-.91a16,16,0,0,1,3.59,2.12l-4.17-3.83,4.29,1.4s-5.85-3.44-5.25-3.36,2.86,0,2.08-.33-5.52-1.35-4.07-1.57a14.89,14.89,0,0,0,3-.82l-5.18-.9s2.74-.65,1.74-.79-8.34-.1-8.34-.1,7.3-1.26-2.78-.58c-2,.14-3.86.31-5.55.5l-.79-.33,3.69-.12-4.9-1.47c1.2.16-.64-1.31-.64-1.31L414,158.12s4.06.14,3.29-.17-2.78-.57-6.61-.89c-2.05-.16-5,1.25-7.34,2.59-1-.07-2.37,0-2.37,0a15.19,15.19,0,0,1,3.41-1.17c1-.07-1.6-.22-1.6-.22a34.62,34.62,0,0,0,5.53-1.7c1.11-.67-2.12-.9-2.12-.9l3.19-1,6.68.29s-8.27-2.14-6.73-2.95,1.45-.21,2.25-.1l2.4.32s7.1,1.77,9.7,2.12-5.76-2.61-5.76-2.61l4.2.57a13.7,13.7,0,0,0-2.49-1.15c-.6-.08,2.63.15,2.63.15a25.2,25.2,0,0,0-3.67-1.52c-.8-.1,4-.88,4-.88l-6-.81,5.5-1.5s-10.76,1.2-14.47,1.51-2.82,1.25-4.07,1.49-3.62,4.2-3.62,4.2l1.15-2.49s-3.69,3.17-4.65,4.26-4.84,8.72-4.84,8.72a44.48,44.48,0,0,0-.78-4.79,8.22,8.22,0,0,1,2.44-1.5c1.28-.44-2.37-.53-2.37-.53l2.39-1.1-2.72-1,.7-.72c.71-.72,1.37-1,4.78-2.21s2.47-1.7,2.47-1.7l-1.85.15-2.18-.49-1,.24-2.78.67,3-2.65-5.25,1.13s2.61-2.7,5.15-3.38,2.48-.28,2.48-.28l5,2.1-1.93-2.3,2.74-.65s-2.07-1.29-3-1.83,3-.82,3.82-1.11-3-.41-4.6-.62,2.1-2,2.1-2l-2.91.42,1.84-1.59-1.07-1.16-2.12,1-2,.91,1.92-2.18a37.5,37.5,0,0,0-8.23,6.63c-3.59,4-4.06,6-4.06,6l-1-3.19-.82,4.58-2-4.75.27,4.11-1.55-3.67-.16,1.2,2.2,6.4-.19,1.41.77,3.36-1.57,4.07,2.3-1.94-1.25,4.73,2.33-2.14a41.17,41.17,0,0,0-2.34,3.77c-.31.77,1-1.1,1-1.1l-2.17,4s3.18-2.43,3.83-2.74-.53.94-1.25,3.29a10.22,10.22,0,0,0-.41,2.09,37.77,37.77,0,0,0-5.22-2.64c-9.83-4.18-10.83-4.31-12.92-4a17.18,17.18,0,0,0-5,2.18s3.94-.49,3.31-.37-4.48,3.06-3.83,2.74,4.65-1.21,4.65-1.21l-2.92,3.48s3.35-2.19,2.87-1.65a23.22,23.22,0,0,0-1.57,2.64l2-1.36-.72,2.35L364,174l-.54,4,.42,1-.79.15c-7.35,1.66-12.83,1.54-16.19,3.73s-7.72,5.89-8.79,7.78c-.57,1-1.52,3.52-2.29,5.45,1.54-2.47,4-5.83,4-5.83s-1.09,6.58-.62,4.6,3.49-6.25,3.49-6.25-2.34,3.76-.7,2.15,3.49-3.2,3.49-3.2-3.27,6.08-1.11,3.72,4-4.15,4-4.15-1.38,2.67-.19,1.41,2.6-2.71,2.6-2.71-3.35,5.25-1.88,3.41a42.64,42.64,0,0,1,3.57-3.8s-1.85,4.65-.89,3.55a30.29,30.29,0,0,1,3.23-2.82s-2.44,4.56-1.68,3.44c.4-.59,1.41-1.85,2.27-2.9l1.4-1.7,1.83,0s-3.9,4.77-2.08,3.39l.83-.66a21.17,21.17,0,0,0-1.27,3.86c-1.87,7.9-3.22,14.85-2.91,14.08s2.58-5.57,2.5-5c0,.29-.32,1.76-.6,3.07.73-2.43,2-5.93,2-5.93s-1.08,8-.61,6,2.45-7.62,2.45-7.62l-.59,4.4c.19-1.4,2.48-7.81,2.48-7.81s-1.91,8.1-.58,5.83a19.08,19.08,0,0,0,1.07-2.22.37.37,0,0,0,.25-.05c1.31-.64,3.64-5.83,3.64-5.83s-1.39,5.73-.49,3.61a47.53,47.53,0,0,1,2.48-4.76s-1.64,6.09-1,4.55,3-5.91,3-5.91-1.61,5.89-1,4.75a29.85,29.85,0,0,1,2.05-3.19s-2.38,5.59-1.39,4.3a24.15,24.15,0,0,1,2.83-2.88l2.06-.13s-9.11,7.12-12.47,12.38-6.57,9.5-7,12.9c-.42,3.1-1.3,9.65-1.37,10.21.1-.8,3.26-9.14,3.26-9.14s-1.73,8.33-.63,6.24a57.87,57.87,0,0,0,2.54-6.79s-1.32,9.8-.37,7.28,2.58-10,2.58-10-.48,8.08.28,7,3.07-9.16,3.07-9.16l-.36,5.66,1.81-5.87s-.22,4.65.49,3.93,2.56-5.36,2.56-5.36l-.38,2.81,3.31-7.91s-.68,5-.37,4.23,2.52-6.59,2.52-6.59-1.08,4.95-.54,4,3.47-9.11,3.47-9.11l0,5.91.26-.68,1.3-3.39s2,.27,1.27,1.19-2.93,5.11-2.93,5.11-1.67,4.87-2.14,6.84-1,4.15-1,4.15l3.44-5.85-1.59,5.69,1.58-2.64-.72,5.41,1.12-2.3-.78,5.81s1.36-4.1,1.46-3.27.37,7.79.37,7.79c1.18.36,2.34,6.84,2.43,6.24s.76-4.18.76-4.18-.23,6.29.07,5.51,1.55-6.92,1.55-6.92.19,6.14.31,6.76,1-1.29,1-1.29l1.22,3a48,48,0,0,0,3.5-4.83,12,12,0,0,0,1.09-3.52l-.53-2.11,1.75.64-3.43-3.31,3.64,1.71-5-3.73,4.39,2.23-1-1.57,2,.44c2.88,10.63,7.05,26.75,11.91,45.86C409.1,290.5,415.35,339,415.35,339s5.39,18.38,11,33.9Zm-18.91-209-.28.06-.69-.48Zm-2.64.61-.63.17c-.75-.37-1.43-.68-1.43-.68Zm-2.19.59-.23.07-.34.11-1.61-.78S409.28,164.77,410.46,165.08Zm-2.67,1-.84.4-.29-.55Zm-42.15,12.73,1.27-2.13,1.87-1.79-.5,3.7C367.38,178.59,366.5,178.66,365.64,178.77Zm12.86.11a75.08,75.08,0,0,0-9.95-.34c.25-.39.61-.95,1-1.52.83-1.26,1.74-2.57,1.7-2.24-.08.6,1.17.36,1.17.36s-1.08,3.52-.78,2.75a10.77,10.77,0,0,1,1.73-2.22l0,1.63,1.09-.49.65-.29h1.63l-.37,1.17s2.9-1.85,2.39-1.1-1.24,1.67-1.24,1.67l1.94-.76Zm10.62,38.65,1.25.64c.25.88.51,1.82.78,2.81Z" style="fill:#263238"></path><path d="M183.14,181.18c0,.47-.56-.78-1.22-2.44A7.75,7.75,0,0,1,183.14,181.18Z" style="fill:#263238"></path><path d="M162.64,186.47a16.18,16.18,0,0,1,.48,1.88C163.23,189.2,163,187.93,162.64,186.47Z" style="fill:#263238"></path><path d="M86.88,177.22c-.32.81-.65,1.51-.65,1.51Z" style="fill:#263238"></path><path d="M94.25,156A12,12,0,0,1,92,158.19C91,158.85,92.78,157.23,94.25,156Z" style="fill:#263238"></path><path d="M181.92,178.74c-.76-1.93-1.71-4.43-2.29-5.45-1.07-1.89-5.44-5.58-8.79-7.78s-8.83-2.07-16.19-3.73c-.25-.06-.52-.1-.79-.15l.43-1-.54-4,1.82,1.39-.73-2.35,2,1.36a23.66,23.66,0,0,0-1.58-2.64c-.48-.55,2.87,1.65,2.87,1.65l-2.91-3.48s4,.89,4.65,1.21-3.21-2.62-3.84-2.74,3.31.37,3.31.37a17.24,17.24,0,0,0-5-2.19c-2.08-.33-3.08-.19-12.91,4a38.21,38.21,0,0,0-5.22,2.65,10.09,10.09,0,0,0-.41-2.09c-.72-2.35-1.91-3.62-1.26-3.3s3.84,2.75,3.84,2.75l-2.17-4s1.27,1.87,1,1.09-2.34-3.76-2.34-3.76l2.33,2.14L136,143.92l2.3,1.94-1.57-4.07.77-3.37-.19-1.4,2.2-6.4-.17-1.21-1.54,3.68L138,129l-2,4.75-.82-4.58-1,3.19s-.47-2-4.07-6a37.47,37.47,0,0,0-8.23-6.64l1.93,2.19-2-.92-2.13-1-1.06,1.16,1.84,1.59-2.91-.42s3.7,1.74,2.1,2-5.46.33-4.6.62,4.76.59,3.81,1.12-3,1.83-3,1.83l2.74.65-1.94,2.3,5-2.1s-.06-.4,2.48.28,5.14,3.38,5.14,3.38l-5.24-1.13,3,2.65-2.77-.67-1-.24-2.17.49-1.86-.15s-.94.53,2.47,1.7,4.07,1.49,4.78,2.21l.71.72-2.72,1,2.39,1.1s-3.66.09-2.37.52a8.15,8.15,0,0,1,2.44,1.51,44.48,44.48,0,0,0-.78,4.79s-3.88-7.63-4.84-8.72-4.65-4.26-4.65-4.26l1.15,2.49s-2.37-4-3.62-4.2-.36-1.17-4.07-1.49-14.47-1.52-14.47-1.52l5.5,1.51-6,.8s4.8.78,4,.89a24.9,24.9,0,0,0-3.67,1.51s3.23-.23,2.63-.15a14.48,14.48,0,0,0-2.5,1.16l4.2-.57s-8.36,3-5.76,2.61,9.7-2.12,9.7-2.12l2.4-.32c.8-.11.72-.71,2.26.1s-6.74,2.94-6.74,2.94l6.69-.29,3.19,1s-3.23.23-2.12.9a35.66,35.66,0,0,0,5.52,1.7s-2.62.15-1.6.22a15.13,15.13,0,0,1,3.42,1.17s-1.4,0-2.38,0c-2.31-1.34-5.28-2.76-7.34-2.59-3.83.31-5.83.58-6.6.89s3.28.17,3.28.17l-7.18,1.17s-1.83,1.47-.63,1.31L91,144.67l3.68.12-.78.33c-1.69-.19-3.53-.36-5.56-.5-10.07-.68-2.77.58-2.77.58s-7.34,0-8.34.1,1.74.79,1.74.79l-5.18.9a14.92,14.92,0,0,0,3,.82c1.46.21-3.29,1.26-4.06,1.57s1.48.41,2.08.33-5.26,3.35-5.26,3.35l4.3-1.39-4.17,3.82a16,16,0,0,1,3.58-2.11c2.12-.9-.69.91-.69.91s1.52-.82,2.29-1.12-.55,1.9-.55,1.9a16.59,16.59,0,0,1,2.76-2.2c.77-.31-.11,2.25-.11,2.25a11.73,11.73,0,0,1,1.53-2.24c.72-.71-1,5-1,5A36.83,36.83,0,0,1,81,153.36c1.1-1,.41,3,.41,3a45.11,45.11,0,0,1,2.49-4.21c.86-1.13-.43,2.91-.43,2.91l1.91-2.49-.52,3.73,2.67-4.43.17,2.83,2.72-4-.82,3a25.27,25.27,0,0,0,2.69-2.72c-.39,1-1.33,3.76-1.33,3.76s2.71-2.61,3.68-2.94-1.74,3.7-1.74,3.7l5.29-4.59s-2.06,2.92-3.92,5.12l1.57-1.34-1.47,2.64s5.36-2.55,6.16-2.66-4.14,2.6-4.14,2.6a51.16,51.16,0,0,1,5.23-.5c.83.09-2.89,1.2-2.89,1.2s5.08-.07,4.08.06-5.29,1.53-11,4.54-5.93,5.89-5.93,5.89l-2.6.35c.6-.08-8.31,3.36-8.31,3.36l4-.94L72.76,174a18.39,18.39,0,0,1,2.58-.55c1.4-.18-4.44,4.88-4.44,4.88a14.74,14.74,0,0,1,2.89-1.2c.8-.11-3,6.51-3,6.51a21.46,21.46,0,0,1,2.74-3.83c1.1-1-.25,2.68-.25,2.68l1.72-3.9.06,3.46,1.46-4.27.11,3.85,2.18-5s-.58,4.77-.47,5.57,1.69-4.1,1.69-4.1l-.46,4.14s3.16-6.75,4.51-7.34-1.55,5.1-1.55,5.1,3.41-4.94,4.58-5.3c.7-.22.25,1.26-.24,2.48l1.68-3.9a5.15,5.15,0,0,0,2.23-.09c1-.34-4,8.28-4,8.28s5.83-8.12,7.27-9.54-1.69,4.1-1.69,4.1,3.67-4.57,5-5.16-2,4.55-2,4.55,5.41-5.21,6.16-5.71-2.06,2.92-2.06,2.92a52.79,52.79,0,0,1,4.66-3.27c.77-.31-5.19,5.38-5.19,5.38l6.59-5.57,7.1-1.77a75.93,75.93,0,0,1-8.27,5.18c-1.53.83-2.25,1.24-2.6,1.49-.71.5,0,.36-1.48,1.51a23.22,23.22,0,0,0-3.8,3.57c-1.07,1.16-3.42,3.31-5.53,5.83s-2.25,3-4.84,4.93-6.81,5.4-6.81,5.4,5.73-2.81,6.94-3-6.43,3.72-6.43,3.72l1-.13-1.88,2.69,1.67-1.24L79.85,201l-.19,1.43L79,207l2.88-5.89.22,4.66,3-6.31-.79,6.22,1.34-.59,1.5-3.28,1.18-2.58.44,1.77.6-3.14.88,3.55,1-5.84,1.7,5.06,1.29-7.1,1.47,4.9.14-6.54,1.34,3.89L96.71,190,99,193.31l-.83-6.2,2,2.79-.39-4.43,1.41,2.86.83-4.39,5,1-4.16,2.39s2.37-.52,3.17-.63-2.9,2.63-2.9,2.63l2.8-.37-5.16,5.58-3.68,2.94a14.93,14.93,0,0,1,2.92-1c1-.14-.73,2.13-.73,2.13L98,201.39l1.52-.82-1,2.79-.39,1.54-1.61,6.27,1-3.19.41,3,.89-4,.6,3,1.32-3.85.54,4V204l.82,4.58,1.16-2,1.28.44-.3-5.26,1.59,4.27-.61-6,1.8,4.24-.62-4.6,2.31,3.56-1.1-5.15s4.1,4.74,5,5-2.69-6.37-2.69-6.37L113.4,202l-3.2-7.11,3.17,3.85-2.55-5.36L114,197l-2.47-6.19,3.29,3.22s-2-4-2.47-4.76,1.92,2.19,1.92,2.19l-.49-3.6,2.52,3.53.69-4,.56,4.21,1.15-3.62-.2,3.08-.09,1.11-.29,3.63.74-.51-1.72,5.33,1.35-2-1.29,8.53,3-5.09,0,2.66-.54,2.63-.32,1.56,4.13-6.74a64.93,64.93,0,0,1-3.75,12.6c-1.89,4.12-12.17,35.25-14.32,46.54s-4,42.92-13.88,74c-5.19,16.34-11.31,27.84-16.54,35.75a68.6,68.6,0,0,1,10,.51c6.91-13.61,17.56-50,17.56-50s6.25-48.53,11.88-70.68c4.85-19.1,9-35.23,11.91-45.86l2-.43-1,1.56,4.39-2.22-5,3.73,3.64-1.71-3.43,3.31,1.75-.64L128,210.8a12.2,12.2,0,0,0,1.08,3.52,49.67,49.67,0,0,0,3.5,4.83l1.23-3s.87,1.92,1,1.29.31-6.76.31-6.76,1.23,6.15,1.54,6.92.08-5.51.08-5.51.68,3.57.76,4.18,1.25-5.88,2.42-6.24c0,0,.29-7,.38-7.79s1.46,3.26,1.46,3.26l-.78-5.8,1.12,2.3-.73-5.41,1.58,2.64-1.58-5.69,3.44,5.85s-.5-2.17-1-4.15-2.14-6.84-2.14-6.84-2.2-4.19-2.93-5.11,1.27-1.19,1.27-1.19l1.3,3.39.26.68,0-5.91s2.93,8.16,3.47,9.11-.54-4-.54-4,2.21,5.81,2.52,6.58-.37-4.23-.37-4.23l3.31,7.91-.38-2.8s1.85,4.64,2.55,5.36.49-3.93.49-3.93l1.81,5.87-.35-5.66s2.3,8,3.07,9.16.28-7,.28-7,1.62,7.52,2.57,10-.36-7.29-.36-7.29a55.4,55.4,0,0,0,2.54,6.79c1.1,2.1-.64-6.23-.64-6.23s3.16,8.34,3.27,9.14c-.07-.56-1-7.11-1.37-10.21-.46-3.4-3.68-7.65-7-12.91S144,173.6,144,173.6l2,.13a24.77,24.77,0,0,1,2.84,2.88c1,1.3-1.4-4.29-1.4-4.29a29.39,29.39,0,0,1,2.06,3.19c.56,1.14-1-4.75-1-4.75s2.43,4.36,3,5.9-1-4.55-1-4.55a47,47,0,0,1,2.48,4.77c.89,2.12-.49-3.61-.49-3.61s2.33,5.19,3.64,5.83a.41.41,0,0,0,.24.05,20.85,20.85,0,0,0,1.08,2.22c1.33,2.26-.58-5.83-.58-5.83s2.29,6.41,2.48,7.81l-.59-4.4s2,5.64,2.45,7.62-.61-6-.61-6,1.28,3.5,2,5.93c-.27-1.31-.56-2.78-.6-3.07-.08-.6,2.2,4.19,2.51,5s-1-6.17-2.92-14.07a20.27,20.27,0,0,0-1.26-3.86l.83.66c1.82,1.38-2.08-3.39-2.08-3.39l1.82,0s.65.77,1.41,1.7,1.87,2.3,2.27,2.9c.76,1.12-1.69-3.44-1.69-3.44a31.1,31.1,0,0,1,3.24,2.82c1,1.09-.89-3.55-.89-3.55a42.64,42.64,0,0,1,3.57,3.8c1.47,1.84-1.89-3.41-1.89-3.41s1.42,1.44,2.61,2.7-.19-1.4-.19-1.4,1.87,1.79,4,4.15-1.11-3.72-1.11-3.72,1.84,1.58,3.49,3.19-.7-2.14-.7-2.14,3,4.28,3.49,6.25-.62-4.6-.62-4.6S180.39,176.27,181.92,178.74Zm-79.17-32.2-.28-.06,1-.42S103.13,146.26,102.75,146.54Zm3,.72-.64-.17,2.07-.52S106.48,146.89,105.74,147.26Zm2.13.6-.34-.11-.23-.07c1.17-.31,2.18-.6,2.18-.6Zm2.94,1.18-.84-.4,1.12-.15Zm15.8,54.54.77-2.81,1.26-.65Zm12.65-42.11-.93-1.36,1.94.75s-.74-.92-1.25-1.66,2.39,1.1,2.39,1.1l-.36-1.17,1.63,0,.64.29,1.09.5v-1.63a10.62,10.62,0,0,1,1.72,2.21c.31.78-.77-2.74-.77-2.74s1.25.23,1.17-.37c0-.32.86,1,1.7,2.24l1,1.53A75.09,75.09,0,0,0,139.26,161.47Zm10.21-.32-.49-3.7,1.87,1.79,1.27,2.12C151.26,161.26,150.37,161.19,149.47,161.15Z" style="fill:#263238"></path></g><g id="freepik--Sand--inject-69"><path d="M421.15,382.28c2.28,0,10.79.25,20.17.55,14,.45,30,1,30,1l-24.84-4.14,20.7-1.55s-24.83-9.31-35.18-11.9-15-.51-28.45,2.59-19.14,5.69-19.14,5.69l14.48,4.14s-16,2.07-24.31,2.07-21.73-1-20.18-1S373,375.56,373,375.56s-17.59-1.56-29.49-4.14c-11.63-2.53-20.79-5-30.38-1.77-4.3-1.43-8.33-2.68-11.23-3.41-10.35-2.58-15-.51-28.45,2.59s-19.14,5.69-19.14,5.69l14.48,4.14s-16,2.07-24.31,2.07-21.73-1-20.18-1S243,375.56,243,375.56s-17.59-1.56-29.49-4.14-21.21-5.18-31-1.55a73.31,73.31,0,0,1-13.66,3.45,43.65,43.65,0,0,1-11-3.62c-7.32-3.62-14.26-1-23.12,1.55s-22,4.14-22,4.14,12.71,4.14,13.87,4.14a129.79,129.79,0,0,1-15,1c-6.17,0-18.11-2.07-18.11-2.07l10.79-4.14S100,371.77,90,368.67s-13.48-5.18-21.19-2.59S42.59,378,42.59,378L58,379.53l-18.49,4.14s11.9-.56,22.35-1c7-.3,13.32-.55,15-.55,0,0-8.47,3.1-15.41,5.17S48,390.91,48,390.91s16.18.52,29.66.52,31.21,1,41.61,2.07,24.66,1,26.58,1-22.73-3.62-22.73-3.62,12.33-1.55,20.42-3.62,13.87-4.14,18.11-4.14c1.06,0,2.81-.06,4.85-.16,4.44.18,8.66.33,10.78.33,5.69,0,13.45,2.06,24.31,4.13S229,391.08,229,391.08s-33.11,3.62-30.52,3.62,21.73,0,35.69-1,37.77-2.07,55.87-2.07,39.83-.51,39.83-.51-8.79-1.56-18.1-3.63c-6.87-1.52-14.85-3.61-18.58-4.6,5.57.24,11.49.47,14.15.47,5.69,0,13.45,2.06,24.31,4.13s27.42,3.63,27.42,3.63S326,394.7,328.55,394.7s21.73,0,35.69-1,37.77-2.07,55.87-2.07,39.83-.51,39.83-.51-8.79-1.56-18.1-3.63S421.15,382.28,421.15,382.28Z" style="fill:#92E3A9"></path><path d="M421.15,382.28c2.28,0,10.79.25,20.17.55,14,.45,30,1,30,1l-24.84-4.14,20.7-1.55s-24.83-9.31-35.18-11.9-15-.51-28.45,2.59-19.14,5.69-19.14,5.69l14.48,4.14s-16,2.07-24.31,2.07-21.73-1-20.18-1S373,375.56,373,375.56s-17.59-1.56-29.49-4.14c-11.63-2.53-20.79-5-30.38-1.77-4.3-1.43-8.33-2.68-11.23-3.41-10.35-2.58-15-.51-28.45,2.59s-19.14,5.69-19.14,5.69l14.48,4.14s-16,2.07-24.31,2.07-21.73-1-20.18-1S243,375.56,243,375.56s-17.59-1.56-29.49-4.14-21.21-5.18-31-1.55a73.31,73.31,0,0,1-13.66,3.45,43.65,43.65,0,0,1-11-3.62c-7.32-3.62-14.26-1-23.12,1.55s-22,4.14-22,4.14,12.71,4.14,13.87,4.14a129.79,129.79,0,0,1-15,1c-6.17,0-18.11-2.07-18.11-2.07l10.79-4.14S100,371.77,90,368.67s-13.48-5.18-21.19-2.59S42.59,378,42.59,378L58,379.53l-18.49,4.14s11.9-.56,22.35-1c7-.3,13.32-.55,15-.55,0,0-8.47,3.1-15.41,5.17S48,390.91,48,390.91s16.18.52,29.66.52,31.21,1,41.61,2.07,24.66,1,26.58,1-22.73-3.62-22.73-3.62,12.33-1.55,20.42-3.62,13.87-4.14,18.11-4.14c1.06,0,2.81-.06,4.85-.16,4.44.18,8.66.33,10.78.33,5.69,0,13.45,2.06,24.31,4.13S229,391.08,229,391.08s-33.11,3.62-30.52,3.62,21.73,0,35.69-1,37.77-2.07,55.87-2.07,39.83-.51,39.83-.51-8.79-1.56-18.1-3.63c-6.87-1.52-14.85-3.61-18.58-4.6,5.57.24,11.49.47,14.15.47,5.69,0,13.45,2.06,24.31,4.13s27.42,3.63,27.42,3.63S326,394.7,328.55,394.7s21.73,0,35.69-1,37.77-2.07,55.87-2.07,39.83-.51,39.83-.51-8.79-1.56-18.1-3.63S421.15,382.28,421.15,382.28Z" style="fill:#fff;opacity:0.8"></path></g></svg>
